<svg xmlns="http://www.w3.org/2000/svg" id="Layer_1" viewBox="0 0 1920 1080"><defs id="defs1"><style id="style1">.st1{fill:#592c5f}</style></defs><path id="path1" d="M535.5 70.5h-64l-171 476 47-1 45-146h175l-54 147h49l28-86 26 84h96zm-130 288 77-208 75 206z" class="st1"/><path id="path2" d="m1178.5 68.5-67 1-73 199-68-199h-74l-72 189-70-189-76-1-69.34 200.48 27.49 73.38-.71-30.42 57-165L771 355s-106.72-.81-129.73-.31l16.41 43.81H782.5l-53 148h43l31-88 30 86h95l-56-146h118l-51 147h49l32-86 23 85h99l-58-149h123l52 147h95zM851.28 356.17l-1-42.97 57-165L984 356s-131.13-.75-132.72.17m214-.99-1-42.98 57-165L1197 356s-130.28-1.73-131.72-.82" class="st1"/><path id="rect2" d="M1475.5 69.5h86.74v476h-86.74z" class="st1"/><path id="rect3" d="M294.5 641.5h1268v18h-1268z" class="st1"/><path id="rect4" d="M297.5 977.5h1268v18h-1268z" class="st1"/><path id="path4" d="M1374.5 172.5s-46 40-28 62 60 39 59 74c0 0-1.5 37.5-22.5 29.5 0 0-6.74-8.48-13-21-7-14-23.71-26.72-31.5-46.5-6.5-16.5-2.5-43.5-2.5-43.5s-1.5-8.5-8.5-1.5-43.63 56.79-41.5 85.5c2 27 21.5 52.5 52.5 52.5s116 13 118-44S1436 238 1436 238s-36-29-45-41c-4.33-5.77-6.5-32.5-16.5-24.5" style="fill:#ac1e2d"/><g id="g14"><path id="path5" d="M328 822.73v60.53h-23.86v-135.8h67.51l14.94-2.91.39.97-4.07 16.49-54.9-1.55v50.05l53.16-.97v.78l-3.49 13.97-49.66-1.55Z" class="st1"/><path id="path6" d="M469.03 886.17c-21.34 0-37.83-5.63-49.08-16.88-11.83-11.83-17.85-29.88-17.85-52.77 0-24.06 6.01-43.26 18.04-55.29 11.64-11.64 28.91-16.68 51.6-16.68 21.34 0 37.64 5.43 48.89 16.88 11.83 11.83 18.04 29.68 18.04 52.77s-6.01 43.07-18.04 55.29c-11.64 11.64-28.91 16.68-51.6 16.68m3.11-13.39c13.58 0 25.03-2.72 31.82-5.63 4.85-11.64 8.73-31.23 8.73-50.44 0-24.64-3.69-40.35-12.42-49.08-6.79-6.79-16.68-9.7-31.82-9.7-13.19 0-25.03 2.72-31.62 5.63-4.85 11.64-8.73 31.23-8.73 50.44 0 24.64 3.69 40.35 12.61 49.28 6.4 6.6 16.3 9.51 31.43 9.51Z" class="st1"/><path id="path7" d="m654.5 775.39-4.85-26v-1.94h24.06l-2.13 34.92v53.35c0 16.68-4.46 28.32-12.61 36.47-8.73 8.92-22.89 13.97-41.71 13.97-16.68 0-32.79-3.88-42.87-13.97-7.76-7.95-11.83-19.4-11.83-35.11v-89.63H587v89.24c0 12.8 2.33 21.53 7.95 26.97 5.43 5.24 13.97 7.76 26.58 7.76 14.16 0 24.25-3.3 29.49-6.6 1.75-4.85 3.49-14.94 3.49-25.03v-64.41Z" class="st1"/><path id="path8" d="m716.77 777.33 1.75 91.76 3.3 13.19v.97h-21.15l3.3-122.8-8.54-12.03v-.97h27.74l77.79 95.25-1.36-81.09-3.3-13.19v-.97h20.56l-3.1 135.61-9.7.97-87.3-106.7Z" class="st1"/><path id="path9" d="M846.74 747.46h50.05c24.06 0 39.77 4.07 51.22 15.52 13.58 13.39 16.88 34.14 16.88 50.83 0 21.15-5.63 39.38-17.85 51.6-16.1 16.1-42.29 17.85-66.15 17.85h-34.14v-135.8Zm85.56 113.87c4.66-12.42 6.79-27.35 6.79-45.98 0-21.15-2.52-37.25-11.64-46.17-6.4-6.4-16.3-9.31-32.2-9.31-7.95 0-17.65.58-24.64 1.75v105.73c6.21 1.55 14.16 2.33 21.92 2.33 17.27 0 31.82-3.3 39.77-8.34Z" class="st1"/><path id="path10" d="M995.74 883.26H971.3v-.97l54.71-121.83-4.27-10.09v-.97l22.89-3.49 58.39 137.35h-26.19l-17.65-42.68h-51.99l-10.28 27.16-1.16 15.52Zm36.28-108.06-19.98 52.57h41.71z" class="st1"/><path id="path11" d="M1160.25 759.87v123.38h-24.06V759.87h-4.66l-40.93 4.07-.58-.97 4.46-17.65 16.3 2.13h80.32l15.33-2.13.39.97-4.27 17.46-39.19-3.88h-3.1Z" class="st1"/><path id="path12" d="M1226.02 747.46h23.86v135.8h-23.86z" class="st1"/><path id="path13" d="M1343.77 886.17c-21.34 0-37.83-5.63-49.08-16.88-11.83-11.83-17.85-29.88-17.85-52.77 0-24.06 6.01-43.26 18.04-55.29s28.91-16.68 51.6-16.68c21.34 0 37.64 5.43 48.89 16.88 11.83 11.83 18.04 29.68 18.04 52.77s-6.01 43.07-18.04 55.29c-11.64 11.64-28.91 16.68-51.6 16.68m3.11-13.39c13.58 0 25.03-2.72 31.82-5.63 4.85-11.64 8.73-31.23 8.73-50.44 0-24.64-3.69-40.35-12.42-49.08-6.79-6.79-16.68-9.7-31.82-9.7-13.19 0-25.03 2.72-31.62 5.63-4.85 11.64-8.73 31.23-8.73 50.44 0 24.64 3.69 40.35 12.61 49.28 6.4 6.6 16.3 9.51 31.43 9.51Z" class="st1"/><path id="path14" d="m1453.38 777.33 1.75 91.76 3.3 13.19v.97h-21.15l3.3-122.8-8.54-12.03v-.97h27.74l77.79 95.25-1.36-81.09-3.3-13.19v-.97h20.56l-3.1 135.61-9.7.97-87.3-106.7Z" class="st1"/></g></svg>