<?xml version="1.0" encoding="UTF-8"?>
<svg id="Layer_3" xmlns="http://www.w3.org/2000/svg" version="1.1" viewBox="0 0 1200 630">
  <!-- Generator: Adobe Illustrator 30.0.0, SVG Export Plug-In . SVG Version: 2.1.1 Build 123)  -->
  <defs>
    <style>
      .st0 {
        fill: #99badd;
      }

      .st1, .st2 {
        fill: #fff;
      }

      .st1, .st3, .st4 {
        stroke: #000;
        stroke-miterlimit: 10;
        stroke-width: 3px;
      }

      .st3 {
        fill: #366da6;
      }

      .st4 {
        fill: none;
      }
    </style>
  </defs>
  <path class="st3" d="M330.5,343.5c-2-2-5-9-5-9l-1-149s0-46,3-56,23-7,23-7c0,0,73-2,77-2s13,8,16,15,22,6,22,6l96-1s22,0,23,14,.61,20.53.61,20.53"/>
  <path class="st3" d="M494.5,339.5l-60,6s-85,5-95,3-8-14-8-14l4-20s21-86,26-109,16-23,16-23l240-9s9,2,8,9-50,101-50,101"/>
  <path class="st4" d="M388.42,348.77s8.08,52.73,7.08,63.73-4,66-4,66c0,0,5,13,23,14s31,1,32-4-10-19-12-21,8.23-117.73,6.61-121.86"/>
  <path class="st4" d="M460.42,344.59s4.08,54.91,4.08,66.91-5,56-5,56c0,0-3,9,7,12s28,6,28,6"/>
  <polyline class="st4" points="494.33 335.72 495.5 490.5 504.5 496.5"/>
  <path class="st1" d="M514.5,257.5s18-5,22-1,35,25,36,32,2,253,2,253h-15"/>
  <polyline class="st4" points="574.16 502.16 856.4 494.66 862.5 494.5 861.5 479.5 574.68 485.46"/>
  <polyline class="st4" points="856.4 494.66 855.5 528.5 861.5 532.5 862.5 494.5"/>
  <path class="st4" d="M795.5,321.5l-1-49s4-19,14-19c0,0,5-3,25-1s43,36,43,36l1,244h-16"/>
  <path class="st4" d="M808.5,253.5s52,16,53,35,0,191,0,191"/>
  <path class="st4" d="M597.37,345.11c1.63,44.89.63,90.89,1.1,135.82"/>
  <path class="st4" d="M610.68,344.33c-.68,44.67-.68,90.67-1.15,136.07"/>
  <path class="st4" d="M637.29,344.33c-.29,44.67,1.71,90.67.76,135.79"/>
  <path class="st4" d="M648.24,344.33c.76,44.67.76,90.67,1.51,135.39"/>
  <path class="st4" d="M675.64,344.33c.36,44.67,2.36,89.67,1.82,134.7"/>
  <path class="st4" d="M789.9,341.98c.1,45.02.1,89.02.76,134.44"/>
  <path class="st4" d="M802.42,343.55c1.58,44.45.58,88.45.76,132.66"/>
  <path class="st4" d="M827.46,342.77c-.46,44.23-.46,89.23-.76,132.83"/>
  <path class="st4" d="M837.64,341.98c-.64,44.02,1.36,89.02,1.52,133.51"/>
  <path class="st4" d="M587.5,302.5c0,8.3,0,16.61,0,24.91"/>
  <line class="st4" x1="587.5" y1="344.5" x2="586.5" y2="396"/>
  <path class="st4" d="M647.5,300.5c-.08,8.56-.17,17.13-.25,25.69"/>
  <path class="st4" d="M660.24,301.29c0,8.43,0,16.86,0,25.29"/>
  <path class="st4" d="M639.43,440.46c-11.43-3.46-23.43-6.46-29.9-17.24"/>
  <path class="st4" d="M678.04,445.96c-9.85-.85-19.81-1.01-29.5-3.15"/>
  <path class="st4" d="M713.97,446.78c-8.31.43-16.64.48-24.95.09"/>
  <path class="st4" d="M753.63,442.54c-9.79,1.67-19.65,2.92-29.56,3.54"/>
  <path class="st4" d="M790.83,434.5c-8.99,2.31-18.03,4.44-27.14,6.18"/>
  <path class="st4" d="M802.55,369.49c9.8,7.75,19.7,16.92,24,28.98,2.93,8.21,4.49,20.58-3.57,26.49-5.61,4.12-13.36,4.75-19.93,6.32"/>
  <path class="st4" d="M781.29,355.55c2.97,1.61,5.89,3.32,8.75,5.12"/>
  <path class="st4" d="M838.94,411.64"/>
  <polyline class="st4" points="574.68 480.24 856.5 473.5 855.37 341.98"/>
  <path class="st4" d="M483.5,219.5s7,8,14,8,15-6,15-9"/>
  <path class="st4" d="M461.5,208.5s-2-5,4-7,8,7,8,7"/>
  <path class="st4" d="M525.5,205.5c0-4,2-7,5-7s7,6,7,7"/>
  <path class="st1" d="M495.5,295.5s-2-21-1-24,6-13,11-14,15-1,25,7,28,27,28,27l1,250-9-4,1-42-48-39,1,40,12,1v-32"/>
  <path class="st1" d="M401.5,244.5s22,34,42,43,35,13,35,13c0,0,11-4,15-4s10,2,7,5l-5,5c-1,1,4,2,7,4s4,2,7,7,3,9,1,12-6,5-9,7c-5.49,3.66-21.23.8-28-3-6.64-3.73-34-15-43-22s-33-21-41-34-13-20-13-20"/>
  <path class="st4" d="M611.5,301c-.28,8.64-.57,17.29-.85,25.93"/>
  <path class="st1" d="M623.5,301.5v25.34"/>
  <line class="st1" x1="569.76" y1="284.5" x2="793.5" y2="279.5"/>
  <g>
    <g>
      <path class="st2" d="M859.5,322.5v4l-72.14,1.34v-.02c.06-.36.32-2,.67-4.36l71.47-.96Z"/>
      <path class="st0" d="M791.5,296.5c0,3.08-1.58,14.31-2.79,22.47l-.43-.28.22-2.19s0-5-1-10-2-4-2-4c0,0-85-2-87-2s-4,4-5,6c-.47.94-2.26,4.97-4.04,8.98-.11.26-.23.51-.34.77-1.87,4.25-3.62,8.25-3.62,8.25v-27s-1-7,4-6,55,1,55,1l36,1h6s5-2,5,3Z"/>
      <path class="st2" d="M789.5,319.5l-1.4,3.49c.19-1.2.39-2.56.61-4.02l.79.53Z"/>
      <path class="st0" d="M788.28,318.69l.43.28c-.22,1.46-.42,2.82-.61,4.02l-.19.47h-.11l.48-4.77Z"/>
      <path class="st0" d="M788.5,316.5l-.22,2.19-1.78-1.19s-4-3-7-3-11-1-13,0-6,3-6,5c0,1.23-1.14,2.84-1.54,4.35l-42.48.57c.02-.59.02-1.23.02-1.92,0-3-4-5-7-7s-20,0-20,0l-.04-.02c1.78-4.01,3.57-8.04,4.04-8.98,1-2,3-6,5-6s87,2,87,2c0,0,1-1,2,4s1,10,1,10Z"/>
      <path class="st2" d="M786.5,317.5l1.78,1.19-.48,4.77-5.47.08h-.03c-.29-.03-.56-.04-.8-.04-.69,0-1.75,0-2.88.09l-19.66.26c.4-1.51,1.54-3.12,1.54-4.35,0-2,4-4,6-5s10,0,13,0,7,3,7,3Z"/>
      <path class="st0" d="M787.91,323.46l.19-.47c-.02.16-.04.32-.07.47h-.12Z"/>
      <path class="st0" d="M787.91,323.46h.12c-.35,2.36-.61,4-.67,4.36l.4-3.97.15-.39Z"/>
      <polygon class="st0" points="787.91 323.46 787.76 323.85 787.8 323.46 787.91 323.46"/>
      <path class="st2" d="M787.8,323.46l-.04.39-.26.65s-3.06-.77-5.17-.96l5.47-.08Z"/>
      <path class="st2" d="M787.5,324.5l.26-.65-.4,3.97v.02l-14.86.27c.82-1.44.1-.81,1-2.61.65-1.31,3.01-1.76,5.12-1.91l3.68-.05h.03c2.11.19,5.17.96,5.17.96Z"/>
      <path class="st0" d="M784.93,342.45v.58s-8.43,25.47-11.43,26.47-8.91-.91-8.91-.91h-.68c-.11-8.35-.3-16.7-.62-25.04v-.83s21.64-.27,21.64-.27Z"/>
      <path class="st2" d="M758.96,323.85l19.66-.26c-2.11.15-4.47.6-5.12,1.91-.9,1.8-.18,1.17-1,2.61l-11.32.21c-.56-.63-1.12-1.26-1.68-1.82-.77-.77-.8-1.69-.54-2.65Z"/>
      <path class="st2" d="M761.18,328.32l11.32-.21c-.09.16-.2.35-.34.57-1.35,2.18-4.66,2.82-6.66,2.82-1.44,0-2.88-1.56-4.32-3.18Z"/>
      <path class="st2" d="M761.18,328.32l-46.42.86c1.33-1.47,1.64-2.9,1.72-4.76l42.48-.57c-.26.96-.23,1.88.54,2.65.56.56,1.12,1.19,1.68,1.82Z"/>
      <path class="st0" d="M733.5,366.23l-8.04-.77h-.49c0-7.41-.02-14.83-.03-22.26l27.38-.34v.69c.32,8.15.53,16.32.68,24.51h-.41s-5-.47-5-.47l-14.09-1.36Z"/>
      <path class="st2" d="M716.5,322.5c0,.69,0,1.33-.02,1.92l-24.13.33c-3.21-.03-6.02.02-6.02.02l3.17-9.27s17-2,20,0,7,4,7,7Z"/>
      <path class="st2" d="M692.35,324.75l24.13-.33c-.08,1.86-.39,3.29-1.72,4.76l-9.18.17c-1.72-1.49-3.47-3.24-4.08-3.85-.56-.56-5.16-.72-9.15-.75Z"/>
      <path class="st2" d="M714.76,329.18c-.07.09-.16.19-.25.28-2.01,2.04-4.01,3.04-6.01,2.04-.77-.39-1.84-1.22-2.92-2.15l9.18-.17Z"/>
      <path class="st0" d="M713.2,343.35v.2c-.03,7.12-.06,14.21-.08,21.27-3.7-.52-18.27-2.68-22.61-5.1h-.7c-.03-5.35-.06-10.71-.09-16.07l23.48-.3Z"/>
      <path class="st2" d="M682.07,324.89l10.28-.14c3.99.03,8.59.19,9.15.75.61.61,2.36,2.36,4.08,3.85l-132.47,2.46,1.57-5.48,107.39-1.44Z"/>
    </g>
    <g>
      <polyline class="st4" points="573.11 345.11 689.72 343.65 713.2 343.35 724.94 343.2 752.32 342.86 763.28 342.72 784.93 342.45 860.5 341.5"/>
      <path class="st4" d="M689.72,343.55v.1c.03,5.36.06,10.72.09,16.07.01,1.58.01,3.16.02,4.74.16,38.36.09,76.42-.33,114.36"/>
      <path class="st4" d="M713.2,343.55c-.03,7.12-.06,14.21-.08,21.27-.02,6.85-.04,13.67-.04,20.48-.03,31,.07,61.72.41,93.12"/>
      <path class="st4" d="M724.94,342.77v.43c.01,7.43.02,14.85.03,22.26.01,9.33.03,18.65.05,27.97.08,28.23.24,56.41.68,84.59"/>
      <path class="st4" d="M752.33,343.55c.31,8.15.52,16.32.67,24.51.68,36.42.09,73.06.47,109.22"/>
      <path class="st4" d="M763.29,343.55c.32,8.34.51,16.69.62,25.05.5,36.24-.43,72.65,1.63,108.38"/>
      <path class="st4" d="M681.64,300.77c.14,8.04.29,16.07.43,24.12"/>
      <path class="st4" d="M690.51,359.72c4.34,2.42,18.91,4.58,22.61,5.1.55.08.86.12.86.12"/>
      <polyline class="st4" points="725.46 365.46 733.5 366.23 747.59 367.59 752.59 368.07"/>
      <path class="st4" d="M764.59,368.59s5.91,1.91,8.91.91,11.44-26.47,11.44-26.47"/>
      <path class="st4" d="M734.91,316.42s2.17,2.48,4.33,2.48,4.65-1.86,4.65-2.79"/>
      <path class="st4" d="M728.1,313.02s-.62-1.55,1.24-2.17c1.85-.62,2.47,2.17,2.47,2.17"/>
      <path class="st4" d="M747.91,312.09c0-1.24.62-2.17,1.55-2.17s2.16,1.86,2.16,2.17"/>
      <path class="st4" d="M747.5,368.5s-1,12-1,17,0,9-4,10-10,4-11,2c-.58-1.15-1.15-2.64-1.15-4.08,0-1.05.3-2.07,1.15-2.92,2-2,2-4,2-7v-18"/>
      <path class="st4" d="M701.5,364.5s-.28.28-.55,1.45c-.23,1.02-.45,2.74-.45,5.55,0,6,0,9,2,11s3,3,5,3c1.79,0,4.93-.17,5.58-.2.08,0,.12,0,.12,0"/>
      <path class="st4" d="M599.28,415.32c-7.42-5.51-15.06-10.74-22.78-15.82,31.96-12.67,64.91-25.25,98.63-32.37,4.66-.98,9.71-2.33,14.7-2.67,3.3-.22,6.57-.01,9.67,1.04"/>
      <line class="st4" x1="705.58" y1="329.35" x2="573.11" y2="331.81"/>
      <line class="st4" x1="761.18" y1="328.32" x2="714.76" y2="329.18"/>
      <polyline class="st4" points="788.03 323.46 859.5 322.5 859.5 326.5 787.36 327.84 772.5 328.11"/>
      <line class="st4" x1="778.62" y1="323.59" x2="782.3" y2="323.54"/>
      <line class="st4" x1="716.48" y1="324.42" x2="758.96" y2="323.85"/>
      <polyline class="st4" points="574.68 326.33 682.07 324.89 692.35 324.75"/>
      <path class="st4" d="M689.5,315.5s17-2,20,0,7,4,7,7c0,.69,0,1.33-.02,1.92-.08,1.86-.39,3.29-1.72,4.76-.07.09-.16.19-.25.28-2.01,2.04-4.01,3.04-6.01,2.04-.77-.39-1.84-1.22-2.92-2.15-1.72-1.49-3.47-3.24-4.08-3.85-.56-.56-5.16-.72-9.15-.75-3.21-.03-6.02.02-6.02.02"/>
      <line class="st4" x1="788.71" y1="318.97" x2="789.5" y2="319.5"/>
      <path class="st4" d="M787.5,324.5s-3.06-.77-5.17-.96h-.03c-.29-.03-.56-.04-.8-.04-.69,0-1.75,0-2.88.09-2.11.15-4.47.6-5.12,1.91-.9,1.8-.18,1.17-1,2.61-.09.16-.2.35-.34.57-1.35,2.18-4.66,2.82-6.66,2.82-1.44,0-2.88-1.56-4.32-3.18-.56-.63-1.12-1.26-1.68-1.82-.77-.77-.8-1.69-.54-2.65.4-1.51,1.54-3.12,1.54-4.35,0-2,4-4,6-5s10,0,13,0,7,3,7,3l1.78,1.19"/>
      <path class="st4" d="M787.36,327.82c.06-.36.32-2,.67-4.36.03-.15.05-.31.07-.47.19-1.2.39-2.56.61-4.02,1.21-8.16,2.79-19.39,2.79-22.47,0-5-5-3-5-3h-6l-36-1s-50,0-55-1-4,6-4,6v27s1.75-4,3.62-8.25c.11-.26.23-.51.34-.77,1.78-4.01,3.57-8.04,4.04-8.98,1-2,3-6,5-6s87,2,87,2c0,0,1-1,2,4s1,10,1,10"/>
      <polyline class="st4" points="787.36 327.82 787.36 327.84 787.35 327.9"/>
      <line class="st4" x1="573.64" y1="301.29" x2="685.5" y2="299.5"/>
    </g>
  </g>
  <polyline class="st1" points="572.5 288.5 633.5 287.5 720.5 286.5 794.33 285.11"/>
  <path class="st1" d="M838.94,411.64s15.56,14.86,17.56,16.86"/>
</svg>