<?xml version="1.0" encoding="UTF-8"?>
<svg xmlns="http://www.w3.org/2000/svg" version="1.1" viewBox="0 0 1200 630">
  <!-- Generator: Adobe Illustrator 30.0.0, SVG Export Plug-In . SVG Version: 2.1.1 Build 123)  -->
  <defs>
    <style>
      .st0, .st1, .st2, .st3, .st4, .st5, .st6, .st7 {
        stroke-miterlimit: 10;
      }

      .st0, .st2, .st3, .st4, .st5, .st6, .st7 {
        stroke-width: 3px;
      }

      .st0, .st3, .st4, .st6, .st7 {
        stroke: #000;
      }

      .st0, .st8 {
        fill: #e5e5e5;
      }

      .st9 {
        fill: #2b557f;
      }

      .st1 {
        fill: #9abadd;
        stroke: #9abadd;
      }

      .st2 {
        stroke: #fff;
      }

      .st2, .st4, .st6, .st7 {
        fill: none;
      }

      .st3 {
        fill: #555;
      }

      .st10 {
        font-family: Helvetica-Light, Helvetica;
        font-size: 55px;
        font-weight: 300;
      }

      .st11 {
        font-size: 27.83px;
      }

      .st11, .st12 {
        font-family: ArialMT, Arial;
      }

      .st12 {
        font-size: 46px;
      }

      .st4 {
        stroke-dasharray: 11.39 11.39;
      }

      .st13 {
        fill: #366da6;
      }

      .st5 {
        fill: #a2a2a2;
        stroke: #a2a2a2;
      }

      .st6 {
        stroke-dasharray: 12.06 12.06;
      }

      .st14 {
        fill: #4c86c5;
      }
    </style>
  </defs>
  <g id="Layer_2">
    <path class="st0" d="M439,121.5v269.44h480V121.5h-480ZM578.26,209.34c-1.4,1.93-2.89,3.79-4.29,5.72-.33.45-.85.63-1.37.36-.44-.23-.67-.94-.36-1.37,1.4-1.93,2.89-3.79,4.29-5.72.33-.45.85-.63,1.37-.36.44.23.67.94.36,1.37Z"/>
    <path class="st7" d="M992.57,102.34s4.18,196.33,1.89,221.15-2.43,106.05-2.43,106.05c0,0-4.54,13.53-20.33,13.51s-577.68-.97-577.68-.97c0,0-15.8,2.23-20.27-20.34-4.48-22.57-3.97-322.69-3.97-322.69"/>
    <line class="st7" x1="373.2" y1="74.22" x2="991.49" y2="77.52"/>
    <path class="st7" d="M369.77,99.04s.07-40.62,15.88-47.36,45.13-2.18,45.13-2.18c0,0,496.46-8.19,516.76-5.9s38.36.06,40.6,9.09c2.24,9.03,4.43,49.65,4.43,49.65"/>
    <path class="st3" d="M395.11,464.08l-37.33,61.43s-9.03,4.5,11.28,4.53,627.31,5.56,627.31,5.56c0,0,15.8-2.23,11.31-13.52-4.49-11.29-43.82-63.75-43.82-63.75"/>
    <path class="st7" d="M371.98,459.78s-11.84.29-23.13,9.3-65.58,81.13-65.58,81.13c0,0-.83,1.66.7,4.09,2.05,3.24,8.3,7.85,26.35,11.75,31.58,6.82,232.42,2.65,232.42,2.65l480.64.81s47.39.08,51.92-11.2c4.53-11.28-78.81-101.68-78.81-101.68,0,0,11.3-11.26,13.57-20.29,2.27-9.02,2.48-135.39,2.48-135.39l4.72-121.85.2-117.34s2.31-31.59-22.5-36.14-151.18-4.77-151.18-4.77l-148.94,2.01-176.01-.29-126.36-4.72s-38.37,4.45-40.69,45.06c-2.32,40.61-2.49,142.16-2.49,142.16l-.15,88.01-2.39,76.72s-.04,24.82,2.18,42.88c2.23,18.06,4.46,33.86,11.21,40.64,6.76,6.78,24.8,11.32,29.32,11.33s110.57.19,110.57.19l182.78.31,230.17-1.87,83.5-6.63"/>
    <path class="st7" d="M283.97,554.29s-5.24,11.7,1.51,22.99c6.75,11.29,36.09,11.34,36.09,11.34l715.31,7.97s38.36.06,38.43-38.3"/>
    <line class="st7" x1="557.55" y1="531.19" x2="542.74" y2="568.69"/>
    <line class="st7" x1="800.69" y1="534.2" x2="811.06" y2="568.11"/>
    <polyline class="st7" points="499.93 530.26 504.47 514.47 847.46 515.05 852.34 533.75"/>
    <circle class="st7" cx="412.71" cy="61.31" r="7.33"/>
    <circle class="st7" cx="438.38" cy="61.36" r="7.33"/>
    <circle class="st7" cx="464.04" cy="61.4" r="7.33"/>
    <polygon class="st9" points="709.45 200.07 709.59 228.27 734.07 242.25 758.42 228.04 758.29 199.84 733.8 185.86 709.45 200.07"/>
    <polygon class="st9" points="736.33 155.21 736.46 183.4 760.95 197.38 785.3 183.17 785.16 154.98 760.68 140.99 736.33 155.21"/>
    <polygon class="st9" points="761.4 201.14 761.53 229.33 786.02 243.31 810.37 229.1 810.23 200.9 785.75 186.92 761.4 201.14"/>
  </g>
  <g id="Layer_3">
    <g>
      <path class="st5" d="M589.47,156.22c-16.3-1.86-37.41-1.26-51.32,7.56-9.95,6.76-19.07,18.65-17.58,31.21,3.35,20.22,30.26,30.63,47.78,37.01-.01-3.3-.01-7.18-.01-11.33-7.65-4.29-18.03-11.14-21.55-19.25-7.52-17.16,7.95-26.4,23.21-29.76,14.37-3.73,29.97-2.82,43.64,2.84,14.98,6.12,15.42,17.92,9.92,28.96-.38,1.21-.88,2.39-1.5,3.48-.4.61-.92,1.18-1.54,1.72-1.95,2.9-4.24,5.66-6.69,8.17,1.19.76,2.29,1.6,2.91,2.49.33.55.79,1.3,1.34,2.18,29.37-32.12,10.69-59.69-28.61-65.28ZM622.52,210.18c-.33.45-.85.63-1.37.36-.44-.23-.67-.94-.36-1.37,1.4-1.93,2.89-3.79,4.29-5.72.33-.45.85-.63,1.37-.36.44.23.67.94.36,1.37-1.4,1.93-2.89,3.79-4.29,5.72Z"/>
      <path class="st5" d="M602.14,228.35l-15.22,2.9c.09-2.68.19-5.46.31-7.91l10.46-2.42c1.61,2.32,3.09,4.86,4.45,7.43Z"/>
      <path class="st14" d="M630.76,239.86c.16.49-1.49.17-3.34.26-5.75-.01-12.5,0-18.35,0-1.73-.03-1.04.15-1.56-1.23-1.1-3.32-2.54-6.31-4.09-9.49-.66-1.34-1.35-2.7-2.08-4.05-1.36-2.57-2.84-5.11-4.45-7.43-.48-.7-.97-1.38-1.48-2.03-.67-.74-.29-.73-2.24-.97-1.88-.11-4.63-.86-6.34-.58-.15,1.35-.28,3.5-.4,6-.12,2.45-.22,5.23-.31,7.91-.18,5.47-.31,10.51-.43,11.46-.06.36-.23.36-.66.36-2.46-.16-13.17-.63-17.29-.99-.1-.85-.16-4.68-.19-10.08-.01-3.3-.01-7.18-.01-11.33.02-17.46.15-39.52.01-41.75v-.07c.24-1.41,1.61-2.08,3.07-1.99,4.98-.19,17.74.97,22.68,1.19,5.5.14,14.4-.03,18.75.9,3.25.91,5.89,3.78,8.29,6.2,2.27,2.45,4.17,4.89,3.92,8.36-.13,3.26-.46,6.76-1.5,9.95-.38,1.21-.88,2.39-1.5,3.48-.4.61-.92,1.18-1.54,1.72-1.73,1.49-4.17,2.7-6.39,3.6-2.55,1.06-4.82,1.6-5.16,1.81-.11.12.09.19.21.27,1.04.52,2.95,1.41,4.65,2.49,1.19.76,2.29,1.6,2.91,2.49.33.55.79,1.3,1.34,2.18,3.9,6.29,12.43,19.69,13.48,21.36Z"/>
      <path class="st8" d="M586.93,189.48c.83-.7,5.27-.25,7.13-.37,3.5.05,5.97-.37,8.74,1.65,3.4,2.25,1.54,8.68-2.23,9.21-2.87.28-6,.07-9.39.13-1.42-.09-3.29.25-4.24-.31-.35-.29-.41-.92-.43-1.97-.01-1.41,0-3.65,0-5.36,0-1.5-.03-2.49.36-2.92l.06-.07Z"/>
    </g>
    <g>
      <circle class="st1" cx="596.5" cy="326.5" r="44.5"/>
      <g>
        <path class="st2" d="M580,305s3.69.23,7.86.47c4.51.26,9.58.53,11.14.53,3,0,9,2,9,5s1,7-2,10-2,3-7,4-9,0-9,0h-4"/>
        <line class="st2" x1="587.86" y1="305.47" x2="588" y2="345"/>
        <line class="st2" x1="580" y1="344" x2="596" y2="344"/>
        <polyline class="st2" points="599 325 610 343 617 343"/>
      </g>
    </g>
    <text class="st10" transform="translate(647.52 346.22)"><tspan x="0" y="0">Studio</tspan></text>
    <text class="st11" transform="translate(708.1 269.89)"><tspan x="0" y="0">Packages</tspan></text>
    <text class="st12" transform="translate(143.11 301.9)"><tspan x="0" y="0">Docker</tspan><tspan x="-21.71" y="55.2">container</tspan></text>
  </g>
  <g id="Layer_4">
    <path class="st13" d="M164.5,211.5s87,0,90-2l4-3s-2-3-2-7,4-13,4-13c0,0,13,9,10,13s18-5,19,3-16,10-21,9-1,11-18,23-29,14-37,14-23-2-28-5-19-14-20-20-1-12-1-12Z"/>
    <path class="st13" d="M164.5,195.5s-1,9,0,10,13,0,13,0v-10h-13Z"/>
    <rect class="st13" x="182.5" y="181.5" width="13" height="10"/>
    <rect class="st13" x="182.5" y="195.5" width="13" height="11"/>
    <rect class="st13" x="199.5" y="180.5" width="13" height="11"/>
    <rect class="st13" x="199.5" y="195.5" width="13" height="10"/>
    <rect class="st13" x="217.5" y="167.5" width="13" height="10"/>
    <polygon class="st13" points="217.5 181.5 217.5 191.5 231.5 190.5 231.5 181.5 217.5 181.5"/>
    <rect class="st13" x="217.5" y="195.5" width="13" height="10"/>
    <rect class="st13" x="234.5" y="195.5" width="13" height="10"/>
    <g>
      <line class="st7" x1="438.5" y1="121.5" x2="433.44" y2="124.72"/>
      <line class="st6" x1="423.25" y1="131.18" x2="306.16" y2="205.55"/>
      <line class="st7" x1="301.06" y1="208.78" x2="296" y2="212"/>
    </g>
    <g>
      <line class="st7" x1="438.5" y1="390.5" x2="434.76" y2="385.81"/>
      <line class="st4" x1="427.65" y1="376.91" x2="303.3" y2="221.14"/>
      <line class="st7" x1="299.74" y1="216.69" x2="296" y2="212"/>
    </g>
  </g>
</svg>