<?xml version="1.0" encoding="UTF-8"?>
<svg id="Layer_2" xmlns="http://www.w3.org/2000/svg" version="1.1" viewBox="0 0 1200 630">
  <!-- Generator: Adobe Illustrator 30.0.0, SVG Export Plug-In . SVG Version: 2.1.1 Build 123)  -->
  <defs>
    <style>
      .st0 {
        fill: #4b9cd2;
      }

      .st0, .st1, .st2 {
        stroke: #000;
        stroke-miterlimit: 10;
        stroke-width: 3px;
      }

      .st1 {
        fill: #555;
      }

      .st2 {
        fill: none;
      }
    </style>
  </defs>
  <path class="st2" d="M735.82,210.86s2,87,1,98-1,47-1,47c0,0-2,6-9,6h-256s-7,1-9-9c-2-10-2-143-2-143"/>
  <line class="st2" x1="461.32" y1="198.86" x2="735.32" y2="199.86"/>
  <path class="st2" d="M459.82,209.86s0-18,7-21,20-1,20-1c0,0,220-4,229-3s17,0,18,4,2,22,2,22"/>
  <circle class="st0" cx="473.82" cy="295.86" r="6"/>
  <circle class="st0" cx="493.82" cy="259.86" r="6"/>
  <circle class="st0" cx="513.82" cy="279.86" r="6"/>
  <circle class="st0" cx="534.82" cy="253.86" r="6"/>
  <circle class="st0" cx="563.82" cy="298.86" r="6"/>
  <circle class="st0" cx="582.82" cy="265.86" r="6"/>
  <circle class="st0" cx="603.17" cy="243" r="6"/>
  <circle class="st0" cx="645.82" cy="275.86" r="6"/>
  <circle class="st0" cx="674.82" cy="233.86" r="6"/>
  <circle class="st0" cx="702.82" cy="269.86" r="6"/>
  <circle class="st0" cx="727.82" cy="255.86" r="6"/>
  <path class="st1" d="M471.32,371.61l-16.5,27.25s-4,2,5,2,278,2,278,2c0,0,7-1,5-6s-19.47-28.22-19.47-28.22"/>
  <path class="st2" d="M461.07,369.72s-5.25.14-10.25,4.14-29,36-29,36c0,0-.37.74.32,1.81.91,1.43,3.69,3.47,11.68,5.19,14,3,103,1,103,1h213s21,0,23-5-35-45-35-45c0,0,5-5,6-9s1-60,1-60l2-54v-52s1-14-10-16-67-2-67-2l-66,1h-78l-56-2s-17,2-18,20-1,63-1,63v39l-1,34s0,11,1,19,2,15,5,18,11,5,13,5h130l102-1,37-3"/>
  <path class="st2" d="M422.14,411.67s-2.32,5.19.68,10.19,16,5,16,5l317,3s17,0,17-17"/>
  <line class="st2" x1="543.36" y1="401.23" x2="536.82" y2="417.86"/>
  <line class="st2" x1="651.11" y1="402.38" x2="655.73" y2="417.4"/>
  <polyline class="st2" points="517.82 400.86 519.82 393.86 671.82 393.86 674 402.14"/>
  <circle class="st2" cx="478.82" cy="193.11" r="3.25"/>
  <circle class="st2" cx="490.2" cy="193.11" r="3.25"/>
  <circle class="st2" cx="501.57" cy="193.11" r="3.25"/>
  <line class="st2" x1="473.82" y1="289.86" x2="491.01" y2="265.33"/>
  <line class="st2" x1="497.43" y1="263.98" x2="508.58" y2="275.8"/>
  <line class="st2" x1="518.04" y1="275.47" x2="532.23" y2="259.59"/>
  <line class="st2" x1="537.97" y1="258.58" x2="560.6" y2="293.03"/>
  <line class="st2" x1="566.35" y1="293.03" x2="579.86" y2="271.07"/>
  <line class="st2" x1="586.28" y1="261.28" x2="598.78" y2="247.43"/>
  <line class="st2" x1="607.9" y1="246.41" x2="641.68" y2="271.07"/>
  <line class="st2" x1="649.79" y1="271.41" x2="672.42" y2="238.64"/>
  <line class="st2" x1="677.49" y1="238.98" x2="698.09" y2="264.99"/>
  <line class="st2" x1="707.55" y1="266.34" x2="722.75" y2="259.25"/>
  <path class="st2" d="M1120.82,210.86s2,87,1,98-1,47-1,47c0,0-2,6-9,6h-256s-7,1-9-9-2-143-2-143"/>
  <line class="st2" x1="846.32" y1="198.86" x2="1120.32" y2="199.86"/>
  <path class="st2" d="M844.82,209.86s0-18,7-21,20-1,20-1c0,0,220-4,229-3s17,0,18,4,2,22,2,22"/>
  <circle class="st0" cx="858.82" cy="295.86" r="6"/>
  <circle class="st0" cx="878.82" cy="259.86" r="6"/>
  <circle class="st0" cx="898.82" cy="279.86" r="6"/>
  <circle class="st0" cx="919.82" cy="253.86" r="6"/>
  <circle class="st0" cx="948.82" cy="298.86" r="6"/>
  <circle class="st0" cx="967.82" cy="265.86" r="6"/>
  <circle class="st0" cx="988.17" cy="243" r="6"/>
  <circle class="st0" cx="1030.82" cy="275.86" r="6"/>
  <circle class="st0" cx="1059.82" cy="233.86" r="6"/>
  <circle class="st0" cx="1087.82" cy="269.86" r="6"/>
  <circle class="st0" cx="1112.82" cy="255.86" r="6"/>
  <path class="st1" d="M856.32,371.61l-16.5,27.25s-4,2,5,2,278,2,278,2c0,0,7-1,5-6s-19.47-28.22-19.47-28.22"/>
  <path class="st2" d="M846.07,369.72s-5.25.14-10.25,4.14-29,36-29,36c0,0-.37.74.32,1.81.91,1.43,3.69,3.47,11.68,5.19,14,3,103,1,103,1h213s21,0,23-5-35-45-35-45c0,0,5-5,6-9s1-60,1-60l2-54v-52s1-14-10-16-67-2-67-2l-66,1h-78l-56-2s-17,2-18,20-1,63-1,63v39l-1,34s0,11,1,19,2,15,5,18,11,5,13,5h130l102-1,37-3"/>
  <path class="st2" d="M807.14,411.67s-2.32,5.19.68,10.19,16,5,16,5l317,3s17,0,17-17"/>
  <line class="st2" x1="928.36" y1="401.23" x2="921.82" y2="417.86"/>
  <line class="st2" x1="1036.11" y1="402.38" x2="1040.73" y2="417.4"/>
  <polyline class="st2" points="902.82 400.86 904.82 393.86 1056.82 393.86 1059 402.14"/>
  <circle class="st2" cx="863.82" cy="193.11" r="3.25"/>
  <circle class="st2" cx="875.2" cy="193.11" r="3.25"/>
  <circle class="st2" cx="886.57" cy="193.11" r="3.25"/>
  <line class="st2" x1="858.82" y1="289.86" x2="876.01" y2="265.33"/>
  <line class="st2" x1="882.43" y1="263.98" x2="893.58" y2="275.8"/>
  <line class="st2" x1="903.04" y1="275.47" x2="917.23" y2="259.59"/>
  <line class="st2" x1="922.97" y1="258.58" x2="945.6" y2="293.03"/>
  <line class="st2" x1="951.35" y1="293.03" x2="964.86" y2="271.07"/>
  <line class="st2" x1="971.28" y1="261.28" x2="983.78" y2="247.43"/>
  <line class="st2" x1="992.9" y1="246.41" x2="1026.68" y2="271.07"/>
  <line class="st2" x1="1034.79" y1="271.41" x2="1057.42" y2="238.64"/>
  <line class="st2" x1="1062.49" y1="238.98" x2="1083.09" y2="264.99"/>
  <line class="st2" x1="1092.55" y1="266.34" x2="1107.75" y2="259.25"/>
  <path class="st2" d="M350.82,210.86s2,87,1,98c-1,11-1,47-1,47,0,0-2,6-9,6H85.82s-7,1-9-9-2-143-2-143"/>
  <line class="st2" x1="76.32" y1="198.86" x2="350.32" y2="199.86"/>
  <path class="st2" d="M74.82,209.86s0-18,7-21,20-1,20-1c0,0,220-4,229-3s17,0,18,4,2,22,2,22"/>
  <circle class="st0" cx="88.82" cy="295.86" r="6"/>
  <circle class="st0" cx="108.82" cy="259.86" r="6"/>
  <circle class="st0" cx="128.82" cy="279.86" r="6"/>
  <circle class="st0" cx="149.82" cy="253.86" r="6"/>
  <circle class="st0" cx="178.82" cy="298.86" r="6"/>
  <circle class="st0" cx="197.82" cy="265.86" r="6"/>
  <circle class="st0" cx="218.17" cy="243" r="6"/>
  <circle class="st0" cx="260.82" cy="275.86" r="6"/>
  <circle class="st0" cx="289.82" cy="233.86" r="6"/>
  <circle class="st0" cx="317.82" cy="269.86" r="6"/>
  <circle class="st0" cx="342.82" cy="255.86" r="6"/>
  <path class="st1" d="M86.32,371.61l-16.5,27.25s-4,2,5,2,278,2,278,2c0,0,7-1,5-6s-19.47-28.22-19.47-28.22"/>
  <path class="st2" d="M76.07,369.72s-5.25.14-10.25,4.14-29,36-29,36c0,0-.37.74.32,1.81.91,1.43,3.69,3.47,11.68,5.19,14,3,103,1,103,1h213s21,0,23-5-35-45-35-45c0,0,5-5,6-9s1-60,1-60l2-54v-52s1-14-10-16-67-2-67-2l-66,1h-78l-56-2s-17,2-18,20-1,63-1,63v39l-1,34s0,11,1,19,2,15,5,18,11,5,13,5h130l102-1,37-3"/>
  <path class="st2" d="M37.14,411.67s-2.32,5.19.68,10.19,16,5,16,5l317,3s17,0,17-17"/>
  <line class="st2" x1="158.36" y1="401.23" x2="151.82" y2="417.86"/>
  <line class="st2" x1="266.11" y1="402.38" x2="270.73" y2="417.4"/>
  <polyline class="st2" points="132.82 400.86 134.82 393.86 286.82 393.86 289 402.14"/>
  <circle class="st2" cx="93.82" cy="193.11" r="3.25"/>
  <circle class="st2" cx="105.2" cy="193.11" r="3.25"/>
  <circle class="st2" cx="116.57" cy="193.11" r="3.25"/>
  <line class="st2" x1="88.82" y1="289.86" x2="106.01" y2="265.33"/>
  <line class="st2" x1="112.43" y1="263.98" x2="123.58" y2="275.8"/>
  <line class="st2" x1="133.04" y1="275.47" x2="147.23" y2="259.59"/>
  <line class="st2" x1="152.97" y1="258.58" x2="175.6" y2="293.03"/>
  <line class="st2" x1="181.35" y1="293.03" x2="194.86" y2="271.07"/>
  <line class="st2" x1="201.28" y1="261.28" x2="213.78" y2="247.43"/>
  <line class="st2" x1="222.9" y1="246.41" x2="256.68" y2="271.07"/>
  <line class="st2" x1="264.79" y1="271.41" x2="287.42" y2="238.64"/>
  <line class="st2" x1="292.49" y1="238.98" x2="313.09" y2="264.99"/>
  <line class="st2" x1="322.55" y1="266.34" x2="337.75" y2="259.25"/>
</svg>