<?xml version="1.0" encoding="UTF-8"?>
<svg id="Layer_3" xmlns="http://www.w3.org/2000/svg" version="1.1" viewBox="0 0 1200 630">
  <!-- Generator: Adobe Illustrator 30.0.0, SVG Export Plug-In . SVG Version: 2.1.1 Build 123)  -->
  <defs>
    <style>
      .st0 {
        fill: #99badd;
      }

      .st1 {
        fill: #fff;
      }

      .st2 {
        fill: #366da6;
      }

      .st2, .st3 {
        stroke: #000;
        stroke-miterlimit: 10;
        stroke-width: 3px;
      }

      .st3 {
        fill: none;
      }
    </style>
  </defs>
  <path class="st3" d="M784.81,455.64"/>
  <g>
    <path class="st2" d="M528.23,275.17c-1.49-1.49-3.73-6.71-3.73-6.71l-.75-111.14s0-34.31,2.24-41.77,17.16-5.22,17.16-5.22c0,0,54.45-1.49,57.44-1.49s9.7,5.97,11.93,11.19c2.24,5.22,16.41,4.48,16.41,4.48l71.61-.75s16.41,0,17.16,10.44.46,15.31.46,15.31"/>
    <path class="st2" d="M697.25,270.34c-.73,1.6-2.29,2.64-4.04,2.72l-87.4,3.61s-63.4,3.73-70.86,2.24-5.97-10.44-5.97-10.44l2.98-14.92s15.66-64.15,19.39-81.3,11.93-17.16,11.93-17.16l179.02-6.71s6.71,1.49,5.97,6.71c-.68,4.75-43.32,98.37-51.03,115.26Z"/>
    <path class="st3" d="M642.35,182.68s5.22,5.97,10.44,5.97,11.19-4.48,11.19-6.71"/>
    <path class="st3" d="M625.94,174.48s-1.49-3.73,2.98-5.22,5.97,5.22,5.97,5.22"/>
    <path class="st3" d="M673.68,172.24c0-2.98,1.49-5.22,3.73-5.22s5.22,4.48,5.22,5.22"/>
  </g>
  <path class="st1" d="M402.37,467.68c-.11.15-.26.32-.41.47-3.3,3.46-6.61,5.18-9.98,3.57-1.3-.63-3.1-1.99-4.93-3.51l15.32-.53Z"/>
  <g>
    <path class="st0" d="M412.51,384.57c.08,5.14-2.25,23.93-4.06,37.58l-.73-.46.31-3.66s-.13-8.35-1.94-16.66c-1.8-8.32-3.45-6.62-3.45-6.62,0,0-141.93-1.07-145.27-1.01s-6.57,6.78-8.19,10.15c-.76,1.58-3.64,8.36-6.5,15.1-.18.44-.37.86-.55,1.29-3.01,7.14-5.82,13.87-5.82,13.87l-.67-41.73-.05-3.34s-1.86-11.66,6.52-10.12c8.37,1.54,91.83.2,91.83.2l60.12.71,10.01-.16s8.29-3.47,8.43,4.87Z"/>
    <path class="st1" d="M409.79,423.01l-2.24,5.86c.29-2.01.58-4.28.91-6.73l1.33.86Z"/>
    <path class="st0" d="M407.73,421.7l.73.46c-.33,2.44-.63,4.72-.91,6.73l-.3.79h-.18s.67-7.97.67-7.97Z"/>
    <path class="st1" d="M404.73,419.76l3,1.94-.67,7.97-9.13.28h-.05c-.48-.04-.94-.05-1.34-.04-1.15.02-2.92.05-4.8.23l-32.81.96c.63-2.53,2.49-5.25,2.45-7.3-.05-3.34,6.57-6.78,9.88-8.51s16.69-.27,21.7-.35,11.76,4.82,11.76,4.82Z"/>
    <path class="st0" d="M407.24,429.67l.3-.79c-.03.27-.06.54-.1.79h-.2Z"/>
    <path class="st0" d="M407.24,429.67h.2c-.52,3.95-.91,6.69-1,7.29l.56-6.64.24-.65Z"/>
    <polygon class="st0" points="407.24 429.67 407 430.32 407.06 429.67 407.24 429.67"/>
    <path class="st1" d="M407.06,429.67l-.06.65-.42,1.09s-5.13-1.2-8.66-1.46l9.13-.28Z"/>
    <path class="st1" d="M406.58,431.41l.42-1.09-.56,6.64v.03s-24.8.85-24.8.85c1.33-2.43.15-1.35,1.6-4.38,1.05-2.2,4.98-3.02,8.49-3.32l6.14-.18h.05c3.53.26,8.66,1.46,8.66,1.46Z"/>
    <path class="st1" d="M358.93,431.09l32.81-.96c-3.52.31-7.45,1.12-8.49,3.32-1.45,3.03-.27,1.96-1.6,4.38l-18.89.65c-.95-1.04-1.9-2.07-2.85-2.99-1.31-1.26-1.38-2.8-.97-4.41Z"/>
    <path class="st1" d="M362.75,438.49l18.89-.65c-.15.27-.32.59-.55.96-2.2,3.67-7.7,4.83-11.04,4.88-2.4.04-4.85-2.53-7.3-5.19Z"/>
    <path class="st1" d="M362.75,438.49l-77.46,2.68c2.18-2.49,2.66-4.88,2.74-7.99l70.89-2.09c-.41,1.61-.33,3.14.97,4.41.95.92,1.9,1.96,2.85,2.99Z"/>
    <path class="st1" d="M470.53,358.6c.02,1.15.04,2.22.02,3.21l-40.27,1.2c-5.36.04-10.05.19-10.05.19l5.04-15.56s28.32-3.79,33.38-.53c5.06,3.26,11.79,6.49,11.87,11.5Z"/>
    <line class="st3" x1="408.46" y1="422.15" x2="409.79" y2="423.01"/>
    <g>
      <g>
        <path class="st0" d="M412.51,384.57c.07,4.66-1.84,20.5-3.54,33.58l-.94-.12s-.13-8.35-1.94-16.66c-1.8-8.32-3.45-6.62-3.45-6.62,0,0-141.93-1.07-145.27-1.01s-6.57,6.78-8.19,10.15c-.76,1.58-3.64,8.36-6.5,15.1-.18.44-.37.86-.55,1.29-3.01,7.14-5.82,13.87-5.82,13.87l-.13-8.35-.59-36.72s-1.86-11.66,6.52-10.12c8.37,1.54,91.83.2,91.83.2l60.12.71,10.01-.16s8.29-3.47,8.43,4.87Z"/>
        <path class="st0" d="M408.04,418.03l.94.12c-.18,1.37-.34,2.71-.52,4-.33,2.44-.63,4.72-.91,6.73-.03.27-.06.54-.1.79-.52,3.95-.91,6.69-1,7.3v.05c-.02,1.92-.54,57.91-2.12,61.22-1.62,3.36-6.62,3.45-6.62,3.45,0,0-150.28-.93-156.98-2.5-6.7-1.56-5.06-3.26-5.06-3.26l.55-70.13.13,8.35s2.81-6.72,5.82-13.87c.18-.44.37-.86.55-1.29,2.86-6.74,5.74-13.52,6.5-15.1,1.62-3.36,4.85-10.09,8.19-10.15s145.27,1.01,145.27,1.01c0,0,1.64-1.7,3.45,6.62,1.8,8.32,1.94,16.66,1.94,16.66Z"/>
      </g>
      <g>
        <path class="st3" d="M236.2,425.79l-.59-36.72s-1.86-11.66,6.52-10.12c8.37,1.54,91.83.2,91.83.2l60.12.71,10.01-.16s8.29-3.47,8.43,4.87c.07,4.66-1.84,20.5-3.54,33.58-.18,1.37-.34,2.71-.52,4-.33,2.44-.63,4.72-.91,6.73-.03.27-.06.54-.1.79-.52,3.95-.91,6.69-1,7.3v.05c-.02,1.92-.54,57.91-2.12,61.22-1.62,3.36-6.62,3.45-6.62,3.45,0,0-150.28-.93-156.98-2.5-6.7-1.56-5.06-3.26-5.06-3.26l.55-70.13Z"/>
        <path class="st3" d="M236.2,425.79l.13,8.35s2.81-6.72,5.82-13.87c.18-.44.37-.86.55-1.29,2.86-6.74,5.74-13.52,6.5-15.1,1.62-3.36,4.85-10.09,8.19-10.15s145.27,1.01,145.27,1.01c0,0,1.64-1.7,3.45,6.62,1.8,8.32,1.94,16.66,1.94,16.66"/>
      </g>
    </g>
    <line class="st3" x1="406.44" y1="437.01" x2="406.42" y2="437.09"/>
    <path class="st3" d="M322.19,435.97s3.69,4.08,7.29,4.02,7.71-3.23,7.69-4.78"/>
    <path class="st3" d="M310.74,430.48s-1.08-2.57,2.01-3.66c3.07-1.08,4.18,3.56,4.18,3.56"/>
    <path class="st3" d="M343.78,428.4c-.03-2.07.98-3.64,2.53-3.66s3.66,3.05,3.66,3.56"/>
  </g>
  <g>
    <path class="st0" d="M705.71,386.91c.08,5.14-2.25,23.93-4.06,37.58l-.73-.46.31-3.66s-.13-8.35-1.94-16.66c-1.8-8.32-3.45-6.62-3.45-6.62,0,0-141.93-1.07-145.27-1.01s-6.57,6.78-8.19,10.15c-.76,1.58-3.64,8.36-6.5,15.1-.18.44-.37.86-.55,1.29-3.01,7.14-5.82,13.87-5.82,13.87l-.67-41.73-.05-3.34s-1.86-11.66,6.52-10.12c8.37,1.54,91.83.2,91.83.2l60.12.71,10.01-.16s8.29-3.47,8.43,4.87Z"/>
    <path class="st1" d="M702.99,425.35l-2.24,5.86c.29-2.01.58-4.28.91-6.73l1.33.86Z"/>
    <path class="st0" d="M700.93,424.03l.73.46c-.33,2.44-.63,4.72-.91,6.73l-.3.79h-.18s.67-7.97.67-7.97Z"/>
    <path class="st1" d="M697.93,422.1l3,1.94-.67,7.97-9.13.28h-.05c-.48-.04-.94-.05-1.34-.04-1.15.02-2.92.05-4.8.23l-32.81.96c.63-2.53,2.49-5.25,2.45-7.3-.05-3.34,6.57-6.78,9.88-8.51s16.69-.27,21.7-.35,11.76,4.82,11.76,4.82Z"/>
    <path class="st0" d="M700.44,432.01l.3-.79c-.03.27-.06.54-.1.79h-.2Z"/>
    <path class="st0" d="M700.44,432.01h.2c-.52,3.95-.91,6.69-1,7.29l.56-6.64.24-.65Z"/>
    <polygon class="st0" points="700.44 432.01 700.2 432.66 700.26 432.01 700.44 432.01"/>
    <path class="st1" d="M700.26,432.01l-.06.65-.42,1.09s-5.13-1.2-8.66-1.46l9.13-.28Z"/>
    <path class="st1" d="M699.79,433.75l.42-1.09-.56,6.64v.03s-24.8.85-24.8.85c1.33-2.43.15-1.35,1.6-4.38,1.05-2.2,4.98-3.02,8.49-3.32l6.14-.18h.05c3.53.26,8.66,1.46,8.66,1.46Z"/>
    <path class="st1" d="M652.13,433.43l32.81-.96c-3.52.31-7.45,1.12-8.49,3.32-1.45,3.03-.27,1.96-1.6,4.38l-18.89.65c-.95-1.04-1.9-2.07-2.85-2.99-1.31-1.26-1.38-2.8-.97-4.41Z"/>
    <path class="st1" d="M655.96,440.83l18.89-.65c-.15.27-.32.59-.55.96-2.2,3.67-7.7,4.83-11.04,4.88-2.4.04-4.85-2.53-7.3-5.19Z"/>
    <path class="st1" d="M655.96,440.83l-77.46,2.68c2.18-2.49,2.66-4.88,2.74-7.99l70.89-2.09c-.41,1.61-.33,3.14.97,4.41.95.92,1.9,1.96,2.85,2.99Z"/>
    <path class="st1" d="M763.73,360.94c.02,1.15.04,2.22.02,3.21l-40.27,1.2c-5.36.04-10.05.19-10.05.19l5.04-15.56s28.32-3.79,33.38-.53c5.06,3.26,11.79,6.49,11.87,11.5Z"/>
    <line class="st3" x1="701.66" y1="424.49" x2="702.99" y2="425.35"/>
    <g>
      <g>
        <path class="st0" d="M705.71,386.91c.07,4.66-1.84,20.5-3.54,33.58l-.94-.12s-.13-8.35-1.94-16.66-3.45-6.62-3.45-6.62c0,0-141.93-1.07-145.27-1.01-3.34.05-6.57,6.78-8.19,10.15-.76,1.58-3.64,8.36-6.5,15.1-.18.44-.37.86-.55,1.29-3.01,7.14-5.82,13.87-5.82,13.87l-.13-8.35-.59-36.72s-1.86-11.66,6.52-10.12,91.83.2,91.83.2l60.12.71,10.01-.16s8.29-3.47,8.43,4.87Z"/>
        <path class="st0" d="M701.23,420.37l.94.12c-.18,1.37-.34,2.71-.52,4-.33,2.44-.63,4.72-.91,6.73-.03.27-.06.54-.1.79-.52,3.95-.91,6.69-1,7.3v.05c-.02,1.92-.54,57.91-2.12,61.22-1.62,3.36-6.62,3.45-6.62,3.45,0,0-150.28-.93-156.98-2.5s-5.06-3.26-5.06-3.26l.55-70.13.13,8.35s2.81-6.72,5.82-13.87c.18-.44.37-.86.55-1.29,2.86-6.74,5.74-13.52,6.5-15.1,1.62-3.36,4.85-10.09,8.19-10.15,3.34-.05,145.27,1.01,145.27,1.01,0,0,1.64-1.7,3.45,6.62s1.94,16.66,1.94,16.66Z"/>
      </g>
      <g>
        <path class="st3" d="M529.39,428.13l-.59-36.72s-1.86-11.66,6.52-10.12,91.83.2,91.83.2l60.12.71,10.01-.16s8.29-3.47,8.43,4.87c.07,4.66-1.84,20.5-3.54,33.58-.18,1.37-.34,2.71-.52,4-.33,2.44-.63,4.72-.91,6.73-.03.27-.06.54-.1.79-.52,3.95-.91,6.69-1,7.3v.05c-.02,1.92-.54,57.91-2.12,61.22-1.62,3.36-6.62,3.45-6.62,3.45,0,0-150.28-.93-156.98-2.5s-5.06-3.26-5.06-3.26l.55-70.13Z"/>
        <path class="st3" d="M529.39,428.13l.13,8.35s2.81-6.72,5.82-13.87c.18-.44.37-.86.55-1.29,2.86-6.74,5.74-13.52,6.5-15.1,1.62-3.36,4.85-10.09,8.19-10.15,3.34-.05,145.27,1.01,145.27,1.01,0,0,1.64-1.7,3.45,6.62s1.94,16.66,1.94,16.66"/>
      </g>
    </g>
    <line class="st3" x1="699.64" y1="439.35" x2="699.63" y2="439.43"/>
    <path class="st3" d="M615.39,438.31s3.69,4.08,7.29,4.02,7.71-3.23,7.69-4.78"/>
    <path class="st3" d="M603.94,432.82s-1.08-2.57,2.01-3.66c3.07-1.08,4.18,3.56,4.18,3.56"/>
    <path class="st3" d="M636.98,430.73c-.03-2.07.98-3.64,2.53-3.66s3.66,3.05,3.66,3.56"/>
  </g>
  <g>
    <path class="st0" d="M1000.98,385.52c.08,5.14-2.25,23.93-4.06,37.58l-.73-.46.31-3.66s-.13-8.35-1.94-16.66c-1.8-8.32-3.45-6.62-3.45-6.62,0,0-141.93-1.07-145.27-1.01s-6.57,6.78-8.19,10.15c-.76,1.58-3.64,8.36-6.5,15.1-.18.44-.37.86-.55,1.29-3.01,7.14-5.82,13.87-5.82,13.87l-.67-41.73-.05-3.34s-1.86-11.66,6.52-10.12c8.37,1.54,91.83.2,91.83.2l60.12.71,10.01-.16s8.29-3.47,8.43,4.87Z"/>
    <path class="st1" d="M998.26,423.97l-2.24,5.86c.29-2.01.58-4.28.91-6.73l1.33.86Z"/>
    <path class="st0" d="M996.2,422.65l.73.46c-.33,2.44-.63,4.72-.91,6.73l-.3.79h-.18s.67-7.97.67-7.97Z"/>
    <path class="st1" d="M993.2,420.71l3,1.94-.67,7.97-9.13.28h-.05c-.48-.04-.94-.05-1.34-.04-1.15.02-2.92.05-4.8.23l-32.81.96c.63-2.53,2.49-5.25,2.45-7.3-.05-3.34,6.57-6.78,9.88-8.51,3.31-1.72,16.69-.27,21.7-.35s11.76,4.82,11.76,4.82Z"/>
    <path class="st0" d="M995.71,430.62l.3-.79c-.03.27-.06.54-.1.79h-.2Z"/>
    <path class="st0" d="M995.71,430.62h.2c-.52,3.95-.91,6.69-1,7.29l.56-6.64.24-.65Z"/>
    <polygon class="st0" points="995.71 430.62 995.47 431.28 995.53 430.62 995.71 430.62"/>
    <path class="st1" d="M995.53,430.62l-.06.65-.42,1.09s-5.13-1.2-8.66-1.46l9.13-.28Z"/>
    <path class="st1" d="M995.05,432.37l.42-1.09-.56,6.64v.03s-24.8.85-24.8.85c1.33-2.43.15-1.35,1.6-4.38,1.05-2.2,4.98-3.02,8.49-3.32l6.14-.18h.05c3.53.26,8.66,1.46,8.66,1.46Z"/>
    <path class="st1" d="M947.4,432.04l32.81-.96c-3.52.31-7.45,1.12-8.49,3.32-1.45,3.03-.27,1.96-1.6,4.38l-18.89.65c-.95-1.04-1.9-2.07-2.85-2.99-1.31-1.26-1.38-2.8-.97-4.41Z"/>
    <path class="st1" d="M951.22,439.45l18.89-.65c-.15.27-.32.59-.55.96-2.2,3.67-7.7,4.83-11.04,4.88-2.4.04-4.85-2.53-7.3-5.19Z"/>
    <path class="st1" d="M951.22,439.45l-77.46,2.68c2.18-2.49,2.66-4.88,2.74-7.99l70.89-2.09c-.41,1.61-.33,3.14.97,4.41.95.92,1.9,1.96,2.85,2.99Z"/>
    <path class="st1" d="M1059,359.55c.02,1.15.04,2.22.02,3.21l-40.27,1.2c-5.36.04-10.05.19-10.05.19l5.04-15.56s28.32-3.79,33.38-.53c5.06,3.26,11.79,6.49,11.87,11.5Z"/>
    <line class="st3" x1="996.92" y1="423.1" x2="998.26" y2="423.97"/>
    <g>
      <g>
        <path class="st0" d="M1000.99,385.52c.07,4.66-1.84,20.5-3.54,33.58l-.94-.12s-.13-8.35-1.94-16.66c-1.8-8.32-3.45-6.62-3.45-6.62,0,0-141.93-1.07-145.27-1.01-3.34.05-6.57,6.78-8.19,10.15-.76,1.58-3.64,8.36-6.5,15.1-.18.44-.37.86-.55,1.29-3.01,7.14-5.82,13.87-5.82,13.87l-.13-8.35-.59-36.72s-1.86-11.66,6.52-10.12c8.37,1.54,91.83.2,91.83.2l60.12.71,10.01-.16s8.29-3.47,8.43,4.87Z"/>
        <path class="st0" d="M996.52,418.98l.94.12c-.18,1.37-.36,2.71-.52,4-.33,2.44-.63,4.72-.91,6.73-.03.27-.06.54-.1.79-.52,3.95-.91,6.69-1,7.3v.05c-.02,1.92-.54,57.91-2.12,61.22-1.62,3.36-6.62,3.45-6.62,3.45,0,0-150.28-.93-156.98-2.5s-5.06-3.26-5.06-3.26l.55-70.13.13,8.35s2.81-6.72,5.82-13.87c.18-.44.37-.86.55-1.29,2.86-6.74,5.74-13.52,6.5-15.1,1.62-3.36,4.85-10.09,8.19-10.15,3.34-.05,145.27,1.01,145.27,1.01,0,0,1.64-1.7,3.45,6.62,1.8,8.32,1.94,16.66,1.94,16.66Z"/>
      </g>
      <g>
        <path class="st3" d="M824.67,426.74l-.59-36.72s-1.86-11.66,6.52-10.12c8.37,1.54,91.83.2,91.83.2l60.12.71,10.01-.16s8.29-3.47,8.43,4.87c.07,4.66-1.84,20.5-3.54,33.58-.18,1.37-.36,2.71-.52,4-.33,2.44-.63,4.72-.91,6.73-.03.27-.06.54-.1.79-.52,3.95-.91,6.69-1,7.3v.05c-.02,1.92-.54,57.91-2.12,61.22-1.62,3.36-6.62,3.45-6.62,3.45,0,0-150.28-.93-156.98-2.5s-5.06-3.26-5.06-3.26l.55-70.13Z"/>
        <path class="st3" d="M824.67,426.74l.13,8.35s2.81-6.72,5.82-13.87c.18-.44.37-.86.55-1.29,2.86-6.74,5.74-13.52,6.5-15.1,1.62-3.36,4.85-10.09,8.19-10.15,3.34-.05,145.27,1.01,145.27,1.01,0,0,1.64-1.7,3.45,6.62,1.8,8.32,1.94,16.66,1.94,16.66"/>
      </g>
    </g>
    <line class="st3" x1="994.91" y1="437.96" x2="994.89" y2="438.05"/>
    <path class="st3" d="M910.66,436.92s3.69,4.08,7.29,4.02,7.71-3.23,7.69-4.78"/>
    <path class="st3" d="M899.2,431.43s-1.08-2.57,2.01-3.66c3.07-1.08,4.18,3.56,4.18,3.56"/>
    <path class="st3" d="M932.25,429.35c-.03-2.07.98-3.64,2.53-3.66s3.66,3.05,3.66,3.56"/>
  </g>
  <polyline class="st3" points="328.98 378.94 620.5 275.5 627.16 381.49"/>
  <line class="st2" x1="620.5" y1="275.5" x2="922.42" y2="380.1"/>
</svg>