<?xml version="1.0" encoding="UTF-8"?>
<svg id="Layer_1" xmlns="http://www.w3.org/2000/svg" version="1.1" viewBox="0 0 1920 1080">
  <!-- Generator: Adobe Illustrator 30.1.0, SVG Export Plug-In . SVG Version: 2.1.1 Build 136)  -->
  <defs>
    <style>
      .st0 {
        stroke-dasharray: 12.49 12.49;
      }

      .st0, .st1, .st2, .st3, .st4, .st5 {
        stroke: #000;
        stroke-miterlimit: 10;
      }

      .st0, .st2, .st3, .st5 {
        fill: none;
      }

      .st0, .st5 {
        stroke-width: 4px;
      }

      .st1, .st2, .st3, .st4 {
        stroke-width: 5px;
      }

      .st1, .st4 {
        fill: #fff;
      }

      .st6 {
        font-family: ArialMT, Arial;
        font-size: 36px;
      }

      .st7 {
        font-family: Arial-BoldMT, Arial;
        font-size: 52px;
        font-weight: 700;
      }

      .st2 {
        stroke-dasharray: 11.81 11.81;
      }

      .st4 {
        fill-rule: evenodd;
      }
    </style>
  </defs>
  <line class="st3" x1="423.36" y1="703.16" x2="1512.52" y2="703.16"/>
  <line class="st3" x1="424.88" y1="769.88" x2="1515" y2="769.88"/>
  <text class="st7" transform="translate(506.01 655.62)"><tspan x="0" y="0">A</tspan></text>
  <text class="st7" transform="translate(689.51 655.02)"><tspan x="0" y="0">B</tspan></text>
  <text class="st7" transform="translate(599.63 653.75)"><tspan x="0" y="0">C</tspan></text>
  <text class="st7" transform="translate(473.68 541.68)"><tspan x="0" y="0">HLA Class I</tspan></text>
  <text class="st7" transform="translate(1007.53 538.9)"><tspan x="0" y="0">HLA Class II</tspan></text>
  <text class="st6" transform="translate(334.21 296.39)"><tspan x="0" y="0">Chr 6</tspan></text>
  <rect class="st1" x="492.36" y="682.97" width="60.32" height="111.11"/>
  <rect class="st1" x="588.39" y="681.38" width="60.32" height="111.11"/>
  <rect class="st1" x="682.04" y="682.97" width="60.32" height="111.11"/>
  <g>
    <line class="st3" x1="485.58" y1="585.77" x2="751.83" y2="585.77"/>
    <rect x="483.08" y="569.52" width="5" height="32.5"/>
    <rect x="749.33" y="569.52" width="5" height="32.5"/>
  </g>
  <text class="st7" transform="translate(910.86 653.65)"><tspan x="0" y="0">DR</tspan></text>
  <text class="st7" transform="translate(1145.93 652.4)"><tspan x="0" y="0">DQ</tspan></text>
  <text class="st7" transform="translate(1334.51 655.34)"><tspan x="0" y="0">DP</tspan></text>
  <g>
    <line class="st3" x1="831.83" y1="585.58" x2="1452.07" y2="585.57"/>
    <rect x="829.33" y="569.33" width="5" height="32.5"/>
    <rect x="1449.57" y="569.32" width="5" height="32.5"/>
  </g>
  <rect class="st1" x="840.34" y="682.5" width="60.32" height="111.11"/>
  <rect class="st1" x="988.38" y="684.33" width="60.32" height="111.11"/>
  <rect class="st1" x="1119.44" y="681.71" width="60.32" height="111.11"/>
  <rect class="st1" x="1198.48" y="679.91" width="60.32" height="111.11"/>
  <rect class="st1" x="1299.69" y="683.12" width="60.32" height="111.11"/>
  <rect class="st1" x="1378.73" y="681.32" width="60.32" height="111.11"/>
  <text class="st6" transform="translate(1307.41 837.48)"><tspan x="0" y="0">A1</tspan></text>
  <text class="st6" transform="translate(1127.23 837.08)"><tspan x="0" y="0">A1</tspan></text>
  <text class="st6" transform="translate(846.92 833.26)"><tspan x="0" y="0">A1</tspan></text>
  <rect class="st1" x="913.93" y="683.63" width="60.32" height="111.11"/>
  <text class="st6" transform="translate(1209.26 835.71)"><tspan x="0" y="0">B1</tspan></text>
  <text class="st6" transform="translate(1387.68 836.07)"><tspan x="0" y="0">B1</tspan></text>
  <text class="st6" transform="translate(996.61 837.96)"><tspan x="0" y="0">B1</tspan></text>
  <text class="st6" transform="translate(921.55 834.67)"><tspan x="0" y="0">B3</tspan><tspan x="0" y="43.2">B4</tspan><tspan x="0" y="86.4">B5</tspan></text>
  <text class="st6" transform="translate(422.68 746.69)"><tspan x="0" y="0">Tel</tspan></text>
  <text class="st6" transform="translate(1454.64 747.11)"><tspan x="0" y="0">Cen</tspan></text>
  <polyline class="st3" points="846.19 250.21 478.66 250.21 473.04 250.21 472.23 250.21"/>
  <polyline class="st3" points="849.61 316.93 842.77 316.93 477.71 316.93 473.99 316.93 473.59 316.93"/>
  <path class="st4" d="M478.66,250.21c-.93-.08-1.86-.12-2.81-.12s-1.88.04-2.81.12c-17.16,1.43-30.63,15.81-30.63,33.33s13.97,32.42,31.58,33.39c.62.03,1.24.05,1.86.05s1.24-.02,1.86-.05"/>
  <path class="st4" d="M842.77,316.93c1.12.11,2.27.17,3.42.17s2.29-.06,3.42-.17c16.86-1.71,30.02-15.95,30.02-33.27,0-18.47-14.97-33.45-33.44-33.45"/>
  <polyline class="st3" points="1448.52 250.72 922.93 250.72 914.9 250.72 913.74 250.72"/>
  <polyline class="st3" points="1444.54 317.44 1434.91 317.44 920.9 317.44 915.66 317.44 915.1 317.44"/>
  <path class="st4" d="M920.17,250.72c-.93-.08-1.86-.12-2.81-.12s-1.88.04-2.81.12c-17.16,1.43-30.63,15.81-30.63,33.33s13.97,32.42,31.58,33.39c.62.03,1.24.05,1.86.05s1.24-.02,1.86-.05"/>
  <path class="st4" d="M1443.28,317.44c1.12.11,2.27.17,3.42.17s2.29-.06,3.42-.17c16.86-1.71,30.02-15.95,30.02-33.27,0-18.47-14.97-33.45-33.44-33.45"/>
  <text class="st6" transform="translate(608.07 415.09)"><tspan x="0" y="0">6p21.1-21.3</tspan></text>
  <rect x="574.9" y="251.42" width="55.06" height="65.26"/>
  <text class="st6" transform="translate(687.85 237.03)"><tspan x="0" y="0">Short arm</tspan></text>
  <text class="st6" transform="translate(1288.22 237.4)"><tspan x="0" y="0">Long arm</tspan></text>
  <g>
    <line class="st5" x1="574.9" y1="316.68" x2="575.4" y2="322.66"/>
    <line class="st0" x1="576.42" y1="335.1" x2="588.2" y2="478.23"/>
    <line class="st5" x1="588.71" y1="484.45" x2="589.21" y2="490.43"/>
  </g>
  <g>
    <line class="st3" x1="629.96" y1="316.68" x2="635.67" y2="318.53"/>
    <line class="st2" x1="646.91" y1="322.17" x2="1135.84" y2="480.52"/>
    <line class="st3" x1="1141.46" y1="482.34" x2="1147.16" y2="484.19"/>
  </g>
</svg>