<?xml version="1.0" encoding="UTF-8" standalone="no"?>
<svg
   id="Layer_1"
   version="1.1"
   viewBox="0 0 1182.1996 710.68842"
   sodipodi:docname="fig-chromosome-6-hla.svg"
   width="1182.1996"
   height="710.68842"
   inkscape:version="1.4 (e7c3feb1, 2024-10-09)"
   xmlns:inkscape="http://www.inkscape.org/namespaces/inkscape"
   xmlns:sodipodi="http://sodipodi.sourceforge.net/DTD/sodipodi-0.dtd"
   xmlns="http://www.w3.org/2000/svg"
   xmlns:svg="http://www.w3.org/2000/svg">
  <sodipodi:namedview
     id="namedview41"
     pagecolor="#ffffff"
     bordercolor="#000000"
     borderopacity="0.25"
     inkscape:showpageshadow="2"
     inkscape:pageopacity="0.0"
     inkscape:pagecheckerboard="0"
     inkscape:deskcolor="#d1d1d1"
     inkscape:zoom="0.43451872"
     inkscape:cx="619.07574"
     inkscape:cy="411.95003"
     inkscape:window-width="1512"
     inkscape:window-height="945"
     inkscape:window-x="0"
     inkscape:window-y="37"
     inkscape:window-maximized="0"
     inkscape:current-layer="Layer_1" />
  <!-- Generator: Adobe Illustrator 30.1.0, SVG Export Plug-In . SVG Version: 2.1.1 Build 136)  -->
  <defs
     id="defs1">
    <style
       id="style1">
      .st0 {
        stroke-dasharray: 12.49 12.49;
      }

      .st0, .st1, .st2, .st3, .st4, .st5 {
        stroke: #000;
        stroke-miterlimit: 10;
      }

      .st0, .st2, .st3, .st5 {
        fill: none;
      }

      .st0, .st5 {
        stroke-width: 4px;
      }

      .st1, .st2, .st3, .st4 {
        stroke-width: 5px;
      }

      .st1, .st4 {
        fill: #fff;
      }

      .st6 {
        font-family: ArialMT, Arial;
        font-size: 36px;
      }

      .st7 {
        font-family: Arial-BoldMT, Arial;
        font-size: 52px;
        font-weight: 700;
      }

      .st2 {
        stroke-dasharray: 11.81 11.81;
      }

      .st4 {
        fill-rule: evenodd;
      }
    </style>
  </defs>
  <line
     class="st3"
     x1="87.357018"
     y1="492.33896"
     x2="1176.5171"
     y2="492.33896"
     id="line1" />
  <line
     class="st3"
     x1="88.877037"
     y1="559.05896"
     x2="1178.9971"
     y2="559.05896"
     id="line2" />
  <text
     class="st7"
     id="text2"
     x="170.00703"
     y="444.79898"><tspan
       x="170.00703"
       y="444.79898"
       id="tspan2">A</tspan></text>
  <text
     class="st7"
     id="text3"
     x="353.50702"
     y="444.19897"><tspan
       x="353.50702"
       y="444.19897"
       id="tspan3">B</tspan></text>
  <text
     class="st7"
     id="text4"
     x="263.62704"
     y="442.92899"><tspan
       x="263.62704"
       y="442.92899"
       id="tspan4">C</tspan></text>
  <text
     class="st7"
     id="text5"
     x="137.67703"
     y="330.85898"><tspan
       x="137.67703"
       y="330.85898"
       id="tspan5">HLA Class I</tspan></text>
  <text
     class="st7"
     id="text6"
     x="671.52704"
     y="328.07898"><tspan
       x="671.52704"
       y="328.07898"
       id="tspan6">HLA Class II</tspan></text>
  <text
     class="st6"
     id="text7"
     x="-1.7929688"
     y="85.568985"><tspan
       x="-1.7929688"
       y="85.568985"
       id="tspan7">Chr 6</tspan></text>
  <rect
     class="st1"
     x="156.35701"
     y="472.14896"
     width="60.32"
     height="111.11"
     id="rect7" />
  <rect
     class="st1"
     x="252.38704"
     y="470.55899"
     width="60.32"
     height="111.11"
     id="rect8" />
  <rect
     class="st1"
     x="346.03702"
     y="472.14896"
     width="60.32"
     height="111.11"
     id="rect9" />
  <g
     id="g11"
     transform="translate(-336.00297,-210.82102)">
    <line
       class="st3"
       x1="485.57999"
       y1="585.77002"
       x2="751.83002"
       y2="585.77002"
       id="line9" />
    <rect
       x="483.07999"
       y="569.52002"
       width="5"
       height="32.5"
       id="rect10" />
    <rect
       x="749.33002"
       y="569.52002"
       width="5"
       height="32.5"
       id="rect11" />
  </g>
  <text
     class="st7"
     id="text11"
     x="574.85706"
     y="442.82898"><tspan
       x="574.85706"
       y="442.82898"
       id="tspan11">DR</tspan></text>
  <text
     class="st7"
     id="text12"
     x="809.927"
     y="441.57898"><tspan
       x="809.927"
       y="441.57898"
       id="tspan12">DQ</tspan></text>
  <text
     class="st7"
     id="text13"
     x="998.50702"
     y="444.51898"><tspan
       x="998.50702"
       y="444.51898"
       id="tspan13">DP</tspan></text>
  <g
     id="g14"
     transform="translate(-336.00297,-210.82102)">
    <line
       class="st3"
       x1="831.83002"
       y1="585.58002"
       x2="1452.0699"
       y2="585.57001"
       id="line13" />
    <rect
       x="829.33002"
       y="569.33002"
       width="5"
       height="32.5"
       id="rect13" />
    <rect
       x="1449.5699"
       y="569.32001"
       width="5"
       height="32.5"
       id="rect14" />
  </g>
  <rect
     class="st1"
     x="504.33707"
     y="471.67899"
     width="60.32"
     height="111.11"
     id="rect15" />
  <rect
     class="st1"
     x="652.37701"
     y="473.509"
     width="60.32"
     height="111.11"
     id="rect16" />
  <rect
     class="st1"
     x="783.43695"
     y="470.88901"
     width="60.32"
     height="111.11"
     id="rect17" />
  <rect
     class="st1"
     x="862.47699"
     y="469.08896"
     width="60.32"
     height="111.11"
     id="rect18" />
  <rect
     class="st1"
     x="963.68695"
     y="472.29898"
     width="60.32"
     height="111.11"
     id="rect19" />
  <rect
     class="st1"
     x="1042.7271"
     y="470.49899"
     width="60.32"
     height="111.11"
     id="rect20" />
  <text
     class="st6"
     id="text20"
     x="971.40704"
     y="626.659"><tspan
       x="971.40704"
       y="626.659"
       id="tspan20">A1</tspan></text>
  <text
     class="st6"
     id="text21"
     x="791.22705"
     y="626.25897"><tspan
       x="791.22705"
       y="626.25897"
       id="tspan21">A1</tspan></text>
  <text
     class="st6"
     id="text22"
     x="510.91702"
     y="622.43896"><tspan
       x="510.91702"
       y="622.43896"
       id="tspan22">A1</tspan></text>
  <rect
     class="st1"
     x="577.927"
     y="472.80899"
     width="60.32"
     height="111.11"
     id="rect22" />
  <text
     class="st6"
     id="text23"
     x="873.25702"
     y="624.88898"><tspan
       x="873.25702"
       y="624.88898"
       id="tspan23">B1</tspan></text>
  <text
     class="st6"
     id="text24"
     x="1051.677"
     y="625.24896"><tspan
       x="1051.677"
       y="625.24896"
       id="tspan24">B1</tspan></text>
  <text
     class="st6"
     id="text25"
     x="660.60706"
     y="627.13898"><tspan
       x="660.60706"
       y="627.13898"
       id="tspan25">B1</tspan></text>
  <text
     class="st6"
     id="text28"
     x="585.54706"
     y="623.849"><tspan
       x="585.54706"
       y="623.849"
       id="tspan26">B3</tspan><tspan
       x="585.54706"
       y="667.04901"
       id="tspan27">B4</tspan><tspan
       x="585.54706"
       y="710.24896"
       id="tspan28">B5</tspan></text>
  <text
     class="st6"
     id="text29"
     x="86.677032"
     y="535.86896"><tspan
       x="86.677032"
       y="535.86896"
       id="tspan29">Tel</tspan></text>
  <text
     class="st6"
     id="text30"
     x="1118.6371"
     y="536.289"><tspan
       x="1118.6371"
       y="536.289"
       id="tspan30">Cen</tspan></text>
  <polyline
     class="st3"
     points="846.19 250.21 478.66 250.21 473.04 250.21 472.23 250.21"
     id="polyline30"
     transform="translate(-336.00297,-210.82102)" />
  <polyline
     class="st3"
     points="849.61 316.93 842.77 316.93 477.71 316.93 473.99 316.93 473.59 316.93"
     id="polyline31"
     transform="translate(-336.00297,-210.82102)" />
  <path
     class="st4"
     d="m 142.65703,39.388984 c -0.93,-0.08 -1.86,-0.12 -2.81,-0.12 -0.95,0 -1.88,0.04 -2.81,0.12 -17.16,1.43 -30.63,15.81 -30.63,33.33 0,17.52 13.97,32.419996 31.58,33.389996 0.62,0.03 1.24,0.05 1.86,0.05 0.62,0 1.24,-0.02 1.86,-0.05"
     id="path31" />
  <path
     class="st4"
     d="m 506.76703,106.10898 c 1.12,0.11 2.27,0.17 3.42,0.17 1.15,0 2.29,-0.06 3.42,-0.17 16.86,-1.71 30.02,-15.949996 30.02,-33.269996 0,-18.47 -14.97,-33.45 -33.44,-33.45"
     id="path32" />
  <polyline
     class="st3"
     points="1448.52 250.72 922.93 250.72 914.9 250.72 913.74 250.72"
     id="polyline32"
     transform="translate(-336.00297,-210.82102)" />
  <polyline
     class="st3"
     points="1444.54 317.44 1434.91 317.44 920.9 317.44 915.66 317.44 915.1 317.44"
     id="polyline33"
     transform="translate(-336.00297,-210.82102)" />
  <path
     class="st4"
     d="m 584.16703,39.898984 c -0.93,-0.08 -1.86,-0.12 -2.81,-0.12 -0.95,0 -1.88,0.04 -2.81,0.12 -17.16,1.43 -30.63,15.81 -30.63,33.33 0,17.52 13.97,32.419996 31.58,33.389996 0.62,0.03 1.24,0.05 1.86,0.05 0.62,0 1.24,-0.02 1.86,-0.05"
     id="path33" />
  <path
     class="st4"
     d="m 1107.277,106.61898 c 1.12,0.11 2.27,0.17 3.42,0.17 1.15,0 2.29,-0.06 3.42,-0.17 16.86,-1.71 30.02,-15.949996 30.02,-33.269996 0,-18.47 -14.97,-33.45 -33.44,-33.45"
     id="path34" />
  <text
     class="st6"
     id="text34"
     x="272.06702"
     y="204.26898"><tspan
       x="272.06702"
       y="204.26898"
       id="tspan34">6p21.1-21.3</tspan></text>
  <rect
     x="238.89705"
     y="40.598984"
     width="55.060001"
     height="65.260002"
     id="rect34" />
  <text
     class="st6"
     id="text35"
     x="351.84705"
     y="26.208984"><tspan
       x="351.84705"
       y="26.208984"
       id="tspan35">Short arm</tspan></text>
  <text
     class="st6"
     id="text36"
     x="952.21704"
     y="26.578985"><tspan
       x="952.21704"
       y="26.578985"
       id="tspan36">Long arm</tspan></text>
  <g
     id="g38"
     transform="translate(-336.00297,-210.82102)">
    <line
       class="st5"
       x1="574.90002"
       y1="316.67999"
       x2="575.40002"
       y2="322.66"
       id="line36" />
    <line
       class="st0"
       x1="576.41998"
       y1="335.10001"
       x2="588.20001"
       y2="478.23001"
       id="line37" />
    <line
       class="st5"
       x1="588.71002"
       y1="484.45001"
       x2="589.21002"
       y2="490.42999"
       id="line38" />
  </g>
  <g
     id="g41"
     transform="translate(-336.00297,-210.82102)">
    <line
       class="st3"
       x1="629.96002"
       y1="316.67999"
       x2="635.66998"
       y2="318.53"
       id="line39" />
    <line
       class="st2"
       x1="646.90997"
       y1="322.17001"
       x2="1135.84"
       y2="480.51999"
       id="line40" />
    <line
       class="st3"
       x1="1141.46"
       y1="482.34"
       x2="1147.16"
       y2="484.19"
       id="line41" />
  </g>
</svg>
