<?xml version="1.0" encoding="UTF-8" standalone="no"?>
<svg
   id="Layer_1"
   version="1.1"
   viewBox="0 0 1367.0316 706.89093"
   sodipodi:docname="fig-anucleate-erythrocyte.svg"
   inkscape:version="1.4 (e7c3feb1, 2024-10-09)"
   width="1367.0316"
   height="706.89093"
   xmlns:inkscape="http://www.inkscape.org/namespaces/inkscape"
   xmlns:sodipodi="http://sodipodi.sourceforge.net/DTD/sodipodi-0.dtd"
   xmlns="http://www.w3.org/2000/svg"
   xmlns:svg="http://www.w3.org/2000/svg">
  <sodipodi:namedview
     id="namedview26"
     pagecolor="#ffffff"
     bordercolor="#000000"
     borderopacity="0.25"
     inkscape:showpageshadow="2"
     inkscape:pageopacity="0.0"
     inkscape:pagecheckerboard="false"
     inkscape:deskcolor="#d1d1d1"
     inkscape:zoom="0.35880597"
     inkscape:cx="627.07986"
     inkscape:cy="312.14642"
     inkscape:window-width="1512"
     inkscape:window-height="945"
     inkscape:window-x="0"
     inkscape:window-y="37"
     inkscape:window-maximized="0"
     inkscape:current-layer="Layer_1" />
  <!-- Generator: Adobe Illustrator 30.1.0, SVG Export Plug-In . SVG Version: 2.1.1 Build 136)  -->
  <defs
     id="defs1">
    <style
       id="style1">
      .st0, .st1, .st2 {
        font-size: 36px;
      }

      .st0, .st3 {
        font-family: Arial-BoldMT, Arial;
        font-weight: 700;
      }

      .st4, .st5, .st6, .st7 {
        stroke: #000;
        stroke-miterlimit: 10;
      }

      .st4, .st6 {
        stroke-width: 2px;
      }

      .st5 {
        fill: #fff;
        stroke-width: 3px;
      }

      .st1, .st8 {
        font-family: ArialMT, Arial;
      }

      .st6, .st7 {
        fill: none;
      }

      .st7 {
        stroke-width: 5px;
      }
    </style>
  </defs>
  <path
     class="st5"
     d="m 651.92719,303.86908 c 0,0 -91.44,-22.86 -109.22,101.6 -17.78,124.46 152.4,114.3 152.4,114.3 0,0 111.76,0 114.3,-101.6 2.54,-101.6 -157.48,-114.3 -157.48,-114.3 z"
     id="path1"
     style="fill:#ff0000;fill-opacity:0.55;stroke:none" />
  <text
     class="st1"
     id="text2"
     x="605.1972"
     y="583.23907"><tspan
       x="605.1972"
       y="583.23907"
       id="tspan1">Reticulocyte</tspan><tspan
       x="605.1972"
       y="626.43909"
       id="tspan2">Erythrocyte</tspan></text>
  <text
     class="st2"
     id="text14"
     x="871.04718"
     y="244.85909"><tspan
       class="st3"
       id="tspan4"><tspan
         x="871.04718"
         y="244.85909"
         id="tspan3">No nucleus or ER</tspan></tspan><tspan
       class="st8"
       id="tspan6"><tspan
         x="871.04718"
         y="288.05908"
         id="tspan5">No transcription, no translation.</tspan></tspan><tspan
       class="st8"
       id="tspan8"><tspan
         x="871.04718"
         y="331.25909"
         id="tspan7">No HLA class I, no HLA-E</tspan></tspan><tspan
       class="st8"
       id="tspan10"><tspan
         x="871.04718"
         y="374.45908"
         id="tspan9">No MICA, MICB, ULBP</tspan></tspan><tspan
       class="st8"
       id="tspan12"><tspan
         x="871.04718"
         y="460.85907"
         id="tspan11">Increased hemoglobin capacity</tspan></tspan><tspan
       class="st8"
       id="tspan14"><tspan
         x="871.04718"
         y="504.05908"
         id="tspan13">Increased flexibility</tspan></tspan></text>
  <text
     class="st1"
     id="text17"
     x="100.37719"
     y="557.89911"><tspan
       x="100.37719"
       y="557.89911"
       id="tspan15">Hematopoeitic stem cell</tspan><tspan
       x="100.37719"
       y="601.09906"
       id="tspan16">Proerythroblast</tspan><tspan
       x="100.37719"
       y="644.29907"
       id="tspan17">Erythroblast</tspan></text>
  <text
     class="st0"
     id="text18"
     x="123.76719"
     y="706.46906"><tspan
       x="123.76719"
       y="706.46906"
       id="tspan18">Bone Marrow</tspan></text>
  <text
     class="st0"
     id="text19"
     x="644.21716"
     y="703.06909"><tspan
       x="644.21716"
       y="703.06909"
       id="tspan19">Blood</tspan></text>
  <path
     class="st5"
     d="m 213.77719,158.33908 c 0,0 -115.760002,-28.94 -138.270002,128.63 -22.51,157.57 192.940002,144.71 192.940002,144.71 0,0 141.49,0 144.71,-128.63 3.22,-128.63 -199.37,-144.71 -199.37,-144.71 z"
     id="path19"
     style="fill:#ff0000;fill-opacity:0.553459;stroke:none" />
  <path
     d="m 170.42719,206.55908 c 0,0 -39.91,14.09 -37.57,57.52 2.35,43.43 -14.09,81 38.74,108 52.83,27 95.09,-42.26 95.09,-42.26 0,0 24.65,-75.13 -7.04,-102.13 -31.7,-27 -89.22,-21.13 -89.22,-21.13 z"
     id="path20"
     style="fill:#800000;fill-opacity:0.742138" />
  <path
     d="m 655.83719,0.53908229 c 0,0 -39.91,14.08999971 -37.57,57.51999971 2.34,43.429998 -14.09,80.999998 38.74,107.999998 52.83,27 95.09,-42.26 95.09,-42.26 0,0 24.65,-75.129998 -7.04,-102.129998 -31.7,-26.9999997 -89.22,-21.12999971 -89.22,-21.12999971 z"
     id="path21"
     style="fill:#800000;fill-opacity:0.74" />
  <g
     id="g22"
     transform="translate(-281.82281,-189.60092)">
    <path
       class="st7"
       d="m 570.81,481.85 c 0,0 208.96,-65.74 248.87,-96.26 10.17,-7.78 18.96,-14.94 26.43,-21.3"
       id="path22" />
    <polygon
       points="828.79,360.21 848.57,381.49 878.37,333.94 "
       id="polygon22" />
  </g>
  <g
     id="g23"
     transform="translate(-281.82281,-189.60092)">
    <path
       class="st7"
       d="m 570.81,519.42 c 0,0 173.74,-30.52 201.91,-11.74 4.55,3.03 8.79,6.12 12.7,9.18"
       id="path23" />
    <polygon
       points="787.83,499.85 767.91,521 817.33,547.59 "
       id="polygon23" />
  </g>
  <path
     class="st6"
     d="m 221.14719,192.51908 c 0,0 -1.18,-0.67 -1.01,-1.68 0.17,-1.01 1.01,-1.18 1.51,-2.36 0.5,-1.18 2.69,-8.41 2.69,-8.41 l 2.36,-8.24 c 0,0 0.5,-2.36 0.84,-3.87 0.34,-1.51 1.18,-8.75 0.67,-10.77 -0.51,-2.02 -1.01,-6.56 -2.52,-8.92 -1.51,-2.36 -3.03,-4.54 -4.37,-5.55 -1.34,-1.01 -6.9,-5.22 -6.9,-5.89 0,-0.67 0.17,-1.35 0.17,-1.35 0,0 2.02,-0.5 3.03,-1.18 1.01,-0.68 5.55,-4.88 5.55,-15.31 0,-10.43 -3.7,-20.359998 -5.05,-22.549998 -1.35,-2.19 -7.07,-8.92 -10.6,-9.42 -3.53,-0.5 -3.2,0.5 -4.71,-0.34 -1.51,-0.84 0.67,-3.03 0.67,-3.03 0,0 -0.17,-1.18 4.54,1.01 4.71,2.19 32.81,1.68 43.92,-6.56 11.11,-8.24 5.38,-24.4 5.38,-24.4 0,0 -4.71,-10.6 -15.65,-10.6 -10.94,0 -9.09,5.05 -9.09,5.05 0,0 1.35,4.37 2.52,5.22 1.17,0.85 4.54,8.58 4.04,11.27 -0.5,2.69 -0.5,7.24 -5.05,8.58 -4.55,1.34 -7.24,1.35 -7.24,1.35 0,0 -7.57,0 -9.25,-0.5 -1.68,-0.5 -7.4,-2.36 -7.74,-4.88 -0.34,-2.52 -1.01,-4.88 0.67,-6.9 1.68,-2.02 8.75,-6.06 8.41,-10.1 -0.34,-4.04 -7.07,-7.74 -9.93,-7.91 -2.86,-0.17 -7.07,0.67 -8.92,2.86 -1.85,2.19 -9.59,11.61 -7.24,19.52 2.35,7.91 1.68,5.89 2.52,7.74 0.84,1.85 4.71,4.88 4.88,6.9 0.17,2.02 0.34,7.91 -0.84,9.93 -1.18,2.02 -6.56,12.279998 -6.06,18.509998 0.5,6.23 0.84,23.72 17.16,25.74 0,0 1.85,3.2 4.04,4.37 2.19,1.17 12.28,7.24 11.61,15.31 0,0 1.18,10.6 -0.84,13.8 0,0 -6.39,19.52 -4.71,20.86"
     id="path24"
     style="fill:#99badd;fill-opacity:1;stroke:none;stroke-opacity:1" />
  <path
     class="st6"
     d="m 226.70719,87.359082 c 0,0 8.08,-2.19 10.6,-2.36 2.52,-0.17 4.88,-0.5 5.89,0.5 1.01,1 5.22,8.24 5.55,13.12 0.33,4.879998 0.17,20.699998 -2.52,26.749998 -2.69,6.05 -4.54,9.59 -7.07,9.59 -2.53,0 -10.77,-0.34 -12.45,-9.76 -1.68,-9.42 -4.21,-22.88 -3.2,-29.609998 1.01,-6.73 1.35,-6.9 2.52,-8.08 l 0.67,-0.17 z"
     id="path25" />
  <path
     class="st4"
     d="m 224.11719,42.249082 c 0,0 5.11,1.02 5.11,5.8 0,0 2.39,7.16 3.75,8.86 1.36,1.7 4.77,5.45 3.41,7.5 -1.36,2.05 -2.73,5.8 -5.11,6.14 -2.38,0.34 -9.55,2.05 -11.93,0.34 0,0 -6.82,-2.39 -5.8,-5.45 l 0.34,-2.73 2.05,-2.05 c 0,0 5.8,-4.09 5.45,-6.82 -0.35,-2.73 -1.7,-6.48 -1.36,-8.18 0,0 2.05,-3.75 4.09,-3.41 z"
     id="path26" />
  <text
     class="st1"
     id="text26"
     x="-2.8828125"
     y="102.28909"><tspan
       x="-2.8828125"
       y="102.28909"
       id="tspan26">HLA class I</tspan></text>
</svg>
