<?xml version="1.0" encoding="UTF-8" standalone="no"?>
<svg
   id="Layer_1"
   version="1.1"
   viewBox="0 0 150 150"
   sodipodi:docname="logo-vumc.svg"
   inkscape:version="1.4 (e7c3feb1, 2024-10-09)"
   xmlns:inkscape="http://www.inkscape.org/namespaces/inkscape"
   xmlns:sodipodi="http://sodipodi.sourceforge.net/DTD/sodipodi-0.dtd"
   xmlns="http://www.w3.org/2000/svg"
   xmlns:svg="http://www.w3.org/2000/svg">
  <sodipodi:namedview
     id="namedview1"
     pagecolor="#ffffff"
     bordercolor="#000000"
     borderopacity="0.25"
     inkscape:showpageshadow="2"
     inkscape:pageopacity="0.0"
     inkscape:pagecheckerboard="0"
     inkscape:deskcolor="#d1d1d1"
     inkscape:zoom="1.8879751"
     inkscape:cx="74.948022"
     inkscape:cy="74.948022"
     inkscape:window-width="1200"
     inkscape:window-height="950"
     inkscape:window-x="0"
     inkscape:window-y="443"
     inkscape:window-maximized="0"
     inkscape:current-layer="Layer_1" />
  <!-- Generator: Adobe Illustrator 30.0.0, SVG Export Plug-In . SVG Version: 2.1.1 Build 123)  -->
  <defs
     id="defs1">
    <style
       id="style1">
      .st0 {
        fill: #8a6e4b;
      }
    </style>
  </defs>
  <path
     class="st0"
     d="m 67.597605,90.61109 c -0.213171,1.83327 -2.103286,6.8499 0.554244,7.38993 3.652328,0.7532 5.514021,-8.08628 13.941377,-3.38231 4.846085,2.70016 5.457175,11.0991 7.873111,15.90255 l 5.144524,0.14211 c -1.065854,-5.18716 -3.822864,-8.7258 -2.074863,-14.15455 1.748001,-5.42875 18.389542,-19.810679 10.573272,-23.349316 -2.10328,-0.952163 -9.521629,5.897728 -9.592686,1.051643 C 93.87447,65.243759 108.17113,60.070812 105.49939,51.217114 102.82765,42.363416 91.62907,58.607038 87.13827,54.727328 82.434299,47.80638 109.77702,31.463278 83.471731,32.514921 V 26.17664 h 58.195649 l -0.14211,6.196167 c -5.74141,1.449562 -9.28004,1.421139 -13.01764,6.551452 L 90.762175,134.85116 60.719291,133.92742 22.561702,38.924259 C 19.122545,34.177654 15.342314,32.585978 9.458798,32.472287 L 9.401952,26.17664 h 59.247296 v 6.338281 c -29.076509,-0.113691 9.351097,19.48382 4.220784,24.28727 -4.618703,1.705367 -14.452987,-5.997207 -17.480013,-1.065854 -5.414541,8.853698 16.172565,14.751425 20.180177,18.972209 3.496003,3.694962 4.476589,10.388528 6.821469,14.822484 -6.665143,0.76741 -4.917142,-4.37711 -7.54625,-7.787844 -5.286638,-6.849892 -5.130312,5.158735 -5.883516,7.603095 -0.383708,1.250599 -1.350082,1.165329 -1.392717,1.250599 0.412131,-3.510211 1.605888,-6.935156 1.037432,-10.54485 -15.433572,-4.234995 -18.77325,11.01383 -3.723385,14.79406 0.369496,-1.73379 2.216977,-3.39652 2.685953,-4.24921 z"
     id="path1"
     style="stroke-width:1.42114" />
</svg>
