<?xml version="1.0" encoding="UTF-8"?>
<svg id="Layer_2" xmlns="http://www.w3.org/2000/svg" version="1.1" viewBox="0 0 150 150">
  <!-- Generator: Adobe Illustrator 30.0.0, SVG Export Plug-In . SVG Version: 2.1.1 Build 123)  -->
  <defs>
    <style>
      .st0 {
        fill: #6db43d;
      }
    </style>
  </defs>
  <rect class="st0" x="20" y="100" width="105" height="3"/>
  <rect class="st0" x="102.5" y="79.5" width="33" height="6" transform="translate(36.5 201.5) rotate(-90)"/>
  <rect class="st0" x="89.5" y="79.5" width="33" height="6" transform="translate(23.5 188.5) rotate(-90)"/>
  <rect class="st0" x="76.5" y="78.5" width="33" height="6" transform="translate(11.5 174.5) rotate(-90)"/>
  <rect class="st0" x="63.5" y="78.5" width="33" height="6" transform="translate(-1.5 161.5) rotate(-90)"/>
  <rect class="st0" x="49.5" y="78.5" width="33" height="6" transform="translate(-15.5 147.5) rotate(-90)"/>
  <rect class="st0" x="36.5" y="78.5" width="33" height="6" transform="translate(-28.5 134.5) rotate(-90)"/>
  <rect class="st0" x="22.5" y="78.5" width="33" height="6" transform="translate(-42.5 120.5) rotate(-90)"/>
  <rect class="st0" x="10.5" y="78.5" width="33" height="6" transform="translate(-54.5 108.5) rotate(-90)"/>
  <rect class="st0" x="21" y="59" width="105" height="7"/>
  <polygon class="st0" points="73 39 22.64 50.43 21 54 125 54 124 51 73 39"/>
  <rect class="st0" x="24" y="96" width="98" height="3"/>
  <rect class="st0" x="24" y="55" width="3" height="4"/>
  <rect class="st0" x="31" y="55" width="3" height="4"/>
  <rect class="st0" x="37" y="55" width="3" height="4"/>
  <rect class="st0" x="44" y="55" width="3" height="4"/>
  <rect class="st0" x="51" y="55" width="3" height="4"/>
  <rect class="st0" x="58" y="55" width="3" height="4"/>
  <rect class="st0" x="64" y="55" width="3" height="4"/>
  <rect class="st0" x="71" y="55" width="3" height="4"/>
  <rect class="st0" x="78" y="55" width="3" height="4"/>
  <rect class="st0" x="85" y="55" width="3" height="4"/>
  <rect class="st0" x="92" y="55" width="3" height="4"/>
  <rect class="st0" x="98" y="55" width="3" height="4"/>
  <rect class="st0" x="104" y="55" width="3" height="4"/>
  <rect class="st0" x="112" y="55" width="3" height="4"/>
  <rect class="st0" x="118" y="55" width="3" height="4"/>
</svg>