<?xml version="1.0" encoding="UTF-8" standalone="no"?>
<svg
   viewBox="0 0 1200 630"
   version="1.1"
   id="svg19"
   sodipodi:docname="topic-career-development.svg"
   xml:space="preserve"
   inkscape:version="1.4 (e7c3feb1, 2024-10-09)"
   xmlns:inkscape="http://www.inkscape.org/namespaces/inkscape"
   xmlns:sodipodi="http://sodipodi.sourceforge.net/DTD/sodipodi-0.dtd"
   xmlns="http://www.w3.org/2000/svg"
   xmlns:svg="http://www.w3.org/2000/svg"><sodipodi:namedview
     id="namedview19"
     pagecolor="#ffffff"
     bordercolor="#000000"
     borderopacity="0.25"
     inkscape:showpageshadow="2"
     inkscape:pageopacity="0.0"
     inkscape:pagecheckerboard="0"
     inkscape:deskcolor="#d1d1d1"
     inkscape:zoom="1.76"
     inkscape:cx="524.14773"
     inkscape:cy="512.21591"
     inkscape:window-width="1872"
     inkscape:window-height="950"
     inkscape:window-x="0"
     inkscape:window-y="443"
     inkscape:window-maximized="0"
     inkscape:current-layer="svg19" /><defs
     id="defs1"><style
       id="style1">
        .st_light_blue{fill:#ccddec}
        .st_medium_blue{fill:#99badd}
        .st_dark_blue{fill:#4c86c5}
        .st_white{fill:#fff}
    </style></defs><rect
     style="fill:#734622;fill-opacity:1;stroke-width:22.7614;stroke-opacity:0.4;paint-order:fill markers stroke"
     id="rect20"
     width="71.010544"
     height="214.80692"
     x="542.24609"
     y="353.48172" /><rect
     style="fill:#734622;fill-opacity:1;stroke-width:22.0933;stroke-opacity:0.4;paint-order:fill markers stroke"
     id="rect21"
     width="32.842377"
     height="110.06635"
     x="-3.9770241"
     y="608.18134"
     transform="rotate(-50.246115)"
     inkscape:transform-center-x="11.539224"
     inkscape:transform-center-y="54.145536" /><rect
     style="fill:#734622;fill-opacity:1;stroke-width:22.0933;stroke-opacity:0.4;paint-order:fill markers stroke"
     id="rect21-6"
     width="32.842377"
     height="110.06635"
     x="689.89618"
     y="-300.06076"
     transform="rotate(51.979158)"
     inkscape:transform-center-x="50.474138"
     inkscape:transform-center-y="-22.743139" /><path
     id="path19"
     style="fill:#639c2b;fill-opacity:1;stroke-width:22.0933;stroke-opacity:0.4;paint-order:fill markers stroke"
     d="m 577.41932,53.433771 a 79.886872,79.886872 0 0 0 -74.10748,50.559999 61.246599,61.246599 0 0 0 -40.00526,-14.89572 61.246599,61.246599 0 0 0 -61.2485,61.2485 61.246599,61.246599 0 0 0 0.3754,5.25147 61.246599,61.246599 0 0 0 -15.4653,-1.99357 61.246599,61.246599 0 0 0 -61.24417,61.24848 61.246599,61.246599 0 0 0 9.38965,32.50131 61.246599,61.246599 0 0 0 -28.97587,51.98399 61.246599,61.246599 0 0 0 61.24417,61.24417 61.246599,61.246599 0 0 0 2.07125,-0.14672 61.246599,61.246599 0 0 0 60.01006,49.71425 61.246599,61.246599 0 0 0 47.3323,-22.53344 61.246599,61.246599 0 0 0 7.8923,0.56095 61.246599,61.246599 0 0 0 51.42732,-28.00929 61.246599,61.246599 0 0 0 39.35802,14.39948 61.246599,61.246599 0 0 0 41.06678,-15.9184 61.246599,61.246599 0 0 0 49.20074,25.03189 61.246599,61.246599 0 0 0 3.70235,-0.26322 61.246599,61.246599 0 0 0 51.45321,28.03518 61.246599,61.246599 0 0 0 60.27328,-50.92678 61.246599,61.246599 0 0 0 3.75414,0.26753 61.246599,61.246599 0 0 0 61.24419,-61.24848 61.246599,61.246599 0 0 0 -32.16906,-53.89556 61.246599,61.246599 0 0 0 11.21925,-35.10764 61.246599,61.246599 0 0 0 -61.24848,-61.24417 61.246599,61.246599 0 0 0 -13.38112,1.63541 61.246599,61.246599 0 0 0 0.13376,-1.85548 61.246599,61.246599 0 0 0 -61.24417,-61.248499 61.246599,61.246599 0 0 0 -38.70211,13.907559 79.886872,79.886872 0 0 0 -73.35665,-48.303199 z" /><path
     d="m 510.94934,569.1225 23.94439,0.001 26.46973,-0.94139 V 420.45383 Z"
     style="fill:#734622;stroke-width:10;stroke-opacity:0.4;paint-order:fill markers stroke"
     id="path22"
     sodipodi:nodetypes="ccccc" /><path
     d="m 644.03368,568.72264 -23.94439,0.001 -26.46973,-0.94139 V 420.05397 Z"
     style="fill:#734622;stroke-width:10;stroke-opacity:0.4;paint-order:fill markers stroke"
     id="path22-8"
     sodipodi:nodetypes="ccccc" /></svg>
