<svg xmlns="http://www.w3.org/2000/svg" id="Layer_1" viewBox="0 0 90 90"><defs><style>.st0{fill:#74a0d1}.st1{fill:#99badd}.st2{fill:#366da6}</style></defs><path d="m53.12 46.23.67.38 11.36 6.42.56.31" class="st0"/><path d="m64.98 54.65-.56-.31-12.04-6.8 1.48-2.61 12.58 7.1z" class="st0"/><path d="m53.31 47.12.55-.23 7.63-3.08 7.17-2.9" class="st0"/><path d="m53.89 48.5-1.16-2.76.55-.23 14.82-5.99 1.12 2.78zm.91-11.84.6.14 7.4 1.74 4.69 1.11.1.02" class="st0"/><path d="m67.3 41.14-.1-.02-12.74-3 .68-2.92 12.74 3z" class="st0"/><path d="M72.2 49.75c-.49-.67-.77-1.49-.77-2.38s.3-1.75.8-2.43c.74-.99 1.92-1.63 3.25-1.63 2.24 0 4.06 1.82 4.06 4.06 0 .45-.07.88-.21 1.28a4.05 4.05 0 0 1-3.85 2.78c-1.35 0-2.55-.66-3.28-1.67Z" class="st2"/><path d="M75.48 51.93c-1.46 0-2.84-.7-3.69-1.88l-.09-.14c-.5-.75-.77-1.62-.77-2.54 0-.97.32-1.94.9-2.73a4.5 4.5 0 0 1 3.65-1.83 4.57 4.57 0 0 1 4.56 4.56c0 .51-.08.99-.24 1.45a4.53 4.53 0 0 1-4.32 3.11m-2.78-2.34c.67.84 1.69 1.34 2.78 1.34 1.54 0 2.9-.98 3.38-2.44.12-.35.19-.73.19-1.12 0-1.96-1.6-3.56-3.56-3.56-1.13 0-2.17.52-2.85 1.43-.45.61-.7 1.37-.7 2.13s.23 1.48.67 2.08l.1.14Zm-6.63-.19c1.04.17 1.93.79 2.45 1.66.32.54.51 1.16.51 1.84 0 1.96-1.58 3.54-3.54 3.54a3.534 3.534 0 0 1-3.53-3.38v-.16c0-1.1.5-2.08 1.29-2.73a3.5 3.5 0 0 1 2.82-.76Z" class="st2"/><path d="M65.49 56.94c-.35 0-.67-.04-.97-.12a4.01 4.01 0 0 1-3.06-3.74v-.18c0-1.21.54-2.35 1.47-3.12.73-.61 1.66-.96 2.64-.92v-.04l.58.08a4 4 0 0 1 2.8 1.9c.39.65.58 1.36.58 2.1 0 2.23-1.81 4.04-4.04 4.04m.01-7.08c-.71 0-1.39.25-1.93.69-.71.58-1.11 1.44-1.11 2.35v.16c.06 1.34.99 2.47 2.31 2.79.22.06.46.08.72.08 1.68 0 3.04-1.36 3.04-3.04 0-.56-.15-1.09-.44-1.58a3.04 3.04 0 0 0-1.84-1.37l-.27-.04a2.6 2.6 0 0 0-.49-.04Z" class="st2"/><path d="M55.94 39.47c-.29.14-.62.21-.97.21-.43 0-.83-.12-1.17-.32a2.31 2.31 0 0 1-1.15-2c0-1.28 1.04-2.32 2.32-2.32a2.322 2.322 0 0 1 .97 4.43" class="st0"/><path d="M54.97 41.18c-.68 0-1.34-.18-1.93-.53a3.82 3.82 0 0 1-1.89-3.29 3.82 3.82 0 1 1 7.25 1.68 3.79 3.79 0 0 1-3.43 2.13Zm0-4.64c-.45 0-.82.37-.82.82 0 .29.15.56.4.7.25.15.56.14.74.06h.03c.16-.09.31-.23.39-.39.06-.12.09-.24.09-.37 0-.45-.37-.82-.82-.82Zm-10.09-7.32v.52l-.07 14.53c-.17.31-.27.66-.27 1.03s.09.71.26 1.01l-.07 15.01v.35H22.74c-8.96 0-16.23-7.27-16.23-16.23s7.27-16.22 16.23-16.22z" class="st0"/><path d="M46.23 63.17H22.74c-9.78 0-17.73-7.95-17.73-17.73s7.95-17.72 17.73-17.72h23.64v2.02l-.07 14.92-.18.33a.61.61 0 0 0-.03.58l.2.35zM22.74 30.72c-8.12 0-14.73 6.6-14.73 14.72s6.61 14.73 14.73 14.73h20.5l.06-13.53a3.6 3.6 0 0 1 .01-2.71l.06-13.21z" class="st0"/><path d="M44.15 43.84v2.04a2.06 2.06 0 0 1 0-2.04" class="st1"/><path d="M22.08 61.24c-8.96 0-16.23-7.27-16.23-16.23s7.27-16.23 16.23-16.23" class="st0"/><path d="M22.08 63.74c-10.33 0-18.73-8.4-18.73-18.73s8.4-18.73 18.73-18.73v5c-7.57 0-13.73 6.16-13.73 13.73s6.16 13.73 13.73 13.73z" class="st0"/><path d="M67.92 63.72v-5c6.27 0 11.74-4.23 13.3-10.29.29-1.12.43-2.28.43-3.44 0-6.51-4.63-12.17-11.01-13.46-.67-.13-1.39-.22-2.11-.25-.26-.02-.43-.02-.61-.02v-5c.32 0 .63 0 .94.03.88.04 1.84.16 2.77.34 8.71 1.76 15.03 9.48 15.03 18.36 0 1.57-.2 3.14-.59 4.68-2.13 8.28-9.59 14.05-18.14 14.05Z" class="st2"/><path d="M62.06 61.24H22.08m0-2.5h39.98v5H22.08z" class="st0"/><path d="M62.06 58.74h6.45v5h-6.45zm3.4-32.46h3.19v5h-3.19z" class="st2"/><path d="M22.08 26.28h43.38v5H22.08z" class="st0"/><path d="m39.15 43.825.071-14.54 10 .049-.071 14.54z" class="st0"/><path d="m39.069 60.87.07-19.94 10 .036-.07 19.94z" class="st0"/><path d="M57.16 46.09c.34.38.55.88.55 1.43v.1c-.03.57-.27 1.08-.66 1.45a2.132 2.132 0 1 1-2.81-3.2c.37-.3.84-.48 1.35-.48.62 0 1.18.27 1.57.7" style="fill:#4c86c5"/><path d="M55.59 51.65c-2.28 0-4.13-1.85-4.13-4.13 0-1.25.55-2.42 1.52-3.2.74-.6 1.67-.93 2.61-.93 1.16 0 2.27.49 3.05 1.36.68.77 1.06 1.75 1.06 2.77v.21a4.16 4.16 0 0 1-1.28 2.8c-.77.73-1.77 1.13-2.84 1.13Zm0-4.26c-.1.04-.13.07-.13.13 0 .08.07.13.13.13.09-.04.11-.08.12-.11v-.02s0-.05-.04-.09c-.03-.03-.05-.04-.08-.04" class="st0"/><path d="m66.19 52.75 8.9-4.37.67-.32" class="st1"/><path d="m66.85 54.1-1.32-2.7 9.58-4.69 1.3 2.7-.67.32zm-1.3 1.52-.03.49-.28 4.59" class="st2"/><path d="m63.74 60.605.308-5.081 2.995.182-.308 5.08zM78.88 47.65l.16.05 3.99 1.22" class="st2"/><path d="m82.59 50.35-4.16-1.27.9-2.86 4.14 1.27zm-15.793-9.972 5.898-9.237 2.529 1.614-5.899 9.238z" class="st2"/><path d="m53.306 38.269 3-.023.05 6.62-3 .023zm-3.188-8.494 2.765-1.163 2.312 5.493-2.765 1.164zm-6.631 19.582 8.327-3.388 1.13 2.779-8.327 3.388z" class="st0"/><path d="M69.56 36.62c1.17.19 2.17.89 2.77 1.87a3.988 3.988 0 0 1-3.41 6.06c-.33 0-.64-.04-.95-.11a3.99 3.99 0 0 1-3.04-3.7v-.18a4 4 0 0 1 1.45-3.08c.69-.57 1.57-.91 2.54-.91.22 0 .44.02.65.05z" class="st2"/><path d="M68.92 45.05c-.35 0-.69-.04-1.06-.12a4.52 4.52 0 0 1-3.43-4.17v-.2c0-1.34.59-2.6 1.63-3.46.81-.67 1.8-1.03 2.86-1.03.24 0 .49.02.72.05 1.29.21 2.43.98 3.12 2.1.43.69.65 1.5.65 2.33a4.49 4.49 0 0 1-4.49 4.49Zm0-7.98c-.82 0-1.59.27-2.22.8a3.48 3.48 0 0 0-1.27 2.69v.18a3.49 3.49 0 0 0 2.66 3.21c2.28.51 4.32-1.2 4.32-3.39 0-.65-.17-1.27-.51-1.81a3.5 3.5 0 0 0-2.42-1.64c-.18-.03-.37-.04-.56-.04" class="st2"/><path d="m67.683 42.523 1.71-2.465 8.389 5.82-1.71 2.464z" class="st2"/></svg>