<svg xmlns="http://www.w3.org/2000/svg" id="Layer_1" viewBox="0 0 1182.2 710.688"><defs id="defs1"><style id="style1">.st1,.st3,.st4,.st5{stroke:#000;stroke-miterlimit:10}.st3,.st5{fill:none}.st5{stroke-width:4px}.st1,.st3,.st4{stroke-width:5px}.st1,.st4{fill:#fff}.st6{font-family:ArialMT,Arial;font-size:36px}.st7{font-family:Arial-BoldMT,Arial;font-size:52px;font-weight:700}.st4{fill-rule:evenodd}</style></defs><path id="line1" d="M87.357 492.339h1089.16" class="st3"/><path id="line2" d="M88.877 559.059h1090.12" class="st3"/><text id="text2" x="170.007" y="444.799" class="st7"><tspan id="tspan2" x="170.007" y="444.799">A</tspan></text><text id="text3" x="353.507" y="444.199" class="st7"><tspan id="tspan3" x="353.507" y="444.199">B</tspan></text><text id="text4" x="263.627" y="442.929" class="st7"><tspan id="tspan4" x="263.627" y="442.929">C</tspan></text><text id="text5" x="137.677" y="330.859" class="st7"><tspan id="tspan5" x="137.677" y="330.859">HLA Class I</tspan></text><text id="text6" x="671.527" y="328.079" class="st7"><tspan id="tspan6" x="671.527" y="328.079">HLA Class II</tspan></text><text id="text7" x="-1.793" y="85.569" class="st6"><tspan id="tspan7" x="-1.793" y="85.569">Chr 6</tspan></text><path id="rect7" d="M156.357 472.149h60.32v111.11h-60.32z" class="st1"/><path id="rect8" d="M252.387 470.559h60.32v111.11h-60.32z" class="st1"/><path id="rect9" d="M346.037 472.149h60.32v111.11h-60.32z" class="st1"/><g id="g11" transform="translate(-336.003 -210.821)"><path id="line9" d="M485.58 585.77h266.25" class="st3"/><path id="rect10" d="M483.08 569.52h5v32.5h-5z"/><path id="rect11" d="M749.33 569.52h5v32.5h-5z"/></g><text id="text11" x="574.857" y="442.829" class="st7"><tspan id="tspan11" x="574.857" y="442.829">DR</tspan></text><text id="text12" x="809.927" y="441.579" class="st7"><tspan id="tspan12" x="809.927" y="441.579">DQ</tspan></text><text id="text13" x="998.507" y="444.519" class="st7"><tspan id="tspan13" x="998.507" y="444.519">DP</tspan></text><g id="g14" transform="translate(-336.003 -210.821)"><path id="line13" d="m831.83 585.58 620.24-.01" class="st3"/><path id="rect13" d="M829.33 569.33h5v32.5h-5z"/><path id="rect14" d="M1449.57 569.32h5v32.5h-5z"/></g><path id="rect15" d="M504.337 471.679h60.32v111.11h-60.32z" class="st1"/><path id="rect16" d="M652.377 473.509h60.32v111.11h-60.32z" class="st1"/><path id="rect17" d="M783.437 470.889h60.32v111.11h-60.32z" class="st1"/><path id="rect18" d="M862.477 469.089h60.32v111.11h-60.32z" class="st1"/><path id="rect19" d="M963.687 472.299h60.32v111.11h-60.32z" class="st1"/><path id="rect20" d="M1042.727 470.499h60.32v111.11h-60.32z" class="st1"/><text id="text20" x="971.407" y="626.659" class="st6"><tspan id="tspan20" x="971.407" y="626.659">A1</tspan></text><text id="text21" x="791.227" y="626.259" class="st6"><tspan id="tspan21" x="791.227" y="626.259">A1</tspan></text><text id="text22" x="510.917" y="622.439" class="st6"><tspan id="tspan22" x="510.917" y="622.439">A1</tspan></text><path id="rect22" d="M577.927 472.809h60.32v111.11h-60.32z" class="st1"/><text id="text23" x="873.257" y="624.889" class="st6"><tspan id="tspan23" x="873.257" y="624.889">B1</tspan></text><text id="text24" x="1051.677" y="625.249" class="st6"><tspan id="tspan24" x="1051.677" y="625.249">B1</tspan></text><text id="text25" x="660.607" y="627.139" class="st6"><tspan id="tspan25" x="660.607" y="627.139">B1</tspan></text><text id="text28" x="585.547" y="623.849" class="st6"><tspan id="tspan26" x="585.547" y="623.849">B3</tspan><tspan id="tspan27" x="585.547" y="667.049">B4</tspan><tspan id="tspan28" x="585.547" y="710.249">B5</tspan></text><text id="text29" x="86.677" y="535.869" class="st6"><tspan id="tspan29" x="86.677" y="535.869">Tel</tspan></text><text id="text30" x="1118.637" y="536.289" class="st6"><tspan id="tspan30" x="1118.637" y="536.289">Cen</tspan></text><path id="polyline30" d="M846.19 250.21H472.23" class="st3" transform="translate(-336.003 -210.821)"/><path id="polyline31" d="M849.61 316.93H473.59" class="st3" transform="translate(-336.003 -210.821)"/><path id="path31" d="M142.657 39.389a32.7 32.7 0 0 0-5.62 0c-17.16 1.43-30.63 15.81-30.63 33.33s13.97 32.42 31.58 33.39c.62.03 1.24.05 1.86.05s1.24-.02 1.86-.05" class="st4"/><path id="path32" d="M506.767 106.109c1.12.11 2.27.17 3.42.17s2.29-.06 3.42-.17c16.86-1.71 30.02-15.95 30.02-33.27 0-18.47-14.97-33.45-33.44-33.45" class="st4"/><path id="polyline32" d="M1448.52 250.72H913.74" class="st3" transform="translate(-336.003 -210.821)"/><path id="polyline33" d="M1444.54 317.44H915.1" class="st3" transform="translate(-336.003 -210.821)"/><path id="path33" d="M584.167 39.899a32.7 32.7 0 0 0-5.62 0c-17.16 1.43-30.63 15.81-30.63 33.33s13.97 32.42 31.58 33.39c.62.03 1.24.05 1.86.05s1.24-.02 1.86-.05" class="st4"/><path id="path34" d="M1107.277 106.619c1.12.11 2.27.17 3.42.17s2.29-.06 3.42-.17c16.86-1.71 30.02-15.95 30.02-33.27 0-18.47-14.97-33.45-33.44-33.45" class="st4"/><text id="text34" x="272.067" y="204.269" class="st6"><tspan id="tspan34" x="272.067" y="204.269">6p21.1-21.3</tspan></text><path id="rect34" d="M238.897 40.599h55.06v65.26h-55.06z"/><text id="text35" x="351.847" y="26.209" class="st6"><tspan id="tspan35" x="351.847" y="26.209">Short arm</tspan></text><text id="text36" x="952.217" y="26.579" class="st6"><tspan id="tspan36" x="952.217" y="26.579">Long arm</tspan></text><g id="g38" transform="translate(-336.003 -210.821)"><path id="line36" d="m574.9 316.68.5 5.98" class="st5"/><path id="line37" d="m576.42 335.1 11.78 143.13" style="stroke-dasharray:12.49 12.49;stroke:#000;stroke-miterlimit:10;fill:none;stroke-width:4px"/><path id="line38" d="m588.71 484.45.5 5.98" class="st5"/></g><g id="g41" transform="translate(-336.003 -210.821)"><path id="line39" d="m629.96 316.68 5.71 1.85" class="st3"/><path id="line40" d="m646.91 322.17 488.93 158.35" style="stroke:#000;stroke-miterlimit:10;fill:none;stroke-width:5px;stroke-dasharray:11.81 11.81"/><path id="line41" d="m1141.46 482.34 5.7 1.85" class="st3"/></g></svg>