<svg xmlns="http://www.w3.org/2000/svg" id="fig-delayed-dx-comparison_svg1" viewBox="0 0 900 580"><defs><style>.fig-delayed-dx-comparison_legend-text{font-family:ArialMT,Arial;font-size:20px;fill:#212529}.fig-delayed-dx-comparison_pheno{fill:#212529;font-family:Arial-BoldMT,Arial;font-weight:700;font-size:24px}.fig-delayed-dx-comparison_tick{font-family:ArialMT,Arial;font-size:18px;fill:#212529}</style></defs><g id="fig-delayed-dx-comparison_layer1"><circle cx="310" cy="30" r="7" fill="#4c86c5"/><text x="324" y="36" class="fig-delayed-dx-comparison_legend-text">Patch Testing</text><circle cx="470" cy="30" r="7" fill="#2d6a4f"/><text x="484" y="36" class="fig-delayed-dx-comparison_legend-text">Delayed IDT</text><circle cx="620" cy="30" r="7" fill="#8e44ad"/><text x="634" y="36" class="fig-delayed-dx-comparison_legend-text">ELISpot</text><path stroke="#e8e8e8" d="M220 70v435M370 70v435M520 70v435M670 70v435M820 70v435"/><path stroke="#f0f0f0" d="M220 160h600m-600 90h600m-600 90h600m-600 90h600"/><text x="200" y="125" class="fig-delayed-dx-comparison_pheno" text-anchor="end">MPE</text><text x="200" y="215" class="fig-delayed-dx-comparison_pheno" text-anchor="end">FDE</text><text x="200" y="305" class="fig-delayed-dx-comparison_pheno" text-anchor="end">AGEP</text><text x="200" y="395" class="fig-delayed-dx-comparison_pheno" text-anchor="end">DRESS</text><text x="200" y="485" class="fig-delayed-dx-comparison_pheno" text-anchor="end">SJS/TEN</text><text x="220" y="528" class="fig-delayed-dx-comparison_tick" text-anchor="middle">0%</text><text x="520" y="528" class="fig-delayed-dx-comparison_tick" text-anchor="middle">50%</text><text x="820" y="528" class="fig-delayed-dx-comparison_tick" text-anchor="middle">100%</text><text x="520" y="555" style="font-family:Arial-BoldMT,Arial;font-weight:700;font-size:22px;fill:#212529" text-anchor="middle">Sensitivity</text><circle cx="532" cy="104" r="8" fill="#4c86c5"/><circle cx="520" cy="194" r="8" fill="#4c86c5"/><text x="536" y="190" style="font-family:ArialMT,Arial;font-size:16px;fill:#666">(lesion site)</text><path stroke="#4c86c5" stroke-linecap="round" stroke-width="3" d="M568 284h36" opacity=".35"/><circle cx="586" cy="284" r="8" fill="#4c86c5"/><path stroke="#4c86c5" stroke-linecap="round" stroke-width="3" d="M412 374h288" opacity=".35"/><circle cx="520" cy="374" r="8" fill="#4c86c5"/><path stroke="#4c86c5" stroke-linecap="round" stroke-width="3" d="M274 464h90" opacity=".35"/><circle cx="322" cy="464" r="8" fill="#4c86c5"/></g><g id="fig-delayed-dx-comparison_layer2"><circle cx="640" cy="120" r="8" fill="#2d6a4f"/><circle cx="520" cy="210" r="7" fill="none" stroke="#2d6a4f" stroke-dasharray="4,3" stroke-width="2"/><circle cx="580" cy="300" r="8" fill="#2d6a4f"/><circle cx="610" cy="390" r="8" fill="#2d6a4f"/><text x="520" y="485" style="font-family:Arial-BoldMT,Arial;font-weight:700;font-size:18px;fill:#c0392b" text-anchor="middle">✕ Contraindicated</text></g><g id="fig-delayed-dx-comparison_layer3"><circle cx="670" cy="406" r="8" fill="#8e44ad"/><circle cx="670" cy="496" r="8" fill="#8e44ad"/><text x="820" y="575" style="font-family:ArialMT,Arial;font-size:17px;fill:#666" text-anchor="end">ELISpot indicated for severe reactions only</text></g></svg>