<svg xmlns="http://www.w3.org/2000/svg" id="Layer_2" viewBox="0 0 1200 630"><defs><style>.st0{fill:#4b9cd2}.st0,.st1,.st2{stroke:#000;stroke-miterlimit:10;stroke-width:3px}.st1{fill:#555}.st2{fill:none}</style></defs><path d="M735.82 210.86s2 87 1 98-1 47-1 47-2 6-9 6h-256s-7 1-9-9-2-143-2-143m1.5-11 274 1" class="st2"/><path d="M459.82 209.86s0-18 7-21 20-1 20-1 220-4 229-3 17 0 18 4 2 22 2 22" class="st2"/><circle cx="473.82" cy="295.86" r="6" class="st0"/><circle cx="493.82" cy="259.86" r="6" class="st0"/><circle cx="513.82" cy="279.86" r="6" class="st0"/><circle cx="534.82" cy="253.86" r="6" class="st0"/><circle cx="563.82" cy="298.86" r="6" class="st0"/><circle cx="582.82" cy="265.86" r="6" class="st0"/><circle cx="603.17" cy="243" r="6" class="st0"/><circle cx="645.82" cy="275.86" r="6" class="st0"/><circle cx="674.82" cy="233.86" r="6" class="st0"/><circle cx="702.82" cy="269.86" r="6" class="st0"/><circle cx="727.82" cy="255.86" r="6" class="st0"/><path d="m471.32 371.61-16.5 27.25s-4 2 5 2 278 2 278 2 7-1 5-6-19.47-28.22-19.47-28.22" class="st1"/><path d="M461.07 369.72s-5.25.14-10.25 4.14-29 36-29 36-.37.74.32 1.81c.91 1.43 3.69 3.47 11.68 5.19 14 3 103 1 103 1h213s21 0 23-5-35-45-35-45 5-5 6-9 1-60 1-60l2-54v-52s1-14-10-16-67-2-67-2l-66 1h-78l-56-2s-17 2-18 20-1 63-1 63v39l-1 34s0 11 1 19 2 15 5 18 11 5 13 5h130l102-1 37-3" class="st2"/><path d="M422.14 411.67s-2.32 5.19.68 10.19 16 5 16 5l317 3s17 0 17-17m-229.46-11.63-6.54 16.63m114.29-15.48 4.62 15.02m-137.91-16.54 2-7h152l2.18 8.28" class="st2"/><circle cx="478.82" cy="193.11" r="3.25" class="st2"/><circle cx="490.2" cy="193.11" r="3.25" class="st2"/><circle cx="501.57" cy="193.11" r="3.25" class="st2"/><path d="m473.82 289.86 17.19-24.53m6.42-1.35 11.15 11.82m9.46-.33 14.19-15.88m5.74-1.01 22.63 34.45m5.75 0 13.51-21.96m6.42-9.79 12.5-13.85m9.12-1.02 33.78 24.66m8.11.34 22.63-32.77m5.07.34 20.6 26.01m9.46 1.35 15.2-7.09m398.07-48.39s2 87 1 98-1 47-1 47-2 6-9 6h-256s-7 1-9-9-2-143-2-143m1.5-11 274 1m-275.5 10s0-18 7-21 20-1 20-1 220-4 229-3 17 0 18 4 2 22 2 22" class="st2"/><circle cx="858.82" cy="295.86" r="6" class="st0"/><circle cx="878.82" cy="259.86" r="6" class="st0"/><circle cx="898.82" cy="279.86" r="6" class="st0"/><circle cx="919.82" cy="253.86" r="6" class="st0"/><circle cx="948.82" cy="298.86" r="6" class="st0"/><circle cx="967.82" cy="265.86" r="6" class="st0"/><circle cx="988.17" cy="243" r="6" class="st0"/><circle cx="1030.82" cy="275.86" r="6" class="st0"/><circle cx="1059.82" cy="233.86" r="6" class="st0"/><circle cx="1087.82" cy="269.86" r="6" class="st0"/><circle cx="1112.82" cy="255.86" r="6" class="st0"/><path d="m856.32 371.61-16.5 27.25s-4 2 5 2 278 2 278 2 7-1 5-6-19.47-28.22-19.47-28.22" class="st1"/><path d="M846.07 369.72s-5.25.14-10.25 4.14-29 36-29 36-.37.74.32 1.81c.91 1.43 3.69 3.47 11.68 5.19 14 3 103 1 103 1h213s21 0 23-5-35-45-35-45 5-5 6-9 1-60 1-60l2-54v-52s1-14-10-16-67-2-67-2l-66 1h-78l-56-2s-17 2-18 20-1 63-1 63v39l-1 34s0 11 1 19 2 15 5 18 11 5 13 5h130l102-1 37-3" class="st2"/><path d="M807.14 411.67s-2.32 5.19.68 10.19 16 5 16 5l317 3s17 0 17-17m-229.46-11.63-6.54 16.63m114.29-15.48 4.62 15.02m-137.91-16.54 2-7h152l2.18 8.28" class="st2"/><circle cx="863.82" cy="193.11" r="3.25" class="st2"/><circle cx="875.2" cy="193.11" r="3.25" class="st2"/><circle cx="886.57" cy="193.11" r="3.25" class="st2"/><path d="m858.82 289.86 17.19-24.53m6.42-1.35 11.15 11.82m9.46-.33 14.19-15.88m5.74-1.01 22.63 34.45m5.75 0 13.51-21.96m6.42-9.79 12.5-13.85m9.12-1.02 33.78 24.66m8.11.34 22.63-32.77m5.07.34 20.6 26.01m9.46 1.35 15.2-7.09m-756.93-48.39s2 87 1 98-1 47-1 47-2 6-9 6h-256s-7 1-9-9-2-143-2-143m1.5-11 274 1m-275.5 10s0-18 7-21 20-1 20-1 220-4 229-3 17 0 18 4 2 22 2 22" class="st2"/><circle cx="88.82" cy="295.86" r="6" class="st0"/><circle cx="108.82" cy="259.86" r="6" class="st0"/><circle cx="128.82" cy="279.86" r="6" class="st0"/><circle cx="149.82" cy="253.86" r="6" class="st0"/><circle cx="178.82" cy="298.86" r="6" class="st0"/><circle cx="197.82" cy="265.86" r="6" class="st0"/><circle cx="218.17" cy="243" r="6" class="st0"/><circle cx="260.82" cy="275.86" r="6" class="st0"/><circle cx="289.82" cy="233.86" r="6" class="st0"/><circle cx="317.82" cy="269.86" r="6" class="st0"/><circle cx="342.82" cy="255.86" r="6" class="st0"/><path d="m86.32 371.61-16.5 27.25s-4 2 5 2 278 2 278 2 7-1 5-6-19.47-28.22-19.47-28.22" class="st1"/><path d="M76.07 369.72s-5.25.14-10.25 4.14-29 36-29 36-.37.74.32 1.81c.91 1.43 3.69 3.47 11.68 5.19 14 3 103 1 103 1h213s21 0 23-5-35-45-35-45 5-5 6-9 1-60 1-60l2-54v-52s1-14-10-16-67-2-67-2l-66 1h-78l-56-2s-17 2-18 20-1 63-1 63v39l-1 34s0 11 1 19 2 15 5 18 11 5 13 5h130l102-1 37-3" class="st2"/><path d="M37.14 411.67s-2.32 5.19.68 10.19 16 5 16 5l317 3s17 0 17-17m-229.46-11.63-6.54 16.63m114.29-15.48 4.62 15.02m-137.91-16.54 2-7h152l2.18 8.28" class="st2"/><circle cx="93.82" cy="193.11" r="3.25" class="st2"/><circle cx="105.2" cy="193.11" r="3.25" class="st2"/><circle cx="116.57" cy="193.11" r="3.25" class="st2"/><path d="m88.82 289.86 17.19-24.53m6.42-1.35 11.15 11.82m9.46-.33 14.19-15.88m5.74-1.01 22.63 34.45m5.75 0 13.51-21.96m6.42-9.79 12.5-13.85m9.12-1.02 33.78 24.66m8.11.34 22.63-32.77m5.07.34 20.6 26.01m9.46 1.35 15.2-7.09" class="st2"/></svg>