<svg xmlns="http://www.w3.org/2000/svg" viewBox="0 0 1200 630"><defs><style>.st0,.st1{fill:#74a0d1}.st1,.st3,.st4,.st5{stroke:#000;stroke-miterlimit:10}.st1,.st3,.st5{stroke-width:3px}.st3{fill:#366da6}.st4{stroke-width:2px}.st4,.st5{fill:none}</style></defs><g id="Layer_2"><path d="M349 163s17 30 22 35l9 9" style="stroke:#000;stroke-miterlimit:10;stroke-width:3px;fill:#fff"/><path d="M348 393s20-23 23-31 7-30 8-32m91 22s8 13 20 17 38 10 48 14 12 0 16 9 8 18 5 27-7 20-7 27v11m14.5-140.5s23-27 27-32 27-10 33-11 14-1 18 0 4-2 7-4 21-9 23-23 3-19 4-25 5-14 8-16 8-8 8-8m-124 259s-1-7-1-11 1-9 3-14 3-12 6-21-1-11-5-21-9-19-9-19 30-25 36-35 12-27 29-21 30 20 32 24 15 23 41 28 42 7 49 0m-2-169s-13 10-18 11-25 5-29 7-7 9-8 14-5 31-8 39-18 17-18 17 7-6 13 6-2 16 18 28c10.68 6.41 20.79 9.11 27.89 10.23 5.75.91 11.55-1.13 15.52-5.38 2.08-2.23 4.88-5.14 8.59-8.85" class="st5"/><path d="M622.5 294.5c2-1 23-3 28 1M595 308s8-15 15-17m-34 56s14-23 17-24m-24 13 12-12m115 18s19 7 23 7m10 10s13 1 15-1m5-14c4-5 5-8 5-8m-98-29 9 4m-53-2s15-9 21-5m11-21s19 7 21 14m5-27c6-8 10-15 10-15m-30 57s19 13 22 22m-120 28s7 3 10 1m-69-10s34 9 39 12m5 8c13 4 15 5 15 5m16 28c-1 8-6 23-6 23m145-223s-15 3-16 6m-333-15s7 25 13 29 7 5 7 5m-8 8s4 7 6 7m-11 7 12 8m-16-21s2 5 4 6m-1 12s-9 13-9 18m5 2c3-5 12-10 12-10m-22 45s5-2 9-8 4-15 8-17 11-8 11-8m-1 17s-12 21-14 34-8 30-9 33" class="st4"/><path d="M352 324s18-22 20-23 3.9-1.32 3.9-1.32" class="st4"/></g><g id="Layer_3"><path d="M383.23 350.17c-1.49-1.49-3.73-6.71-3.73-6.71l-.75-111.14s0-34.31 2.24-41.77 17.16-5.22 17.16-5.22 54.45-1.49 57.44-1.49 9.7 5.97 11.93 11.19c2.24 5.22 16.41 4.48 16.41 4.48l71.61-.75s16.41 0 17.16 10.44.46 15.31.46 15.31" class="st3"/><path d="M552.25 345.34a4.66 4.66 0 0 1-4.04 2.72l-87.4 3.61s-63.4 3.73-70.86 2.24-5.97-10.44-5.97-10.44l2.98-14.92s15.66-64.15 19.39-81.3 11.93-17.16 11.93-17.16l179.02-6.71s6.71 1.49 5.97 6.71c-.68 4.75-43.32 98.37-51.03 115.26Z" class="st3"/><path d="M497.35 257.68s5.22 5.97 10.44 5.97 11.19-4.48 11.19-6.71m-38.04-7.46s-1.49-3.73 2.98-5.22 5.97 5.22 5.97 5.22m38.79-2.24c0-2.98 1.49-5.22 3.73-5.22s5.22 4.48 5.22 5.22" class="st5"/><path d="M831.51 81.57c.08 5.14-2.25 23.93-4.06 37.58l-.73-.46.31-3.66s-.13-8.35-1.94-16.66c-1.8-8.32-3.45-6.62-3.45-6.62s-141.93-1.07-145.27-1.01-6.57 6.78-8.19 10.15c-.76 1.58-3.64 8.36-6.5 15.1-.18.44-.37.86-.55 1.29-3.01 7.14-5.82 13.87-5.82 13.87l-.67-41.73-.05-3.34s-1.86-11.66 6.52-10.12c8.37 1.54 91.83.2 91.83.2l60.12.71 10.01-.16s8.29-3.47 8.43 4.87Zm-2.72 38.44-2.24 5.86c.29-2.01.58-4.28.91-6.73l1.33.86Z" class="st1"/><path d="m826.73 118.7.73.46c-.33 2.44-.63 4.72-.91 6.73l-.3.79h-.18l.67-7.97Zm-3-1.94 3 1.94-.67 7.97-9.13.28h-.05c-.48-.04-.94-.05-1.34-.04-1.15.02-2.92.05-4.8.23l-32.81.96c.63-2.53 2.49-5.25 2.45-7.3-.05-3.34 6.57-6.78 9.88-8.51s16.69-.27 21.7-.35 11.76 4.82 11.76 4.82Z" class="st1"/><path d="m826.24 126.67.3-.79c-.03.27-.06.54-.1.79zm0 0h.2c-.52 3.95-.91 6.69-1 7.29l.56-6.64z" class="st1"/><path d="m826.24 126.67-.24.65.06-.65z" class="st1"/><path d="m826.06 126.67-.06.65-.42 1.09s-5.13-1.2-8.66-1.46l9.13-.28Z" class="st1"/><path d="m825.58 128.41.42-1.09-.56 6.64v.03l-24.8.85c1.33-2.43.15-1.35 1.6-4.38 1.05-2.2 4.98-3.02 8.49-3.32l6.14-.18h.05c3.53.26 8.66 1.46 8.66 1.46Z" class="st1"/><path d="m777.93 128.09 32.81-.96c-3.52.31-7.45 1.12-8.49 3.32-1.45 3.03-.27 1.96-1.6 4.38l-18.89.65c-.95-1.04-1.9-2.07-2.85-2.99-1.31-1.26-1.38-2.8-.97-4.41Zm3.82 7.4 18.89-.65c-.15.27-.32.59-.55.96-2.2 3.67-7.7 4.83-11.04 4.88-2.4.04-4.85-2.53-7.3-5.19Z" class="st1"/><path d="m781.75 135.49-77.46 2.68c2.18-2.49 2.66-4.88 2.74-7.99l70.89-2.09c-.41 1.61-.33 3.14.97 4.41.95.92 1.9 1.96 2.85 2.99Z" style="fill:#fff"/><path d="m827.46 119.15 1.33.86" class="st1"/><path d="M831.51 81.57c.07 4.66-1.84 20.5-3.54 33.58l-.94-.12s-.13-8.35-1.94-16.66c-1.8-8.32-3.45-6.62-3.45-6.62s-141.93-1.07-145.27-1.01-6.57 6.78-8.19 10.15c-.76 1.58-3.64 8.36-6.5 15.1-.18.44-.37.86-.55 1.29-3.01 7.14-5.82 13.87-5.82 13.87l-.13-8.35-.59-36.72s-1.86-11.66 6.52-10.12c8.37 1.54 91.83.2 91.83.2l60.12.71 10.01-.16s8.29-3.47 8.43 4.87Z" class="st0"/><path d="m827.04 115.03.94.12c-.18 1.37-.34 2.71-.52 4-.33 2.44-.63 4.72-.91 6.73-.03.27-.06.54-.1.79-.52 3.95-.91 6.69-1 7.3v.05c-.02 1.92-.54 57.91-2.12 61.22-1.62 3.36-6.62 3.45-6.62 3.45s-150.28-.93-156.98-2.5c-6.7-1.56-5.06-3.26-5.06-3.26l.55-70.13.13 8.35s2.81-6.72 5.82-13.87c.18-.44.37-.86.55-1.29 2.86-6.74 5.74-13.52 6.5-15.1 1.62-3.36 4.85-10.09 8.19-10.15s145.27 1.01 145.27 1.01 1.64-1.7 3.45 6.62c1.8 8.32 1.94 16.66 1.94 16.66Z" class="st0"/><path d="m655.2 122.79-.59-36.72s-1.86-11.66 6.52-10.12c8.37 1.54 91.83.2 91.83.2l60.12.71 10.01-.16s8.29-3.47 8.43 4.87c.07 4.66-1.84 20.5-3.54 33.58-.18 1.37-.34 2.71-.52 4-.33 2.44-.63 4.72-.91 6.73-.03.27-.06.54-.1.79-.52 3.95-.91 6.69-1 7.3v.05c-.02 1.92-.54 57.91-2.12 61.22-1.62 3.36-6.62 3.45-6.62 3.45s-150.28-.93-156.98-2.5c-6.7-1.56-5.06-3.26-5.06-3.26l.55-70.13Z" class="st5"/><path d="m655.2 122.79.13 8.35s2.81-6.72 5.82-13.87c.18-.44.37-.86.55-1.29 2.86-6.74 5.74-13.52 6.5-15.1 1.62-3.36 4.85-10.09 8.19-10.15s145.27 1.01 145.27 1.01 1.64-1.7 3.45 6.62c1.8 8.32 1.94 16.66 1.94 16.66" class="st5"/><path d="m825.44 134.01-.02.08" class="st1"/><path d="M741.19 132.97s3.69 4.08 7.29 4.02 7.71-3.23 7.69-4.78m-26.43-4.73s-1.08-2.57 2.01-3.66c3.07-1.08 4.18 3.56 4.18 3.56m26.85-1.98c-.03-2.07.98-3.64 2.53-3.66s3.66 3.05 3.66 3.56" class="st5"/><path d="M690.71 462.91c.08 5.14-2.25 23.93-4.06 37.58l-.73-.46.31-3.66s-.13-8.35-1.94-16.66c-1.8-8.32-3.45-6.62-3.45-6.62s-141.93-1.07-145.27-1.01-6.57 6.78-8.19 10.15c-.76 1.58-3.64 8.36-6.5 15.1-.18.44-.37.86-.55 1.29-3.01 7.14-5.82 13.87-5.82 13.87l-.67-41.73-.05-3.34s-1.86-11.66 6.52-10.12c8.37 1.54 91.83.2 91.83.2l60.12.71 10.01-.16s8.29-3.47 8.43 4.87Zm-2.72 38.44-2.24 5.86c.29-2.01.58-4.28.91-6.73l1.33.86Z" class="st0"/><path d="m685.93 500.03.73.46c-.33 2.44-.63 4.72-.91 6.73l-.3.79h-.18l.67-7.97Z" class="st0"/><path d="m682.93 498.1 3 1.94-.67 7.97-9.13.28h-.05c-.48-.04-.94-.05-1.34-.04-1.15.02-2.92.05-4.8.23l-32.81.96c.63-2.53 2.49-5.25 2.45-7.3-.05-3.34 6.57-6.78 9.88-8.51s16.69-.27 21.7-.35 11.76 4.82 11.76 4.82Zm2.51 9.91.3-.79c-.03.27-.06.54-.1.79z" class="st0"/><path d="M685.44 508.01h.2c-.52 3.95-.91 6.69-1 7.29l.56-6.64z" class="st0"/><path d="m685.44 508.01-.24.65.06-.65z" class="st0"/><path d="m685.26 508.01-.06.65-.42 1.09s-5.13-1.2-8.66-1.46l9.13-.28Z" class="st0"/><path d="m684.79 509.75.42-1.09-.56 6.64v.03l-24.8.85c1.33-2.43.15-1.35 1.6-4.38 1.05-2.2 4.98-3.02 8.49-3.32l6.14-.18h.05c3.53.26 8.66 1.46 8.66 1.46Z" class="st0"/><path d="m637.13 509.43 32.81-.96c-3.52.31-7.45 1.12-8.49 3.32-1.45 3.03-.27 1.96-1.6 4.38l-18.89.65c-.95-1.04-1.9-2.07-2.85-2.99-1.31-1.26-1.38-2.8-.97-4.41Zm3.83 7.4 18.89-.65c-.15.27-.32.59-.55.96-2.2 3.67-7.7 4.83-11.04 4.88-2.4.04-4.85-2.53-7.3-5.19" class="st0"/><path d="m640.96 516.83-77.46 2.68c2.18-2.49 2.66-4.88 2.74-7.99l70.89-2.09c-.41 1.61-.33 3.14.97 4.41.95.92 1.9 1.96 2.85 2.99Zm45.7-16.34 1.33.86m2.72-38.44c.07 4.66-1.84 20.5-3.54 33.58l-.94-.12s-.13-8.35-1.94-16.66c-1.8-8.32-3.45-6.62-3.45-6.62s-141.93-1.07-145.27-1.01c-3.34.05-6.57 6.78-8.19 10.15-.76 1.58-3.64 8.36-6.5 15.1-.18.44-.37.86-.55 1.29-3.01 7.14-5.82 13.87-5.82 13.87l-.13-8.35-.59-36.72s-1.86-11.66 6.52-10.12 91.83.2 91.83.2l60.12.71 10.01-.16s8.29-3.47 8.43 4.87Z" class="st0"/><path d="m686.23 496.37.94.12c-.18 1.37-.34 2.71-.52 4-.33 2.44-.63 4.72-.91 6.73-.03.27-.06.54-.1.79-.52 3.95-.91 6.69-1 7.3v.05c-.02 1.92-.54 57.91-2.12 61.22-1.62 3.36-6.62 3.45-6.62 3.45s-150.28-.93-156.98-2.5-5.06-3.26-5.06-3.26l.55-70.13.13 8.35s2.81-6.72 5.82-13.87c.18-.44.37-.86.55-1.29 2.86-6.74 5.74-13.52 6.5-15.1 1.62-3.36 4.85-10.09 8.19-10.15 3.34-.05 145.27 1.01 145.27 1.01s1.64-1.7 3.45 6.62c1.8 8.32 1.94 16.66 1.94 16.66Z" class="st0"/><path d="m514.39 504.13-.59-36.72s-1.86-11.66 6.52-10.12 91.83.2 91.83.2l60.12.71 10.01-.16s8.29-3.47 8.43 4.87c.07 4.66-1.84 20.5-3.54 33.58-.18 1.37-.34 2.71-.52 4-.33 2.44-.63 4.72-.91 6.73-.03.27-.06.54-.1.79-.52 3.95-.91 6.69-1 7.3v.05c-.02 1.92-.54 57.91-2.12 61.22-1.62 3.36-6.62 3.45-6.62 3.45s-150.28-.93-156.98-2.5-5.06-3.26-5.06-3.26l.55-70.13Z" class="st5"/><path d="m514.39 504.13.13 8.35s2.81-6.72 5.82-13.87c.18-.44.37-.86.55-1.29 2.86-6.74 5.74-13.52 6.5-15.1 1.62-3.36 4.85-10.09 8.19-10.15 3.34-.05 145.27 1.01 145.27 1.01s1.64-1.7 3.45 6.62c1.8 8.32 1.94 16.66 1.94 16.66" class="st5"/><path d="m684.64 515.35-.01.08" class="st0"/><path d="M600.39 514.31s3.69 4.08 7.29 4.02 7.71-3.23 7.69-4.78m-26.43-4.73s-1.08-2.57 2.01-3.66c3.07-1.08 4.18 3.56 4.18 3.56m26.85-1.99c-.03-2.07.98-3.64 2.53-3.66s3.66 3.05 3.66 3.56" class="st5"/></g></svg>