<svg xmlns="http://www.w3.org/2000/svg" id="Layer_3" viewBox="0 0 1200 630"><defs><style>.st0{fill:#99badd}.st1,.st2{fill:#fff}.st1,.st3,.st4{stroke:#000;stroke-miterlimit:10;stroke-width:3px}.st3{fill:#366da6}.st4{fill:none}</style></defs><path d="M330.5 343.5c-2-2-5-9-5-9l-1-149s0-46 3-56 23-7 23-7 73-2 77-2 13 8 16 15 22 6 22 6l96-1s22 0 23 14 .61 20.53.61 20.53" class="st3"/><path d="m494.5 339.5-60 6s-85 5-95 3-8-14-8-14l4-20s21-86 26-109 16-23 16-23l240-9s9 2 8 9-50 101-50 101" class="st3"/><path d="M388.42 348.77s8.08 52.73 7.08 63.73-4 66-4 66 5 13 23 14 31 1 32-4-10-19-12-21 8.23-117.73 6.61-121.86m19.31-1.05s4.08 54.91 4.08 66.91-5 56-5 56-3 9 7 12 28 6 28 6m-.17-149.78 1.17 154.78 9 6" class="st4"/><path d="M514.5 257.5s18-5 22-1 35 25 36 32 2 253 2 253h-15" class="st1"/><path d="m574.16 502.16 282.24-7.5 6.1-.16-1-15-286.82 5.96" class="st4"/><path d="m856.4 494.66-.9 33.84 6 4 1-38" class="st4"/><path d="m795.5 321.5-1-49s4-19 14-19c0 0 5-3 25-1s43 36 43 36l1 244h-16" class="st4"/><path d="M808.5 253.5s52 16 53 35 0 191 0 191M597.37 345.11C599 390 598 436 598.47 480.93m12.21-136.6C610 389 610 435 609.53 480.4m27.76-136.07C637 389 639 435 638.05 480.12m10.19-135.79C649 389 649 435 649.75 479.72m25.89-135.39C676 389 678 434 677.46 479.03M789.9 341.98c.1 45.02.1 89.02.76 134.44m11.76-132.87c1.58 44.45.58 88.45.76 132.66m24.28-133.44C827 387 827 432 826.7 475.6" class="st4"/><path d="M837.64 341.98C837 386 839 431 839.16 475.49M587.5 302.5v24.91m0 17.09-1 51.5m61-95.5c-.08 8.56-.17 17.13-.25 25.69m12.99-24.9v25.29m-20.81 113.88C628 437 616 434 609.53 423.22m68.51 22.74c-9.85-.85-19.81-1.01-29.5-3.15m65.43 3.97c-8.31.43-16.64.48-24.95.09m64.61-4.33c-9.79 1.67-19.65 2.92-29.56 3.54m66.76-11.58c-8.99 2.31-18.03 4.44-27.14 6.18m38.86-71.19c9.8 7.75 19.7 16.92 24 28.98 2.93 8.21 4.49 20.58-3.57 26.49-5.61 4.12-13.36 4.75-19.93 6.32m-21.76-75.73c2.97 1.61 5.89 3.32 8.75 5.12" class="st4"/><path d="m574.68 480.24 281.82-6.74-1.13-131.52M483.5 219.5s7 8 14 8 15-6 15-9m-51-10s-2-5 4-7 8 7 8 7m52-3c0-4 2-7 5-7s7 6 7 7" class="st4"/><path d="M495.5 295.5s-2-21-1-24 6-13 11-14 15-1 25 7 28 27 28 27l1 250-9-4 1-42-48-39 1 40 12 1v-32" class="st1"/><path d="M401.5 244.5s22 34 42 43 35 13 35 13 11-4 15-4 10 2 7 5l-5 5c-1 1 4 2 7 4s4 2 7 7 3 9 1 12-6 5-9 7c-5.49 3.66-21.23.8-28-3-6.64-3.73-34-15-43-22s-33-21-41-34-13-20-13-20" class="st1"/><path d="M611.5 301c-.28 8.64-.57 17.29-.85 25.93" class="st4"/><path d="M623.5 301.5v25.34m-53.74-42.34 223.74-5" class="st1"/><path d="M859.5 322.5v4l-72.14 1.34v-.02c.06-.36.32-2 .67-4.36z" class="st2"/><path d="M791.5 296.5c0 3.08-1.58 14.31-2.79 22.47l-.43-.28.22-2.19s0-5-1-10-2-4-2-4-85-2-87-2-4 4-5 6c-.47.94-2.26 4.97-4.04 8.98-.11.26-.23.51-.34.77-1.87 4.25-3.62 8.25-3.62 8.25v-27s-1-7 4-6 55 1 55 1l36 1h6s5-2 5 3" class="st0"/><path d="m789.5 319.5-1.4 3.49c.19-1.2.39-2.56.61-4.02z" class="st2"/><path d="m788.28 318.69.43.28c-.22 1.46-.42 2.82-.61 4.02l-.19.47h-.11zm.22-2.19-.22 2.19-1.78-1.19s-4-3-7-3-11-1-13 0-6 3-6 5c0 1.23-1.14 2.84-1.54 4.35l-42.48.57c.02-.59.02-1.23.02-1.92 0-3-4-5-7-7s-20 0-20 0l-.04-.02c1.78-4.01 3.57-8.04 4.04-8.98 1-2 3-6 5-6s87 2 87 2 1-1 2 4 1 10 1 10" class="st0"/><path d="m786.5 317.5 1.78 1.19-.48 4.77-5.47.08h-.03c-.29-.03-.56-.04-.8-.04-.69 0-1.75 0-2.88.09l-19.66.26c.4-1.51 1.54-3.12 1.54-4.35 0-2 4-4 6-5s10 0 13 0 7 3 7 3" class="st2"/><path d="m787.91 323.46.19-.47c-.02.16-.04.32-.07.47zm0 0h.12c-.35 2.36-.61 4-.67 4.36l.4-3.97z" class="st0"/><path d="m787.91 323.46-.15.39.04-.39z" class="st0"/><path d="m787.8 323.46-.04.39-.26.65s-3.06-.77-5.17-.96z" class="st2"/><path d="m787.5 324.5.26-.65-.4 3.97v.02l-14.86.27c.82-1.44.1-.81 1-2.61.65-1.31 3.01-1.76 5.12-1.91l3.68-.05h.03c2.11.19 5.17.96 5.17.96" class="st2"/><path d="M784.93 342.45v.58s-8.43 25.47-11.43 26.47-8.91-.91-8.91-.91h-.68c-.11-8.35-.3-16.7-.62-25.04v-.83z" class="st0"/><path d="m758.96 323.85 19.66-.26c-2.11.15-4.47.6-5.12 1.91-.9 1.8-.18 1.17-1 2.61l-11.32.21c-.56-.63-1.12-1.26-1.68-1.82-.77-.77-.8-1.69-.54-2.65" class="st2"/><path d="m761.18 328.32 11.32-.21c-.09.16-.2.35-.34.57-1.35 2.18-4.66 2.82-6.66 2.82-1.44 0-2.88-1.56-4.32-3.18m0 0-46.42.86c1.33-1.47 1.64-2.9 1.72-4.76l42.48-.57c-.26.96-.23 1.88.54 2.65.56.56 1.12 1.19 1.68 1.82" class="st2"/><path d="m733.5 366.23-8.04-.77h-.49c0-7.41-.02-14.83-.03-22.26l27.38-.34v.69c.32 8.15.53 16.32.68 24.51h-.41l-5-.47z" class="st0"/><path d="M716.5 322.5c0 .69 0 1.33-.02 1.92l-24.13.33c-3.21-.03-6.02.02-6.02.02l3.17-9.27s17-2 20 0 7 4 7 7" class="st2"/><path d="m692.35 324.75 24.13-.33c-.08 1.86-.39 3.29-1.72 4.76l-9.18.17c-1.72-1.49-3.47-3.24-4.08-3.85-.56-.56-5.16-.72-9.15-.75" class="st2"/><path d="M714.76 329.18c-.07.09-.16.19-.25.28-2.01 2.04-4.01 3.04-6.01 2.04-.77-.39-1.84-1.22-2.92-2.15z" class="st2"/><path d="M713.2 343.35v.2c-.03 7.12-.06 14.21-.08 21.27-3.7-.52-18.27-2.68-22.61-5.1h-.7l-.09-16.07z" class="st0"/><path d="m682.07 324.89 10.28-.14c3.99.03 8.59.19 9.15.75.61.61 2.36 2.36 4.08 3.85l-132.47 2.46 1.57-5.48z" class="st2"/><path d="m573.11 345.11 116.61-1.46 23.48-.3 11.74-.15 27.38-.34 10.96-.14 21.65-.27 75.57-.95" class="st4"/><path d="M689.72 343.55v.1l.09 16.07c.01 1.58.01 3.16.02 4.74.16 38.36.09 76.42-.33 114.36m23.7-135.27c-.03 7.12-.06 14.21-.08 21.27-.02 6.85-.04 13.67-.04 20.48-.03 31 .07 61.72.41 93.12m11.45-135.65v.43l.03 22.26c.01 9.33.03 18.65.05 27.97.08 28.23.24 56.41.68 84.59m26.63-134.47c.31 8.15.52 16.32.67 24.51.68 36.42.09 73.06.47 109.22m9.82-133.73c.32 8.34.51 16.69.62 25.05.5 36.24-.43 72.65 1.63 108.38m-83.9-176.21c.14 8.04.29 16.07.43 24.12" class="st4"/><path d="M690.51 359.72c4.34 2.42 18.91 4.58 22.61 5.1.55.08.86.12.86.12m11.48.52 8.04.77 14.09 1.36 5 .48m12 .52s5.91 1.91 8.91.91 11.44-26.47 11.44-26.47m-50.03-26.61s2.17 2.48 4.33 2.48 4.65-1.86 4.65-2.79m-15.79-3.09s-.62-1.55 1.24-2.17c1.85-.62 2.47 2.17 2.47 2.17m16.1-.93c0-1.24.62-2.17 1.55-2.17s2.16 1.86 2.16 2.17" class="st4"/><path d="M747.5 368.5s-1 12-1 17 0 9-4 10-10 4-11 2c-.58-1.15-1.15-2.64-1.15-4.08 0-1.05.3-2.07 1.15-2.92 2-2 2-4 2-7v-18m-32-1s-.28.28-.55 1.45c-.23 1.02-.45 2.74-.45 5.55 0 6 0 9 2 11s3 3 5 3c1.79 0 4.93-.17 5.58-.2h.12m-113.92 30.02c-7.42-5.51-15.06-10.74-22.78-15.82 31.96-12.67 64.91-25.25 98.63-32.37 4.66-.98 9.71-2.33 14.7-2.67 3.3-.22 6.57-.01 9.67 1.04m6.08-36.15-132.47 2.46m188.07-3.49-46.42.86m73.27-5.72 71.47-.96v4l-72.14 1.34-14.86.27m6.12-4.52 3.68-.05m-65.82.88 42.48-.57m-184.28 2.48 107.39-1.44 10.28-.14" class="st4"/><path d="M689.5 315.5s17-2 20 0 7 4 7 7c0 .69 0 1.33-.02 1.92-.08 1.86-.39 3.29-1.72 4.76-.07.09-.16.19-.25.28-2.01 2.04-4.01 3.04-6.01 2.04-.77-.39-1.84-1.22-2.92-2.15-1.72-1.49-3.47-3.24-4.08-3.85-.56-.56-5.16-.72-9.15-.75-3.21-.03-6.02.02-6.02.02m102.38-5.8.79.53m-2 5s-3.06-.77-5.17-.96h-.03c-.29-.03-.56-.04-.8-.04-.69 0-1.75 0-2.88.09-2.11.15-4.47.6-5.12 1.91-.9 1.8-.18 1.17-1 2.61-.09.16-.2.35-.34.57-1.35 2.18-4.66 2.82-6.66 2.82-1.44 0-2.88-1.56-4.32-3.18-.56-.63-1.12-1.26-1.68-1.82-.77-.77-.8-1.69-.54-2.65.4-1.51 1.54-3.12 1.54-4.35 0-2 4-4 6-5s10 0 13 0 7 3 7 3l1.78 1.19" class="st4"/><path d="M787.36 327.82c.06-.36.32-2 .67-4.36.03-.15.05-.31.07-.47.19-1.2.39-2.56.61-4.02 1.21-8.16 2.79-19.39 2.79-22.47 0-5-5-3-5-3h-6l-36-1s-50 0-55-1-4 6-4 6v27s1.75-4 3.62-8.25c.11-.26.23-.51.34-.77 1.78-4.01 3.57-8.04 4.04-8.98 1-2 3-6 5-6s87 2 87 2 1-1 2 4 1 10 1 10m-1.14 11.32v.02l-.01.06m-213.71-26.61 111.86-1.79" class="st4"/><path d="m572.5 288.5 61-1 87-1 73.83-1.39m44.61 126.53s15.56 14.86 17.56 16.86" class="st1"/></svg>