<svg xmlns="http://www.w3.org/2000/svg" id="Layer_3" viewBox="0 0 1200 630"><defs><style>.st0{fill:#99badd}.st1{fill:#fff}.st2,.st3{fill:#366da6;stroke:#000;stroke-miterlimit:10;stroke-width:3px}.st3{fill:none}</style></defs><path d="M528.23 275.17c-1.49-1.49-3.73-6.71-3.73-6.71l-.75-111.14s0-34.31 2.24-41.77 17.16-5.22 17.16-5.22 54.45-1.49 57.44-1.49 9.7 5.97 11.93 11.19c2.24 5.22 16.41 4.48 16.41 4.48l71.61-.75s16.41 0 17.16 10.44.46 15.31.46 15.31" class="st2"/><path d="M697.25 270.34a4.66 4.66 0 0 1-4.04 2.72l-87.4 3.61s-63.4 3.73-70.86 2.24-5.97-10.44-5.97-10.44l2.98-14.92s15.66-64.15 19.39-81.3 11.93-17.16 11.93-17.16l179.02-6.71s6.71 1.49 5.97 6.71c-.68 4.75-43.32 98.37-51.03 115.26Z" class="st2"/><path d="M642.35 182.68s5.22 5.97 10.44 5.97 11.19-4.48 11.19-6.71m-38.04-7.46s-1.49-3.73 2.98-5.22 5.97 5.22 5.97 5.22m38.79-2.24c0-2.98 1.49-5.22 3.73-5.22s5.22 4.48 5.22 5.22" class="st3"/><path d="M402.37 467.68c-.11.15-.26.32-.41.47-3.3 3.46-6.61 5.18-9.98 3.57-1.3-.63-3.1-1.99-4.93-3.51z" class="st1"/><path d="M412.51 384.57c.08 5.14-2.25 23.93-4.06 37.58l-.73-.46.31-3.66s-.13-8.35-1.94-16.66c-1.8-8.32-3.45-6.62-3.45-6.62s-141.93-1.07-145.27-1.01-6.57 6.78-8.19 10.15c-.76 1.58-3.64 8.36-6.5 15.1-.18.44-.37.86-.55 1.29-3.01 7.14-5.82 13.87-5.82 13.87l-.67-41.73-.05-3.34s-1.86-11.66 6.52-10.12c8.37 1.54 91.83.2 91.83.2l60.12.71 10.01-.16s8.29-3.47 8.43 4.87Z" class="st0"/><path d="m409.79 423.01-2.24 5.86c.29-2.01.58-4.28.91-6.73l1.33.86Z" class="st1"/><path d="m407.73 421.7.73.46c-.33 2.44-.63 4.72-.91 6.73l-.3.79h-.18l.67-7.97Z" class="st0"/><path d="m404.73 419.76 3 1.94-.67 7.97-9.13.28h-.05c-.48-.04-.94-.05-1.34-.04-1.15.02-2.92.05-4.8.23l-32.81.96c.63-2.53 2.49-5.25 2.45-7.3-.05-3.34 6.57-6.78 9.88-8.51s16.69-.27 21.7-.35 11.76 4.82 11.76 4.82Z" class="st1"/><path d="m407.24 429.67.3-.79c-.03.27-.06.54-.1.79zm0 0h.2c-.52 3.95-.91 6.69-1 7.29l.56-6.64zm0 0-.24.65.06-.65z" class="st0"/><path d="m407.06 429.67-.06.65-.42 1.09s-5.13-1.2-8.66-1.46l9.13-.28Z" class="st1"/><path d="m406.58 431.41.42-1.09-.56 6.64v.03l-24.8.85c1.33-2.43.15-1.35 1.6-4.38 1.05-2.2 4.98-3.02 8.49-3.32l6.14-.18h.05c3.53.26 8.66 1.46 8.66 1.46Z" class="st1"/><path d="m358.93 431.09 32.81-.96c-3.52.31-7.45 1.12-8.49 3.32-1.45 3.03-.27 1.96-1.6 4.38l-18.89.65c-.95-1.04-1.9-2.07-2.85-2.99-1.31-1.26-1.38-2.8-.97-4.41Zm3.82 7.4 18.89-.65c-.15.27-.32.59-.55.96-2.2 3.67-7.7 4.83-11.04 4.88-2.4.04-4.85-2.53-7.3-5.19" class="st1"/><path d="m362.75 438.49-77.46 2.68c2.18-2.49 2.66-4.88 2.74-7.99l70.89-2.09c-.41 1.61-.33 3.14.97 4.41.95.92 1.9 1.96 2.85 2.99Zm107.78-79.89c.02 1.15.04 2.22.02 3.21l-40.27 1.2c-5.36.04-10.05.19-10.05.19l5.04-15.56s28.32-3.79 33.38-.53 11.79 6.49 11.87 11.5Z" class="st1"/><path d="m408.46 422.15 1.33.86" class="st3"/><path d="M412.51 384.57c.07 4.66-1.84 20.5-3.54 33.58l-.94-.12s-.13-8.35-1.94-16.66c-1.8-8.32-3.45-6.62-3.45-6.62s-141.93-1.07-145.27-1.01-6.57 6.78-8.19 10.15c-.76 1.58-3.64 8.36-6.5 15.1-.18.44-.37.86-.55 1.29-3.01 7.14-5.82 13.87-5.82 13.87l-.13-8.35-.59-36.72s-1.86-11.66 6.52-10.12c8.37 1.54 91.83.2 91.83.2l60.12.71 10.01-.16s8.29-3.47 8.43 4.87Z" class="st0"/><path d="m408.04 418.03.94.12c-.18 1.37-.34 2.71-.52 4-.33 2.44-.63 4.72-.91 6.73-.03.27-.06.54-.1.79-.52 3.95-.91 6.69-1 7.3v.05c-.02 1.92-.54 57.91-2.12 61.22-1.62 3.36-6.62 3.45-6.62 3.45s-150.28-.93-156.98-2.5c-6.7-1.56-5.06-3.26-5.06-3.26l.55-70.13.13 8.35s2.81-6.72 5.82-13.87c.18-.44.37-.86.55-1.29 2.86-6.74 5.74-13.52 6.5-15.1 1.62-3.36 4.85-10.09 8.19-10.15s145.27 1.01 145.27 1.01 1.64-1.7 3.45 6.62c1.8 8.32 1.94 16.66 1.94 16.66Z" class="st0"/><path d="m236.2 425.79-.59-36.72s-1.86-11.66 6.52-10.12c8.37 1.54 91.83.2 91.83.2l60.12.71 10.01-.16s8.29-3.47 8.43 4.87c.07 4.66-1.84 20.5-3.54 33.58-.18 1.37-.34 2.71-.52 4-.33 2.44-.63 4.72-.91 6.73-.03.27-.06.54-.1.79-.52 3.95-.91 6.69-1 7.3v.05c-.02 1.92-.54 57.91-2.12 61.22-1.62 3.36-6.62 3.45-6.62 3.45s-150.28-.93-156.98-2.5c-6.7-1.56-5.06-3.26-5.06-3.26l.55-70.13Z" class="st3"/><path d="m236.2 425.79.13 8.35s2.81-6.72 5.82-13.87c.18-.44.37-.86.55-1.29 2.86-6.74 5.74-13.52 6.5-15.1 1.62-3.36 4.85-10.09 8.19-10.15s145.27 1.01 145.27 1.01 1.64-1.7 3.45 6.62c1.8 8.32 1.94 16.66 1.94 16.66m-1.61 18.99-.02.08m-84.23-1.12s3.69 4.08 7.29 4.02 7.71-3.23 7.69-4.78" class="st3"/><path d="M310.74 430.48s-1.08-2.57 2.01-3.66c3.07-1.08 4.18 3.56 4.18 3.56m26.85-1.98c-.03-2.07.98-3.64 2.53-3.66s3.66 3.05 3.66 3.56" class="st3"/><path d="M705.71 386.91c.08 5.14-2.25 23.93-4.06 37.58l-.73-.46.31-3.66s-.13-8.35-1.94-16.66c-1.8-8.32-3.45-6.62-3.45-6.62s-141.93-1.07-145.27-1.01-6.57 6.78-8.19 10.15c-.76 1.58-3.64 8.36-6.5 15.1-.18.44-.37.86-.55 1.29-3.01 7.14-5.82 13.87-5.82 13.87l-.67-41.73-.05-3.34s-1.86-11.66 6.52-10.12c8.37 1.54 91.83.2 91.83.2l60.12.71 10.01-.16s8.29-3.47 8.43 4.87Z" class="st0"/><path d="m702.99 425.35-2.24 5.86c.29-2.01.58-4.28.91-6.73l1.33.86Z" class="st1"/><path d="m700.93 424.03.73.46c-.33 2.44-.63 4.72-.91 6.73l-.3.79h-.18l.67-7.97Z" class="st0"/><path d="m697.93 422.1 3 1.94-.67 7.97-9.13.28h-.05c-.48-.04-.94-.05-1.34-.04-1.15.02-2.92.05-4.8.23l-32.81.96c.63-2.53 2.49-5.25 2.45-7.3-.05-3.34 6.57-6.78 9.88-8.51s16.69-.27 21.7-.35 11.76 4.82 11.76 4.82Z" class="st1"/><path d="m700.44 432.01.3-.79c-.03.27-.06.54-.1.79zm0 0h.2c-.52 3.95-.91 6.69-1 7.29l.56-6.64zm0 0-.24.65.06-.65z" class="st0"/><path d="m700.26 432.01-.06.65-.42 1.09s-5.13-1.2-8.66-1.46l9.13-.28Z" class="st1"/><path d="m699.79 433.75.42-1.09-.56 6.64v.03l-24.8.85c1.33-2.43.15-1.35 1.6-4.38 1.05-2.2 4.98-3.02 8.49-3.32l6.14-.18h.05c3.53.26 8.66 1.46 8.66 1.46Z" class="st1"/><path d="m652.13 433.43 32.81-.96c-3.52.31-7.45 1.12-8.49 3.32-1.45 3.03-.27 1.96-1.6 4.38l-18.89.65c-.95-1.04-1.9-2.07-2.85-2.99-1.31-1.26-1.38-2.8-.97-4.41Zm3.83 7.4 18.89-.65c-.15.27-.32.59-.55.96-2.2 3.67-7.7 4.83-11.04 4.88-2.4.04-4.85-2.53-7.3-5.19" class="st1"/><path d="m655.96 440.83-77.46 2.68c2.18-2.49 2.66-4.88 2.74-7.99l70.89-2.09c-.41 1.61-.33 3.14.97 4.41.95.92 1.9 1.96 2.85 2.99Zm107.77-79.89c.02 1.15.04 2.22.02 3.21l-40.27 1.2c-5.36.04-10.05.19-10.05.19l5.04-15.56s28.32-3.79 33.38-.53 11.79 6.49 11.87 11.5Z" class="st1"/><path d="m701.66 424.49 1.33.86" class="st3"/><path d="M705.71 386.91c.07 4.66-1.84 20.5-3.54 33.58l-.94-.12s-.13-8.35-1.94-16.66-3.45-6.62-3.45-6.62-141.93-1.07-145.27-1.01c-3.34.05-6.57 6.78-8.19 10.15-.76 1.58-3.64 8.36-6.5 15.1-.18.44-.37.86-.55 1.29-3.01 7.14-5.82 13.87-5.82 13.87l-.13-8.35-.59-36.72s-1.86-11.66 6.52-10.12 91.83.2 91.83.2l60.12.71 10.01-.16s8.29-3.47 8.43 4.87Z" class="st0"/><path d="m701.23 420.37.94.12c-.18 1.37-.34 2.71-.52 4-.33 2.44-.63 4.72-.91 6.73-.03.27-.06.54-.1.79-.52 3.95-.91 6.69-1 7.3v.05c-.02 1.92-.54 57.91-2.12 61.22-1.62 3.36-6.62 3.45-6.62 3.45s-150.28-.93-156.98-2.5-5.06-3.26-5.06-3.26l.55-70.13.13 8.35s2.81-6.72 5.82-13.87c.18-.44.37-.86.55-1.29 2.86-6.74 5.74-13.52 6.5-15.1 1.62-3.36 4.85-10.09 8.19-10.15 3.34-.05 145.27 1.01 145.27 1.01s1.64-1.7 3.45 6.62 1.94 16.66 1.94 16.66Z" class="st0"/><path d="m529.39 428.13-.59-36.72s-1.86-11.66 6.52-10.12 91.83.2 91.83.2l60.12.71 10.01-.16s8.29-3.47 8.43 4.87c.07 4.66-1.84 20.5-3.54 33.58-.18 1.37-.34 2.71-.52 4-.33 2.44-.63 4.72-.91 6.73-.03.27-.06.54-.1.79-.52 3.95-.91 6.69-1 7.3v.05c-.02 1.92-.54 57.91-2.12 61.22-1.62 3.36-6.62 3.45-6.62 3.45s-150.28-.93-156.98-2.5-5.06-3.26-5.06-3.26l.55-70.13Z" class="st3"/><path d="m529.39 428.13.13 8.35s2.81-6.72 5.82-13.87c.18-.44.37-.86.55-1.29 2.86-6.74 5.74-13.52 6.5-15.1 1.62-3.36 4.85-10.09 8.19-10.15 3.34-.05 145.27 1.01 145.27 1.01s1.64-1.7 3.45 6.62 1.94 16.66 1.94 16.66m-1.6 18.99-.01.08m-84.24-1.12s3.69 4.08 7.29 4.02 7.71-3.23 7.69-4.78" class="st3"/><path d="M603.94 432.82s-1.08-2.57 2.01-3.66c3.07-1.08 4.18 3.56 4.18 3.56m26.85-1.99c-.03-2.07.98-3.64 2.53-3.66s3.66 3.05 3.66 3.56" class="st3"/><path d="M1000.98 385.52c.08 5.14-2.25 23.93-4.06 37.58l-.73-.46.31-3.66s-.13-8.35-1.94-16.66c-1.8-8.32-3.45-6.62-3.45-6.62s-141.93-1.07-145.27-1.01-6.57 6.78-8.19 10.15c-.76 1.58-3.64 8.36-6.5 15.1-.18.44-.37.86-.55 1.29-3.01 7.14-5.82 13.87-5.82 13.87l-.67-41.73-.05-3.34s-1.86-11.66 6.52-10.12c8.37 1.54 91.83.2 91.83.2l60.12.71 10.01-.16s8.29-3.47 8.43 4.87Z" class="st0"/><path d="m998.26 423.97-2.24 5.86c.29-2.01.58-4.28.91-6.73l1.33.86Z" class="st1"/><path d="m996.2 422.65.73.46c-.33 2.44-.63 4.72-.91 6.73l-.3.79h-.18l.67-7.97Z" class="st0"/><path d="m993.2 420.71 3 1.94-.67 7.97-9.13.28h-.05c-.48-.04-.94-.05-1.34-.04-1.15.02-2.92.05-4.8.23l-32.81.96c.63-2.53 2.49-5.25 2.45-7.3-.05-3.34 6.57-6.78 9.88-8.51 3.31-1.72 16.69-.27 21.7-.35s11.76 4.82 11.76 4.82Z" class="st1"/><path d="m995.71 430.62.3-.79c-.03.27-.06.54-.1.79zm0 0h.2c-.52 3.95-.91 6.69-1 7.29l.56-6.64z" class="st0"/><path d="m995.71 430.62-.24.66.06-.66z" class="st0"/><path d="m995.53 430.62-.06.65-.42 1.09s-5.13-1.2-8.66-1.46l9.13-.28Z" class="st1"/><path d="m995.05 432.37.42-1.09-.56 6.64v.03l-24.8.85c1.33-2.43.15-1.35 1.6-4.38 1.05-2.2 4.98-3.02 8.49-3.32l6.14-.18h.05c3.53.26 8.66 1.46 8.66 1.46Z" class="st1"/><path d="m947.4 432.04 32.81-.96c-3.52.31-7.45 1.12-8.49 3.32-1.45 3.03-.27 1.96-1.6 4.38l-18.89.65c-.95-1.04-1.9-2.07-2.85-2.99-1.31-1.26-1.38-2.8-.97-4.41Zm3.82 7.41 18.89-.65c-.15.27-.32.59-.55.96-2.2 3.67-7.7 4.83-11.04 4.88-2.4.04-4.85-2.53-7.3-5.19" class="st1"/><path d="m951.22 439.45-77.46 2.68c2.18-2.49 2.66-4.88 2.74-7.99l70.89-2.09c-.41 1.61-.33 3.14.97 4.41.95.92 1.9 1.96 2.85 2.99Zm107.78-79.9c.02 1.15.04 2.22.02 3.21l-40.27 1.2c-5.36.04-10.05.19-10.05.19l5.04-15.56s28.32-3.79 33.38-.53 11.79 6.49 11.87 11.5Z" class="st1"/><path d="m996.92 423.1 1.34.87" class="st3"/><path d="M1000.99 385.52c.07 4.66-1.84 20.5-3.54 33.58l-.94-.12s-.13-8.35-1.94-16.66c-1.8-8.32-3.45-6.62-3.45-6.62s-141.93-1.07-145.27-1.01c-3.34.05-6.57 6.78-8.19 10.15-.76 1.58-3.64 8.36-6.5 15.1-.18.44-.37.86-.55 1.29-3.01 7.14-5.82 13.87-5.82 13.87l-.13-8.35-.59-36.72s-1.86-11.66 6.52-10.12c8.37 1.54 91.83.2 91.83.2l60.12.71 10.01-.16s8.29-3.47 8.43 4.87Z" class="st0"/><path d="m996.52 418.98.94.12c-.18 1.37-.36 2.71-.52 4-.33 2.44-.63 4.72-.91 6.73-.03.27-.06.54-.1.79-.52 3.95-.91 6.69-1 7.3v.05c-.02 1.92-.54 57.91-2.12 61.22-1.62 3.36-6.62 3.45-6.62 3.45s-150.28-.93-156.98-2.5-5.06-3.26-5.06-3.26l.55-70.13.13 8.35s2.81-6.72 5.82-13.87c.18-.44.37-.86.55-1.29 2.86-6.74 5.74-13.52 6.5-15.1 1.62-3.36 4.85-10.09 8.19-10.15 3.34-.05 145.27 1.01 145.27 1.01s1.64-1.7 3.45 6.62c1.8 8.32 1.94 16.66 1.94 16.66Z" class="st0"/><path d="m824.67 426.74-.59-36.72s-1.86-11.66 6.52-10.12c8.37 1.54 91.83.2 91.83.2l60.12.71 10.01-.16s8.29-3.47 8.43 4.87c.07 4.66-1.84 20.5-3.54 33.58-.18 1.37-.36 2.71-.52 4-.33 2.44-.63 4.72-.91 6.73-.03.27-.06.54-.1.79-.52 3.95-.91 6.69-1 7.3v.05c-.02 1.92-.54 57.91-2.12 61.22-1.62 3.36-6.62 3.45-6.62 3.45s-150.28-.93-156.98-2.5-5.06-3.26-5.06-3.26l.55-70.13Z" class="st3"/><path d="m824.67 426.74.13 8.35s2.81-6.72 5.82-13.87c.18-.44.37-.86.55-1.29 2.86-6.74 5.74-13.52 6.5-15.1 1.62-3.36 4.85-10.09 8.19-10.15 3.34-.05 145.27 1.01 145.27 1.01s1.64-1.7 3.45 6.62c1.8 8.32 1.94 16.66 1.94 16.66m-1.61 18.99-.02.09m-84.23-1.13s3.69 4.08 7.29 4.02 7.71-3.23 7.69-4.78" class="st3"/><path d="M899.2 431.43s-1.08-2.57 2.01-3.66c3.07-1.08 4.18 3.56 4.18 3.56m26.86-1.98c-.03-2.07.98-3.64 2.53-3.66s3.66 3.05 3.66 3.56m-609.46-50.31L620.5 275.5l6.66 105.99" class="st3"/><path d="m620.5 275.5 301.92 104.6" class="st2"/></svg>