<svg xmlns="http://www.w3.org/2000/svg" id="fig-patch-testing_Layer_3" viewBox="0 0 1067.88 562.572"><defs id="fig-patch-testing_defs1"><style id="fig-patch-testing_style1">.fig-patch-testing_st1{font-family:Arial-BoldMT,Arial;font-weight:700;font-size:26px}.fig-patch-testing_st4,.fig-patch-testing_st6{stroke:#000;stroke-miterlimit:10;fill:none}.fig-patch-testing_st4{stroke-width:2px}.fig-patch-testing_st6{stroke-width:3px}</style><path id="fig-patch-testing_rect15" d="M274.778 627.6h349.57v160.965h-349.57z"/></defs><g id="fig-patch-testing_layer1"><path id="fig-patch-testing_path3" d="M3.722 107.056s-3.458 59.355 0 62.597c13.007 12.195 55.217 24.159 67.475 25.202 76.418 6.503 139.828 1.626 144.706 0s28.453-4.878 31.705-8.13c3.252-3.251 13.82-17.072 14.633-22.762s1.626-30.893 0-38.21c-1.626-7.316-2.439-16.258-2.439-16.258s-19.51 6.503-22.762 8.13c-3.252 1.625-66.662 11.38-74.792 10.568s-41.46-2.44-48.777-2.44-33.331.814-41.46-.812c-8.13-1.626-28.454-2.439-34.958-4.878s-33.33-13.007-33.33-13.007z" style="fill:#d35f5f;stroke:#000;stroke-width:4.37;stroke-dasharray:none;stroke-dashoffset:0;paint-order:fill markers stroke"/><path id="fig-patch-testing_path4" d="M6.974 106.243s13.007-23.576 25.202-26.014c12.194-2.44 31.705-3.252 36.582-4.065s8.943 5.69 8.943 10.568-4.065 12.194 3.252 13.82c7.316 1.626 22.762 6.504 36.583 7.317s39.834 2.439 48.777 0 20.324-4.065 23.575-8.13c3.252-4.064 4.065-14.633 4.065-18.698 0-4.064 3.252-5.69 8.13-3.251 4.877 2.438 29.266 11.381 34.144 13.82s22.762 17.072 22.762 17.072-18.697 8.13-26.827 8.942c-8.13.813-65.036 11.382-70.727 10.569-5.69-.813-46.338-1.626-54.468-1.626s-30.079-2.439-41.46-4.065-33.331-4.065-39.022-7.317-19.511-8.942-19.511-8.942z" style="fill:#d35f5f;stroke:#000;stroke-width:4.37;stroke-dasharray:none;stroke-dashoffset:0;paint-order:fill markers stroke"/><path id="fig-patch-testing_path9" d="M76.888 96.488 80.14 17.63s16.259 4.878 30.892 7.317 42.274 3.252 56.094 3.252 24.388-12.195 24.388-12.195l2.44 60.972s-3.253 18.698-6.504 22.762c-3.252 4.065-20.324 8.943-26.828 8.943s-38.209 0-46.338-1.626c-8.13-1.626-26.015-4.065-30.08-6.504s-7.316-4.064-7.316-4.064z" style="fill:#d35f5f;stroke:#000;stroke-width:4.37;stroke-dasharray:none;stroke-dashoffset:0;paint-order:fill markers stroke"/><path id="fig-patch-testing_path10" d="M81.766 15.192s31.705-13.007 41.46-13.007 26.828.813 36.583 3.252c9.756 2.439 20.324 6.503 26.015 8.13 5.69 1.625 9.755 5.69 1.626 8.129s-25.202 6.504-30.893 5.69c-5.69-.812-16.259 0-26.827-1.625s-18.698-1.626-26.827-3.252-21.137-7.317-21.137-7.317Z" style="fill:#d35f5f;stroke:#000;stroke-width:4.37;stroke-dasharray:none;stroke-dashoffset:0;paint-order:fill markers stroke"/><path id="fig-patch-testing_path5" d="M192.032 71.68s2.483 20.691-4.138 27.313c-6.621 6.62-14.898 9.931-49.659 11.587-24.366 1.158-43.849-4.188-53.333-7.482a9.15 9.15 0 0 1-6.142-8.84l.265-13.16 1.159-59.49a9.18 9.18 0 0 1 5.413-8.194c7.581-3.427 23.488-8.757 49.311-8.757s42.988 5.082 51.281 8.326c3.526 1.39 5.86 4.768 5.86 8.558v49.974c0 4.833 3.757 8.806 8.59 9.154 20.146 1.44 35.49 8.425 45.538 14.732 8.84 5.545 14.352 15.13 14.947 25.557.795 13.806 1.358 34.315-1.092 47.574-2.5 13.524-11.057 18.738-17.083 20.74-3.74 1.242-6.24 4.751-6.24 8.69v148.73c0 11.173-6.059 21.419-15.775 26.915-18.788 10.61-42.31 14.103-84.834 16.404-45.008 2.45-87.98-17.68-102.198-25.128a9.19 9.19 0 0 1-4.933-8.144V191.242c0-3.989-2.566-7.531-6.373-8.74-7.15-2.284-17.827-6.869-18.407-13.987-.794-9.882-.132-49.742 0-56.148 0-.662.083-1.324.249-1.97 1.241-5.031 18.754-38.717 75.034-33.75" class="fig-patch-testing_st6"/><path id="fig-patch-testing_path6" d="M5.845 106.177s16.52 15.99 61.212 19.3 117.527 3.311 117.527 3.311 52.357-3.443 74.173-20.757" class="fig-patch-testing_st6"/><path id="fig-patch-testing_path7" d="M23.192 182.585s62.074 19.036 120.01 17.38c57.935-1.654 86.091-5.313 100.145-10.759" class="fig-patch-testing_st6"/><path id="fig-patch-testing_path8" d="M80.763 18.661s26.022 9.154 55.817 7.499 47.838 1.456 53.714-10.031" class="fig-patch-testing_st6"/><path id="fig-patch-testing_line8" d="M11.324 117.482v51.033" class="fig-patch-testing_st4"/><path id="fig-patch-testing_line9" d="M19.881 121.339v55.453" class="fig-patch-testing_st4"/><path id="fig-patch-testing_line10" d="m33.356 125.477.595 54.625" class="fig-patch-testing_st4"/><path id="fig-patch-testing_line11" d="m49.544 128.788-.695 54.625" class="fig-patch-testing_st4"/><path id="fig-patch-testing_line12" d="m70.368 132.099-.695 54.624" class="fig-patch-testing_st4"/><path id="fig-patch-testing_line13" d="m88.576 132.099-.695 59.59" class="fig-patch-testing_st4"/><path id="fig-patch-testing_line14" d="m108.44 135.409-.695 56.28" class="fig-patch-testing_st4"/><path id="fig-patch-testing_line15" d="m161.409 135.409-.695 57.936" class="fig-patch-testing_st4"/><path id="fig-patch-testing_line16" d="m182.928 135.409-.695 56.28" class="fig-patch-testing_st4"/><path id="fig-patch-testing_line17" d="m204.447 132.099-.695 59.59" class="fig-patch-testing_st4"/><path id="fig-patch-testing_line18" d="m221 132.099-.695 56.28" class="fig-patch-testing_st4"/><path id="fig-patch-testing_line19" d="m237.553 125.477-.695 61.246" class="fig-patch-testing_st4"/><path id="fig-patch-testing_line20" d="m247.485 122.167-.695 57.935" class="fig-patch-testing_st4"/><path id="fig-patch-testing_line21" d="m254.106 117.201-.695 54.625" class="fig-patch-testing_st4"/><path id="fig-patch-testing_line22" d="m136.58 135.409-.695 57.936" class="fig-patch-testing_st4"/><path id="fig-patch-testing_line23" d="m88.576 26.16-.695 71.177" class="fig-patch-testing_st4"/><path id="fig-patch-testing_line24" d="m111.75 31.125-.695 71.178" class="fig-patch-testing_st4"/><path id="fig-patch-testing_line25" d="m133.269 31.125-.695 74.489" class="fig-patch-testing_st4"/><path id="fig-patch-testing_line26" d="m151.478 31.125-.696 71.178" class="fig-patch-testing_st4"/><path id="fig-patch-testing_line27" d="m168.031 31.125-.696 71.178" class="fig-patch-testing_st4"/><path id="fig-patch-testing_line28" d="m179.618 31.125-.696 66.212" class="fig-patch-testing_st4"/><path id="fig-patch-testing_line29" d="m100.163 31.125-.695 69.523" class="fig-patch-testing_st4"/><text id="fig-patch-testing_text39" x="76.783" y="352.783" style="font-size:20px;font-family:Arial-BoldMT,Arial;font-weight:700;stroke-width:1.6553"><tspan id="fig-patch-testing_tspan39" x="76.783" y="352.783" style="stroke-width:1.6553">Exp. 1-3 mo</tspan></text><text id="fig-patch-testing_text40" x="97.52" y="282.225" class="fig-patch-testing_st1" style="stroke-width:1.6553"><tspan id="fig-patch-testing_tspan40" x="97.52" y="282.225" style="stroke-width:1.6553">Drug</tspan></text><text id="fig-patch-testing_text40-7" x="207.805" y="49.456" class="fig-patch-testing_st1" style="font-weight:700;font-size:26px;font-family:Arial-BoldMT,Arial;stroke-width:1.6553"><tspan id="fig-patch-testing_tspan40-9" x="207.805" y="49.456" style="stroke-width:1.6553">Unguator</tspan></text><text xml:space="preserve" id="fig-patch-testing_text15" style="font-weight:700;font-size:24px;line-height:1.25;font-family:Helvetica,Arial,sans-serif;-inkscape-font-specification:&quot;Helvetica, Arial, sans-serif, Bold&quot;;text-align:center;writing-mode:lr-tb;direction:ltr;white-space:pre;shape-inside:url(#fig-patch-testing_rect15);display:inline;fill:#000;stroke:none;stroke-width:4.37;stroke-dasharray:none;stroke-dashoffset:0;paint-order:fill markers stroke" transform="translate(-325.524 -212.435)"><tspan id="fig-patch-testing_tspan9" x="336.213" y="650.166">Reagent grade drug
</tspan><tspan id="fig-patch-testing_tspan10" x="372.207" y="680.166">(1% and 10%)
</tspan><tspan id="fig-patch-testing_tspan11" x="437.563" y="710.166">or
</tspan><tspan id="fig-patch-testing_tspan12" x="387.547" y="740.166">Trade drug
</tspan><tspan id="fig-patch-testing_tspan13" x="365.533" y="770.166">(10% and 30%)</tspan></text></g><g id="fig-patch-testing_layer2"><path id="fig-patch-testing_path33" d="M421.051 339.758c-4.115-4.63-3.086-4.63-4.547-31.633-1.46-26.993 4.547-31.643 4.547-31.643" class="fig-patch-testing_st6"/><path id="fig-patch-testing_path34" d="M421.051 276.493s-49.717 1.152-50.324 2.89c0 0-6.378 14.988-5.544 30.995.833 16.007 3.055 26.304 5.544 29.39 2.49 3.086 50.324 0 50.324 0" class="fig-patch-testing_st6"/><text id="fig-patch-testing_text38" x="475.234" y="440.644" class="fig-patch-testing_st1" style="stroke-width:1.6553"><tspan id="fig-patch-testing_tspan37" x="475.234" y="440.644" style="stroke-width:1.6553">Vehicle and</tspan><tspan id="fig-patch-testing_tspan38" x="426.22" y="492.289" style="stroke-width:1.6553">Negative control</tspan></text><path id="fig-patch-testing_path2" d="m424.875 276.462 281.674-13.796v82.777l-284.548-4.598s-4.599-21.844-4.599-27.593.575-25.293 1.725-28.167 5.748-8.623 5.748-8.623z" style="fill:#afe9af;stroke:#000;stroke-width:4.37;stroke-dasharray:none;stroke-dashoffset:0;paint-order:fill markers stroke"/><text id="fig-patch-testing_text3" x="493.843" y="313.886" class="fig-patch-testing_st1" style="stroke-width:1.0287"><tspan id="fig-patch-testing_tspan3" x="493.843" y="313.886" style="stroke-width:1.0287">Petrolatum</tspan></text></g><g id="fig-patch-testing_layer3"><text id="fig-patch-testing_text4" x="846.011" y="354.673" class="fig-patch-testing_st1" style="stroke-width:1.6553"><tspan id="fig-patch-testing_tspan4" x="846.011" y="354.673" style="stroke-width:1.6553">Finn chambers</tspan></text><text id="fig-patch-testing_text5" x="850.718" y="405.427" class="fig-patch-testing_st1" style="stroke-width:1.6553"><tspan id="fig-patch-testing_tspan5" x="850.718" y="405.427" style="stroke-width:1.6553">Scanpor tape</tspan></text><path id="fig-patch-testing_rect17" d="M801.583 217.454h264.797v155.329H801.583z" style="fill:none;stroke:#000;stroke-width:3px;stroke-miterlimit:10"/><g id="fig-patch-testing_g2" transform="translate(139.223 57.345)"><circle id="fig-patch-testing_circle20" cx="855.073" cy="224.186" r="38" fill="#e0ddd5" stroke="#999" stroke-width="2.5" style="fill:#ccc"/><circle id="fig-patch-testing_circle21" cx="855.073" cy="224.186" r="28" fill="#d0c4b5" stroke="#a89888" stroke-width="2" style="fill:#ccc;stroke:#999"/><circle id="fig-patch-testing_circle20-3" cx="737.782" cy="225.799" r="38" fill="#e0ddd5" stroke="#999" stroke-width="2.5" style="fill:#ccc"/><circle id="fig-patch-testing_circle21-6" cx="737.782" cy="225.799" r="28" fill="#d0c4b5" stroke="#a89888" stroke-width="2" style="fill:#ccc;stroke:#999"/></g></g></svg>