<svg xmlns="http://www.w3.org/2000/svg" id="Layer_1" viewBox="0 0 1367.032 706.891"><defs id="defs1"><style id="style1">.st0,.st1{font-size:36px}.st0{font-family:Arial-BoldMT,Arial;font-weight:700}.st5,.st6,.st7{stroke:#000;stroke-miterlimit:10}.st6{stroke-width:2px}.st5{fill:#fff;stroke-width:3px}.st1,.st8{font-family:ArialMT,Arial}.st6,.st7{fill:none}.st7{stroke-width:5px}</style></defs><path id="path1" d="M651.927 303.87s-91.44-22.86-109.22 101.6 152.4 114.3 152.4 114.3 111.76 0 114.3-101.6-157.48-114.3-157.48-114.3" class="st5" style="fill:red;fill-opacity:.55;stroke:none"/><text id="text2" x="605.197" y="583.239" class="st1"><tspan id="tspan1" x="605.197" y="583.239">Reticulocyte</tspan><tspan id="tspan2" x="605.197" y="626.439">Erythrocyte</tspan></text><text id="text14" x="871.047" y="244.859" style="font-size:36px"><tspan id="tspan4" style="font-family:Arial-BoldMT,Arial;font-weight:700"><tspan id="tspan3" x="871.047" y="244.859">No nucleus or ER</tspan></tspan><tspan id="tspan6" class="st8"><tspan id="tspan5" x="871.047" y="288.059">No transcription, no translation.</tspan></tspan><tspan id="tspan8" class="st8"><tspan id="tspan7" x="871.047" y="331.259">No HLA class I, no HLA-E</tspan></tspan><tspan id="tspan10" class="st8"><tspan id="tspan9" x="871.047" y="374.459">No MICA, MICB, ULBP</tspan></tspan><tspan id="tspan12" class="st8"><tspan id="tspan11" x="871.047" y="460.859">Increased hemoglobin capacity</tspan></tspan><tspan id="tspan14" class="st8"><tspan id="tspan13" x="871.047" y="504.059">Increased flexibility</tspan></tspan></text><text id="text17" x="100.377" y="557.899" class="st1"><tspan id="tspan15" x="100.377" y="557.899">Hematopoeitic stem cell</tspan><tspan id="tspan16" x="100.377" y="601.099">Proerythroblast</tspan><tspan id="tspan17" x="100.377" y="644.299">Erythroblast</tspan></text><text id="text18" x="123.767" y="706.469" class="st0"><tspan id="tspan18" x="123.767" y="706.469">Bone Marrow</tspan></text><text id="text19" x="644.217" y="703.069" class="st0"><tspan id="tspan19" x="644.217" y="703.069">Blood</tspan></text><path id="path19" d="M213.777 158.34S98.017 129.4 75.507 286.97s192.94 144.71 192.94 144.71 141.49 0 144.71-128.63-199.37-144.71-199.37-144.71z" class="st5" style="fill:red;fill-opacity:.553459;stroke:none"/><path id="path20" d="M170.427 206.56s-39.91 14.09-37.57 57.52c2.35 43.43-14.09 81 38.74 108s95.09-42.26 95.09-42.26 24.65-75.13-7.04-102.13c-31.7-27-89.22-21.13-89.22-21.13" style="fill:maroon;fill-opacity:.742138"/><path id="path21" d="M655.837.54s-39.91 14.09-37.57 57.52-14.09 81 38.74 108 95.09-42.26 95.09-42.26 24.65-75.13-7.04-102.13c-31.7-27-89.22-21.13-89.22-21.13" style="fill:maroon;fill-opacity:.74"/><g id="g22" transform="translate(-281.823 -189.6)"><path id="path22" d="M570.81 481.85s208.96-65.74 248.87-96.26c10.17-7.78 18.96-14.94 26.43-21.3" class="st7"/><path id="polygon22" d="m828.79 360.21 19.78 21.28 29.8-47.55z"/></g><g id="g23" transform="translate(-281.823 -189.6)"><path id="path23" d="M570.81 519.42s173.74-30.52 201.91-11.74c4.55 3.03 8.79 6.12 12.7 9.18" class="st7"/><path id="polygon23" d="M787.83 499.85 767.91 521l49.42 26.59z"/></g><path id="path24" d="M221.147 192.52s-1.18-.67-1.01-1.68 1.01-1.18 1.51-2.36 2.69-8.41 2.69-8.41l2.36-8.24s.5-2.36.84-3.87 1.18-8.75.67-10.77-1.01-6.56-2.52-8.92-3.03-4.54-4.37-5.55-6.9-5.22-6.9-5.89.17-1.35.17-1.35 2.02-.5 3.03-1.18 5.55-4.88 5.55-15.31-3.7-20.36-5.05-22.55-7.07-8.92-10.6-9.42-3.2.5-4.71-.34.67-3.03.67-3.03-.17-1.18 4.54 1.01 32.81 1.68 43.92-6.56 5.38-24.4 5.38-24.4-4.71-10.6-15.65-10.6-9.09 5.05-9.09 5.05 1.35 4.37 2.52 5.22 4.54 8.58 4.04 11.27-.5 7.24-5.05 8.58-7.24 1.35-7.24 1.35-7.57 0-9.25-.5-7.4-2.36-7.74-4.88-1.01-4.88.67-6.9 8.75-6.06 8.41-10.1-7.07-7.74-9.93-7.91-7.07.67-8.92 2.86-9.59 11.61-7.24 19.52 1.68 5.89 2.52 7.74 4.71 4.88 4.88 6.9.34 7.91-.84 9.93-6.56 12.28-6.06 18.51.84 23.72 17.16 25.74c0 0 1.85 3.2 4.04 4.37s12.28 7.24 11.61 15.31c0 0 1.18 10.6-.84 13.8 0 0-6.39 19.52-4.71 20.86" class="st6" style="fill:#99badd;fill-opacity:1;stroke:none;stroke-opacity:1"/><path id="path25" d="M226.707 87.36s8.08-2.19 10.6-2.36 4.88-.5 5.89.5 5.22 8.24 5.55 13.12.17 20.7-2.52 26.75-4.54 9.59-7.07 9.59-10.77-.34-12.45-9.76-4.21-22.88-3.2-29.61 1.35-6.9 2.52-8.08l.67-.17z" class="st6"/><path id="path26" d="M224.117 42.25s5.11 1.02 5.11 5.8c0 0 2.39 7.16 3.75 8.86s4.77 5.45 3.41 7.5-2.73 5.8-5.11 6.14-9.55 2.05-11.93.34c0 0-6.82-2.39-5.8-5.45l.34-2.73 2.05-2.05s5.8-4.09 5.45-6.82-1.7-6.48-1.36-8.18c0 0 2.05-3.75 4.09-3.41z" style="stroke:#000;stroke-miterlimit:10;stroke-width:2px"/><text id="text26" x="-2.883" y="102.289" class="st1"><tspan id="tspan26" x="-2.883" y="102.289">HLA class I</tspan></text></svg>