<svg xmlns="http://www.w3.org/2000/svg" id="Layer_1" viewBox="0 0 1182.2 710.688"><rect id="rect21" width="1121.51" height="79.311" x="60.411" y="487.108" ry="0" style="fill:none;stroke:#000;stroke-width:5;stroke-opacity:.99813783;paint-order:fill markers stroke;stroke-dasharray:none"/><defs id="defs1"><style id="style1">.st1,.st3,.st5{stroke:#000;stroke-miterlimit:10}.st3,.st5{fill:none}.st5{stroke-width:4px}.st1,.st3{stroke-width:5px}.st1{fill:#fff}.st6{font-family:ArialMT,Arial;font-size:36px}.st7{font-family:Arial-BoldMT,Arial;font-size:52px;font-weight:700}</style></defs><text id="text2" x="170.007" y="444.799" class="st7"><tspan id="tspan2" x="170.007" y="444.799">A</tspan></text><text id="text3" x="353.507" y="444.199" class="st7"><tspan id="tspan3" x="353.507" y="444.199">B</tspan></text><text id="text4" x="263.627" y="442.929" class="st7"><tspan id="tspan4" x="263.627" y="442.929">C</tspan></text><text id="text5" x="137.677" y="330.859" class="st7"><tspan id="tspan5" x="137.677" y="330.859">HLA Class I</tspan></text><text id="text6" x="671.527" y="328.079" class="st7"><tspan id="tspan6" x="671.527" y="328.079">HLA Class II</tspan></text><text id="text7" x="-1.793" y="85.569" class="st6"><tspan id="tspan7" x="-1.793" y="85.569">Chr 6</tspan></text><path id="rect7" d="M156.357 472.149h60.32v111.11h-60.32z" class="st1" style="fill:#7e9fcd;fill-opacity:1;stroke:none;stroke-opacity:1"/><path id="rect8" d="M252.387 470.559h60.32v111.11h-60.32z" class="st1" style="fill:#7e9fcd;fill-opacity:1;stroke:none"/><path id="rect9" d="M346.037 472.149h60.32v111.11h-60.32z" class="st1" style="fill:#7e9fcd;fill-opacity:1;stroke:none"/><g id="g11" transform="translate(-336.003 -210.821)"><path id="line9" d="M485.58 585.77h266.25" class="st3"/><path id="rect10" d="M483.08 569.52h5v32.5h-5z"/><path id="rect11" d="M749.33 569.52h5v32.5h-5z"/></g><text id="text11" x="574.857" y="442.829" class="st7"><tspan id="tspan11" x="574.857" y="442.829">DR</tspan></text><text id="text12" x="809.927" y="441.579" class="st7"><tspan id="tspan12" x="809.927" y="441.579">DQ</tspan></text><text id="text13" x="998.507" y="444.519" class="st7"><tspan id="tspan13" x="998.507" y="444.519">DP</tspan></text><g id="g14" transform="translate(-336.003 -210.821)"><path id="line13" d="m831.83 585.58 620.24-.01" class="st3"/><path id="rect13" d="M829.33 569.33h5v32.5h-5z"/><path id="rect14" d="M1449.57 569.32h5v32.5h-5z"/></g><path id="rect15" d="M504.337 471.679h60.32v111.11h-60.32z" class="st1" style="fill:#446ca1;fill-opacity:1;stroke:none"/><path id="rect16" d="M652.377 473.509h60.32v111.11h-60.32z" class="st1" style="fill:#446ca1;fill-opacity:1;stroke:none"/><path id="rect17" d="M783.437 470.889h60.32v111.11h-60.32z" class="st1" style="fill:#446ca1;fill-opacity:1;stroke:none"/><path id="rect18" d="M862.477 469.089h60.32v111.11h-60.32z" class="st1" style="fill:#446ca1;fill-opacity:1;stroke:none"/><path id="rect19" d="M963.687 472.299h60.32v111.11h-60.32z" class="st1" style="fill:#446ca1;fill-opacity:1;stroke:none"/><path id="rect20" d="M1042.727 470.499h60.32v111.11h-60.32z" class="st1" style="fill:#446ca1;fill-opacity:1;stroke:none"/><text id="text20" x="971.407" y="626.659" class="st6"><tspan id="tspan20" x="971.407" y="626.659">A1</tspan></text><text id="text21" x="791.227" y="626.259" class="st6"><tspan id="tspan21" x="791.227" y="626.259">A1</tspan></text><text id="text22" x="510.917" y="622.439" class="st6"><tspan id="tspan22" x="510.917" y="622.439">A1</tspan></text><path id="rect22" d="M577.927 472.809h60.32v111.11h-60.32z" class="st1" style="fill:#446ca1;fill-opacity:1;stroke:none"/><text id="text23" x="873.257" y="624.889" class="st6"><tspan id="tspan23" x="873.257" y="624.889">B1</tspan></text><text id="text24" x="1051.677" y="625.249" class="st6"><tspan id="tspan24" x="1051.677" y="625.249">B1</tspan></text><text id="text25" x="660.607" y="627.139" class="st6"><tspan id="tspan25" x="660.607" y="627.139">B1</tspan></text><text id="text28" x="585.547" y="623.849" class="st6"><tspan id="tspan26" x="585.547" y="623.849">B3</tspan><tspan id="tspan27" x="585.547" y="667.049">B4</tspan><tspan id="tspan28" x="585.547" y="710.249">B5</tspan></text><text id="text29" x="86.677" y="535.869" class="st6"><tspan id="tspan29" x="86.677" y="535.869">Tel</tspan></text><text id="text30" x="1110.637" y="536.289" class="st6"><tspan id="tspan30" x="1110.637" y="536.289">Cen</tspan></text><rect id="rect12-9" width="446.062" height="71.291" x="100.446" y="35.12" ry="35.646" style="fill:none;stroke:#000;stroke-width:5;stroke-opacity:1;paint-order:fill markers stroke;stroke-dasharray:none"/><text id="text34" x="272.067" y="204.269" class="st6"><tspan id="tspan34" x="272.067" y="204.269">6p21.1-21.3</tspan></text><path id="rect34" d="M237.078 35.624h55.06v70.309h-55.06z" style="stroke-width:1.03796"/><text id="text35" x="351.847" y="26.209" class="st6"><tspan id="tspan35" x="351.847" y="26.209">Short arm</tspan></text><text id="text36" x="952.217" y="26.579" class="st6"><tspan id="tspan36" x="952.217" y="26.579">Long arm</tspan></text><g id="g38" transform="translate(-336.003 -210.821)"><path id="line36" d="m574.9 316.68.5 5.98" class="st5"/><path id="line37" d="m576.42 335.1 11.78 143.13" style="stroke-dasharray:12.49 12.49;stroke:#000;stroke-miterlimit:10;fill:none;stroke-width:4px"/><path id="line38" d="m588.71 484.45.5 5.98" class="st5"/></g><g id="g41" transform="translate(-336.003 -210.821)"><path id="line39" d="m629.96 316.68 5.71 1.85" class="st3"/><path id="line40" d="m646.91 322.17 488.93 158.35" style="stroke:#000;stroke-miterlimit:10;fill:none;stroke-width:5px;stroke-dasharray:11.81 11.81"/><path id="line41" d="m1141.46 482.34 5.7 1.85" class="st3"/></g><rect id="rect12" width="603.866" height="70.818" x="547.85" y="36.452" ry="35.409" style="fill:none;stroke:#000;stroke-width:5;stroke-opacity:1;paint-order:fill markers stroke;stroke-dasharray:none"/></svg>