<svg xmlns="http://www.w3.org/2000/svg" viewBox="0 0 1200 630"><defs><style>.st2,.st5,.st7{stroke-miterlimit:10;stroke-width:3px}.st7{stroke:#000}.st2{stroke:#fff}.st2,.st7{fill:none}.st13{fill:#366da6}.st5{fill:#a2a2a2;stroke:#a2a2a2}</style></defs><g id="Layer_2"><path d="M439 121.5v269.44h480V121.5zm139.26 87.84c-1.4 1.93-2.89 3.79-4.29 5.72-.33.45-.85.63-1.37.36-.44-.23-.67-.94-.36-1.37 1.4-1.93 2.89-3.79 4.29-5.72.33-.45.85-.63 1.37-.36.44.23.67.94.36 1.37Z" style="stroke-miterlimit:10;stroke-width:3px;stroke:#000;fill:#e5e5e5"/><path d="M992.57 102.34s4.18 196.33 1.89 221.15-2.43 106.05-2.43 106.05-4.54 13.53-20.33 13.51-577.68-.97-577.68-.97-15.8 2.23-20.27-20.34c-4.48-22.57-3.97-322.69-3.97-322.69m3.42-24.83 618.29 3.3" class="st7"/><path d="M369.77 99.04s.07-40.62 15.88-47.36 45.13-2.18 45.13-2.18 496.46-8.19 516.76-5.9 38.36.06 40.6 9.09 4.43 49.65 4.43 49.65" class="st7"/><path d="m395.11 464.08-37.33 61.43s-9.03 4.5 11.28 4.53 627.31 5.56 627.31 5.56 15.8-2.23 11.31-13.52-43.82-63.75-43.82-63.75" style="stroke-miterlimit:10;stroke-width:3px;stroke:#000;fill:#555"/><path d="M371.98 459.78s-11.84.29-23.13 9.3-65.58 81.13-65.58 81.13-.83 1.66.7 4.09c2.05 3.24 8.3 7.85 26.35 11.75 31.58 6.82 232.42 2.65 232.42 2.65l480.64.81s47.39.08 51.92-11.2-78.81-101.68-78.81-101.68 11.3-11.26 13.57-20.29c2.27-9.02 2.48-135.39 2.48-135.39l4.72-121.85.2-117.34s2.31-31.59-22.5-36.14-151.18-4.77-151.18-4.77l-148.94 2.01-176.01-.29-126.36-4.72s-38.37 4.45-40.69 45.06-2.49 142.16-2.49 142.16l-.15 88.01-2.39 76.72s-.04 24.82 2.18 42.88c2.23 18.06 4.46 33.86 11.21 40.64 6.76 6.78 24.8 11.32 29.32 11.33s110.57.19 110.57.19l182.78.31 230.17-1.87 83.5-6.63" class="st7"/><path d="M283.97 554.29s-5.24 11.7 1.51 22.99 36.09 11.34 36.09 11.34l715.31 7.97s38.36.06 38.43-38.3m-517.76-27.1-14.81 37.5m257.95-34.49 10.37 33.91m-311.13-37.85 4.54-15.79 342.99.58 4.88 18.7" class="st7"/><circle cx="412.71" cy="61.31" r="7.33" class="st7"/><circle cx="438.38" cy="61.36" r="7.33" class="st7"/><circle cx="464.04" cy="61.4" r="7.33" class="st7"/><path d="m709.45 200.07.14 28.2 24.48 13.98 24.35-14.21-.13-28.2-24.49-13.98zm26.88-44.86.13 28.19 24.49 13.98 24.35-14.21-.14-28.19-24.48-13.99zm25.07 45.93.13 28.19 24.49 13.98 24.35-14.21-.14-28.2-24.48-13.98z" style="fill:#2b557f"/></g><g id="Layer_3"><path d="M589.47 156.22c-16.3-1.86-37.41-1.26-51.32 7.56-9.95 6.76-19.07 18.65-17.58 31.21 3.35 20.22 30.26 30.63 47.78 37.01-.01-3.3-.01-7.18-.01-11.33-7.65-4.29-18.03-11.14-21.55-19.25-7.52-17.16 7.95-26.4 23.21-29.76 14.37-3.73 29.97-2.82 43.64 2.84 14.98 6.12 15.42 17.92 9.92 28.96-.38 1.21-.88 2.39-1.5 3.48-.4.61-.92 1.18-1.54 1.72-1.95 2.9-4.24 5.66-6.69 8.17 1.19.76 2.29 1.6 2.91 2.49.33.55.79 1.3 1.34 2.18 29.37-32.12 10.69-59.69-28.61-65.28Zm33.05 53.96c-.33.45-.85.63-1.37.36-.44-.23-.67-.94-.36-1.37 1.4-1.93 2.89-3.79 4.29-5.72.33-.45.85-.63 1.37-.36.44.23.67.94.36 1.37-1.4 1.93-2.89 3.79-4.29 5.72Z" class="st5"/><path d="m602.14 228.35-15.22 2.9c.09-2.68.19-5.46.31-7.91l10.46-2.42c1.61 2.32 3.09 4.86 4.45 7.43Z" class="st5"/><path d="M630.76 239.86c.16.49-1.49.17-3.34.26-5.75-.01-12.5 0-18.35 0-1.73-.03-1.04.15-1.56-1.23-1.1-3.32-2.54-6.31-4.09-9.49-.66-1.34-1.35-2.7-2.08-4.05-1.36-2.57-2.84-5.11-4.45-7.43-.48-.7-.97-1.38-1.48-2.03-.67-.74-.29-.73-2.24-.97-1.88-.11-4.63-.86-6.34-.58-.15 1.35-.28 3.5-.4 6-.12 2.45-.22 5.23-.31 7.91-.18 5.47-.31 10.51-.43 11.46-.06.36-.23.36-.66.36-2.46-.16-13.17-.63-17.29-.99-.1-.85-.16-4.68-.19-10.08-.01-3.3-.01-7.18-.01-11.33.02-17.46.15-39.52.01-41.75v-.07c.24-1.41 1.61-2.08 3.07-1.99 4.98-.19 17.74.97 22.68 1.19 5.5.14 14.4-.03 18.75.9 3.25.91 5.89 3.78 8.29 6.2 2.27 2.45 4.17 4.89 3.92 8.36-.13 3.26-.46 6.76-1.5 9.95-.38 1.21-.88 2.39-1.5 3.48-.4.61-.92 1.18-1.54 1.72-1.73 1.49-4.17 2.7-6.39 3.6-2.55 1.06-4.82 1.6-5.16 1.81-.11.12.09.19.21.27 1.04.52 2.95 1.41 4.65 2.49 1.19.76 2.29 1.6 2.91 2.49.33.55.79 1.3 1.34 2.18 3.9 6.29 12.43 19.69 13.48 21.36" style="fill:#4c86c5"/><path d="M586.93 189.48c.83-.7 5.27-.25 7.13-.37 3.5.05 5.97-.37 8.74 1.65 3.4 2.25 1.54 8.68-2.23 9.21-2.87.28-6 .07-9.39.13-1.42-.09-3.29.25-4.24-.31-.35-.29-.41-.92-.43-1.97-.01-1.41 0-3.65 0-5.36 0-1.5-.03-2.49.36-2.92l.06-.07Z" style="fill:#e5e5e5"/><circle cx="596.5" cy="326.5" r="44.5" style="stroke-miterlimit:10;fill:#9abadd;stroke:#9abadd"/><path d="M580 305s3.69.23 7.86.47c4.51.26 9.58.53 11.14.53 3 0 9 2 9 5s1 7-2 10-2 3-7 4-9 0-9 0h-4m1.86-19.53L588 345m-8-1h16" class="st2"/><path d="m599 325 11 18h7" class="st2"/><text style="font-family:Helvetica-Light,Helvetica;font-size:55px;font-weight:300" transform="translate(647.52 346.22)"><tspan x="0" y="0">Studio</tspan></text><text style="font-size:27.83px;font-family:ArialMT,Arial" transform="translate(708.1 269.89)"><tspan x="0" y="0">Packages</tspan></text><text style="font-family:ArialMT,Arial;font-size:46px" transform="translate(143.11 301.9)"><tspan x="0" y="0">Docker</tspan><tspan x="-21.71" y="55.2">container</tspan></text></g><g id="Layer_4"><path d="M164.5 211.5s87 0 90-2l4-3s-2-3-2-7 4-13 4-13 13 9 10 13 18-5 19 3-16 10-21 9-1 11-18 23-29 14-37 14-23-2-28-5-19-14-20-20-1-12-1-12m0-16s-1 9 0 10 13 0 13 0v-10zm18-14h13v10h-13z" class="st13"/><path d="M182.5 195.5h13v11h-13zm17-15h13v11h-13zm0 15h13v10h-13zm18-28h13v10h-13zm0 14v10l14-1v-9zm0 14h13v10h-13zm17 0h13v10h-13z" class="st13"/><path d="m438.5 121.5-5.06 3.22" class="st7"/><path d="m423.25 131.18-117.09 74.37" style="stroke-miterlimit:10;stroke-width:3px;stroke:#000;fill:none;stroke-dasharray:12.06 12.06"/><path d="M301.06 208.78 296 212m142.5 178.5-3.74-4.69" class="st7"/><path d="M427.65 376.91 303.3 221.14" style="stroke-miterlimit:10;stroke-width:3px;stroke:#000;fill:none;stroke-dasharray:11.39 11.39"/><path d="M299.74 216.69 296 212" class="st7"/></g></svg>