<svg xmlns="http://www.w3.org/2000/svg" id="Layer_1" viewBox="0 0 1920 1080"><defs><style>.st1,.st3,.st4,.st5{stroke:#000;stroke-miterlimit:10}.st3,.st5{fill:none}.st5{stroke-width:4px}.st1,.st3,.st4{stroke-width:5px}.st1,.st4{fill:#fff}.st6{font-family:ArialMT,Arial;font-size:36px}.st7{font-family:Arial-BoldMT,Arial;font-size:52px;font-weight:700}.st4{fill-rule:evenodd}</style></defs><path d="M423.36 703.16h1089.16M424.88 769.88H1515" class="st3"/><text class="st7" transform="translate(506.01 655.62)"><tspan x="0" y="0">A</tspan></text><text class="st7" transform="translate(689.51 655.02)"><tspan x="0" y="0">B</tspan></text><text class="st7" transform="translate(599.63 653.75)"><tspan x="0" y="0">C</tspan></text><text class="st7" transform="translate(473.68 541.68)"><tspan x="0" y="0">HLA Class I</tspan></text><text class="st7" transform="translate(1007.53 538.9)"><tspan x="0" y="0">HLA Class II</tspan></text><text class="st6" transform="translate(334.21 296.39)"><tspan x="0" y="0">Chr 6</tspan></text><path d="M492.36 682.97h60.32v111.11h-60.32zm96.03-1.59h60.32v111.11h-60.32zm93.65 1.59h60.32v111.11h-60.32z" class="st1"/><path d="M485.58 585.77h266.25" class="st3"/><path d="M483.08 569.52h5v32.5h-5zm266.25 0h5v32.5h-5z"/><text class="st7" transform="translate(910.86 653.65)"><tspan x="0" y="0">DR</tspan></text><text class="st7" transform="translate(1145.93 652.4)"><tspan x="0" y="0">DQ</tspan></text><text class="st7" transform="translate(1334.51 655.34)"><tspan x="0" y="0">DP</tspan></text><path d="m831.83 585.58 620.24-.01" class="st3"/><path d="M829.33 569.33h5v32.5h-5zm620.24-.01h5v32.5h-5z"/><path d="M840.34 682.5h60.32v111.11h-60.32zm148.04 1.83h60.32v111.11h-60.32zm131.06-2.62h60.32v111.11h-60.32zm79.04-1.8h60.32v111.11h-60.32zm101.21 3.21h60.32v111.11h-60.32zm79.04-1.8h60.32v111.11h-60.32z" class="st1"/><text class="st6" transform="translate(1307.41 837.48)"><tspan x="0" y="0">A1</tspan></text><text class="st6" transform="translate(1127.23 837.08)"><tspan x="0" y="0">A1</tspan></text><text class="st6" transform="translate(846.92 833.26)"><tspan x="0" y="0">A1</tspan></text><path d="M913.93 683.63h60.32v111.11h-60.32z" class="st1"/><text class="st6" transform="translate(1209.26 835.71)"><tspan x="0" y="0">B1</tspan></text><text class="st6" transform="translate(1387.68 836.07)"><tspan x="0" y="0">B1</tspan></text><text class="st6" transform="translate(996.61 837.96)"><tspan x="0" y="0">B1</tspan></text><text class="st6" transform="translate(921.55 834.67)"><tspan x="0" y="0">B3</tspan><tspan x="0" y="43.2">B4</tspan><tspan x="0" y="86.4">B5</tspan></text><text class="st6" transform="translate(422.68 746.69)"><tspan x="0" y="0">Tel</tspan></text><text class="st6" transform="translate(1454.64 747.11)"><tspan x="0" y="0">Cen</tspan></text><path d="M846.19 250.21H472.23m377.38 66.72H473.59" class="st3"/><path d="M478.66 250.21a32.7 32.7 0 0 0-5.62 0c-17.16 1.43-30.63 15.81-30.63 33.33s13.97 32.42 31.58 33.39c.62.03 1.24.05 1.86.05s1.24-.02 1.86-.05m365.06 0c1.12.11 2.27.17 3.42.17s2.29-.06 3.42-.17c16.86-1.71 30.02-15.95 30.02-33.27 0-18.47-14.97-33.45-33.44-33.45" class="st4"/><path d="M1448.52 250.72H913.74m530.8 66.72H915.1" class="st3"/><path d="M920.17 250.72a32.7 32.7 0 0 0-5.62 0c-17.16 1.43-30.63 15.81-30.63 33.33s13.97 32.42 31.58 33.39c.62.03 1.24.05 1.86.05s1.24-.02 1.86-.05m524.06 0c1.12.11 2.27.17 3.42.17s2.29-.06 3.42-.17c16.86-1.71 30.02-15.95 30.02-33.27 0-18.47-14.97-33.45-33.44-33.45" class="st4"/><text class="st6" transform="translate(608.07 415.09)"><tspan x="0" y="0">6p21.1-21.3</tspan></text><path d="M574.9 251.42h55.06v65.26H574.9z"/><text class="st6" transform="translate(687.85 237.03)"><tspan x="0" y="0">Short arm</tspan></text><text class="st6" transform="translate(1288.22 237.4)"><tspan x="0" y="0">Long arm</tspan></text><path d="m574.9 316.68.5 5.98" class="st5"/><path d="m576.42 335.1 11.78 143.13" style="stroke-dasharray:12.49 12.49;stroke:#000;stroke-miterlimit:10;fill:none;stroke-width:4px"/><path d="m588.71 484.45.5 5.98" class="st5"/><path d="m629.96 316.68 5.71 1.85" class="st3"/><path d="m646.91 322.17 488.93 158.35" style="stroke:#000;stroke-miterlimit:10;fill:none;stroke-width:5px;stroke-dasharray:11.81 11.81"/><path d="m1141.46 482.34 5.7 1.85" class="st3"/></svg>