<svg xmlns="http://www.w3.org/2000/svg" id="svg124" viewBox="0 0 1337.811 920.783"><defs id="defs1"><style id="style1">.st1,.st3,.st4{stroke:#000;stroke-miterlimit:10;stroke-width:3px}.st6{font-size:52px;font-weight:700;font-family:Arial-BoldMT,Arial}.st1{stroke-dasharray:6}.st1,.st4{fill:none}</style></defs><g id="Layer_2" transform="translate(-274.899 -93.717)"><path id="path6" d="M748.5 389.5s48-13 63-14 29-3 35 3 31 49 33 78 1 123-15 159-27 57-42 57-64-2-74-58-25-136-19-176 8-41 15-48z" class="st4" style="fill:none;fill-opacity:1;stroke:#000;stroke-width:6;stroke-dasharray:none;stroke-opacity:1"/><path id="path5" d="M715.5 1014.5s-7-4-6-10 6-7 9-14 16-50 16-50l14-49s3-14 5-23 7-52 4-64-6-39-15-53-18-27-26-33-41-31-41-35 1-8 1-8 12-3 18-7 33-29 33-91-22-121-30-134-42-53-63-56-8.888 5.334-17.888.334 7.112-20.334 7.112-20.334-14.224-7 13.776 6 195 10 261-39 32-145 32-145-28-63-93-63-54 30-54 30 8 26 15 31 27 51 24 67-3 43-30 51-43 8-43 8-45 0-55-3-44-14-46-29-6-29 4-41 52-36 50-60-42-46-59-47-42 4-53 17-57 69-43 116 10 35 15 46 28 29 29 41 2 47-5 59-39 73-36 110 5 141 102 153c0 0 11 19 24 26s73 43 69 91c0 0 7 63-5 82 0 0-38 116-28 124" class="st4" style="fill:#99badd;fill-opacity:1;stroke:none"/><text id="text6" class="st6" transform="translate(606.94 541.3)"><tspan id="tspan6" x="0" y="0">α­</tspan></text><text id="text7" class="st6" transform="matrix(.58 0 0 .58 638.9 558.61)"><tspan id="tspan7" x="0" y="0">3</tspan></text><text id="text8" x="756.395" y="525.945" class="st6"><tspan id="tspan8" x="756.395" y="525.945">β</tspan></text><text id="text10" x="800.995" y="525.945" class="st6"><tspan id="tspan10" x="800.995" y="525.945">-m</tspan></text><text id="text11" class="st6" transform="translate(576.93 267.21)"><tspan id="tspan11" x="0" y="0">α­</tspan></text><text id="text12" class="st6" transform="matrix(.58 0 0 .58 608.9 284.53)"><tspan id="tspan12" x="0" y="0">2</tspan></text><text id="text13" class="st6" transform="translate(857.93 253.21)"><tspan id="tspan13" x="0" y="0">α­</tspan></text><text id="text14" class="st6" transform="matrix(.58 0 0 .58 889.9 270.53)"><tspan id="tspan14" x="0" y="0">1</tspan></text><path id="path14" d="M733.14 121.38s30.39 6.08 30.39 34.44c0 0 14.18 42.55 22.29 52.68 8.1 10.13 28.37 32.42 20.26 44.57-8.1 12.16-16.21 34.44-30.39 36.47s-56.73 12.16-70.91 2.03c0 0-40.52-14.18-34.44-32.42l2.03-16.21 12.16-12.16s34.44-24.31 32.42-40.52c-2.03-16.21-10.13-38.5-8.1-48.63 0 0 12.16-22.29 24.31-20.26z" class="st3"/><g id="g77"><path id="path15" d="M1069.83 597.19c0 1.6-.56 2.97-1.69 4.09s-2.48 1.69-4.07 1.69-2.97-.57-4.09-1.7-1.69-2.49-1.69-4.08.56-2.95 1.69-4.07 2.49-1.69 4.09-1.69 2.95.56 4.07 1.68 1.69 2.48 1.69 4.08"/><path id="path16" d="M1081.41 595.88c-1.42-.6-2.45-1.42-3.1-2.47s-.97-2.2-.97-3.45c0-2.14.75-3.9 2.24-5.29s3.61-2.09 6.36-2.09 4.83.7 6.34 2.09 2.26 3.16 2.26 5.29c0 1.33-.34 2.51-1.04 3.54s-1.66 1.83-2.91 2.37c1.59.64 2.8 1.57 3.62 2.79s1.24 2.64 1.24 4.24c0 2.64-.84 4.79-2.53 6.45s-3.93 2.48-6.73 2.48c-2.6 0-4.77-.68-6.5-2.05-2.04-1.61-3.07-3.83-3.07-6.64 0-1.55.38-2.97 1.15-4.27s1.98-2.29 3.63-3zm.62 6.74c0 1.51.39 2.69 1.16 3.54s1.74 1.27 2.9 1.27 2.07-.41 2.81-1.22 1.11-1.99 1.11-3.53c0-1.34-.38-2.42-1.13-3.23s-1.71-1.22-2.87-1.22c-1.34 0-2.34.46-3 1.39s-.99 1.93-.99 3.01zm.51-12.27c0 1.09.31 1.95.93 2.56s1.44.92 2.47.92 1.88-.31 2.5-.93.94-1.47.94-2.57c0-1.03-.31-1.85-.93-2.47s-1.44-.93-2.45-.93-1.89.31-2.52.94-.94 1.45-.94 2.48"/><path id="path17" d="M1120.74 590.59v4.38h-3.75v8.36c0 1.69.04 2.68.11 2.96s.23.51.49.69.56.27.93.27c.51 0 1.24-.18 2.21-.53l.47 4.26c-1.28.55-2.72.82-4.34.82-.99 0-1.88-.17-2.68-.5s-1.38-.76-1.75-1.29-.63-1.24-.77-2.14q-.18-.96-.18-3.87v-9.04h-2.52v-4.38h2.52v-4.12l5.51-3.2v7.32h3.75z"/><path id="path18" d="M1123.28 600.67c0-1.82.45-3.59 1.35-5.29s2.17-3.01 3.82-3.91q2.475-1.35 5.52-1.35 4.71 0 7.71 3.06c2 2.04 3.01 4.61 3.01 7.72s-1.01 5.74-3.04 7.8-4.57 3.1-7.65 3.1c-1.9 0-3.71-.43-5.44-1.29s-3.04-2.12-3.94-3.78q-1.35-2.49-1.35-6.06zm5.63.29c0 2.06.49 3.63 1.46 4.73s2.18 1.64 3.61 1.64 2.63-.55 3.6-1.64 1.46-2.68 1.46-4.77-.49-3.59-1.46-4.69-2.17-1.64-3.6-1.64-2.64.55-3.61 1.64-1.46 2.67-1.46 4.73"/><path id="path19" d="M1172.97 611.33h-5.49v-20.68c-2 1.88-4.37 3.26-7.09 4.16v-4.98c1.43-.47 2.99-1.36 4.67-2.67s2.83-2.83 3.46-4.58h4.45z"/><path id="path20" d="M1190.45 582.58c2.77 0 4.94.99 6.5 2.97 1.86 2.34 2.79 6.23 2.79 11.66s-.94 9.31-2.81 11.68c-1.55 1.95-3.71 2.93-6.48 2.93s-5.03-1.07-6.74-3.21-2.56-5.96-2.56-11.46.94-9.27 2.81-11.64c1.55-1.95 3.71-2.93 6.48-2.93zm0 4.55c-.66 0-1.26.21-1.78.63s-.92 1.18-1.21 2.28q-.57 2.13-.57 7.17c0 3.36.17 5.67.51 6.92s.76 2.09 1.28 2.51 1.1.62 1.77.62 1.26-.21 1.78-.63.92-1.18 1.21-2.28c.38-1.41.57-3.79.57-7.15s-.17-5.67-.51-6.92-.76-2.1-1.28-2.52-1.1-.63-1.77-.63"/><path id="path21" d="m1219.8 596.92-4.98-.9c.56-2 1.52-3.49 2.89-4.45s3.4-1.45 6.09-1.45c2.45 0 4.27.29 5.47.87s2.04 1.32 2.53 2.21.73 2.53.73 4.91l-.06 6.41c0 1.82.09 3.17.26 4.03s.5 1.79.99 2.78h-5.43c-.14-.36-.32-.91-.53-1.62-.09-.33-.16-.54-.2-.64-.94.91-1.94 1.59-3.01 2.05s-2.21.68-3.42.68c-2.14 0-3.82-.58-5.05-1.74s-1.85-2.62-1.85-4.39c0-1.17.28-2.22.84-3.13s1.34-1.62 2.35-2.11 2.46-.92 4.37-1.28c2.57-.48 4.34-.93 5.33-1.35v-.55c0-1.05-.26-1.81-.78-2.26s-1.5-.67-2.95-.67c-.98 0-1.74.19-2.29.58s-.99 1.06-1.33 2.02zm7.35 4.45c-.7.23-1.82.51-3.34.84s-2.52.64-2.99.96c-.72.51-1.07 1.15-1.07 1.93s.29 1.43.86 1.99q.855.84 2.19.84c.99 0 1.93-.33 2.83-.98.66-.5 1.1-1.1 1.31-1.82.14-.47.21-1.36.21-2.68v-1.09z"/><path id="path22" d="M1237.54 590.59h5.06v2.83c1.81-2.2 3.96-3.3 6.46-3.3 1.33 0 2.48.27 3.46.82s1.78 1.37 2.4 2.48c.91-1.11 1.89-1.93 2.95-2.48s2.18-.82 3.38-.82q2.28 0 3.87.93c1.06.62 1.84 1.53 2.36 2.72.38.89.57 2.32.57 4.3v13.26h-5.49v-11.86c0-2.06-.19-3.39-.57-3.98q-.765-1.17-2.34-1.17c-.77 0-1.49.23-2.17.7s-1.17 1.16-1.46 2.06-.45 2.33-.45 4.29v9.96h-5.49v-11.37c0-2.02-.1-3.32-.29-3.91s-.5-1.02-.91-1.31-.97-.43-1.67-.43c-.85 0-1.61.23-2.29.68s-1.16 1.11-1.46 1.97-.44 2.29-.44 4.28v10.08h-5.49v-20.74z"/><path id="path23" d="M1273.52 587.78v-5.08h5.49v5.08zm0 23.55v-20.74h5.49v20.74z"/><path id="path24" d="M1303.5 611.33h-5.49v-10.59c0-2.24-.12-3.69-.35-4.35s-.62-1.17-1.14-1.53-1.16-.55-1.9-.55c-.95 0-1.8.26-2.56.78s-1.27 1.21-1.55 2.07q-.42 1.29-.42 4.77v9.39h-5.49v-20.74h5.1v3.05c1.81-2.34 4.09-3.52 6.84-3.52 1.21 0 2.32.22 3.32.65s1.76.99 2.28 1.67.87 1.45 1.07 2.3.3 2.09.3 3.69v12.89z"/><path id="path25" d="M1307.79 600.67c0-1.82.45-3.59 1.35-5.29s2.17-3.01 3.82-3.91q2.475-1.35 5.52-1.35 4.71 0 7.71 3.06c2 2.04 3.01 4.61 3.01 7.72s-1.01 5.74-3.04 7.8-4.57 3.1-7.65 3.1c-1.9 0-3.71-.43-5.44-1.29s-3.04-2.12-3.94-3.78q-1.35-2.49-1.35-6.06zm5.63.29c0 2.06.49 3.63 1.46 4.73s2.18 1.64 3.61 1.64 2.63-.55 3.6-1.64 1.46-2.68 1.46-4.77-.49-3.59-1.46-4.69-2.17-1.64-3.6-1.64-2.64.55-3.61 1.64-1.46 2.67-1.46 4.73"/><path id="path26" d="m1348.71 596.92-4.98-.9c.56-2 1.52-3.49 2.89-4.45s3.4-1.45 6.09-1.45c2.45 0 4.27.29 5.47.87s2.04 1.32 2.53 2.21.73 2.53.73 4.91l-.06 6.41c0 1.82.09 3.17.26 4.03s.5 1.79.99 2.78h-5.43c-.14-.36-.32-.91-.53-1.62-.09-.33-.16-.54-.2-.64-.94.91-1.94 1.59-3.01 2.05s-2.21.68-3.42.68c-2.14 0-3.82-.58-5.05-1.74s-1.85-2.62-1.85-4.39c0-1.17.28-2.22.84-3.13s1.34-1.62 2.35-2.11 2.46-.92 4.37-1.28c2.57-.48 4.34-.93 5.33-1.35v-.55c0-1.05-.26-1.81-.78-2.26s-1.5-.67-2.95-.67c-.98 0-1.74.19-2.29.58s-.99 1.06-1.33 2.02zm7.34 4.45c-.7.23-1.82.51-3.34.84s-2.52.64-2.99.96c-.72.51-1.07 1.15-1.07 1.93s.29 1.43.86 1.99q.855.84 2.19.84c.99 0 1.93-.33 2.83-.98.66-.5 1.1-1.1 1.31-1.82.14-.47.21-1.36.21-2.68v-1.09z"/><path id="path27" d="m1384.94 596.72-5.41.98c-.18-1.08-.6-1.89-1.24-2.44s-1.48-.82-2.51-.82c-1.37 0-2.46.47-3.27 1.42s-1.22 2.52-1.22 4.74c0 2.46.41 4.2 1.24 5.21s1.94 1.52 3.33 1.52c1.04 0 1.89-.3 2.56-.89s1.13-1.61 1.41-3.06l5.39.92c-.56 2.47-1.63 4.34-3.22 5.61s-3.72 1.89-6.39 1.89c-3.03 0-5.45-.96-7.26-2.87s-2.71-4.56-2.71-7.95.91-6.09 2.71-8 4.26-2.86 7.34-2.86c2.53 0 4.53.54 6.03 1.63s2.56 2.74 3.21 4.97z"/><path id="path28" d="M1389.1 587.78v-5.08h5.49v5.08zm0 23.55v-20.74h5.49v20.74z"/><path id="path29" d="M1419.24 611.33h-5.1v-3.05c-.85 1.18-1.85 2.07-3 2.65s-2.31.87-3.49.87q-3.57 0-6.12-2.88t-2.55-8.04c0-3.44.83-6.19 2.48-8.02s3.74-2.74 6.27-2.74c2.32 0 4.32.96 6.02 2.89V582.7h5.49zm-14.65-10.82c0 2.21.31 3.82.92 4.8.89 1.43 2.12 2.15 3.71 2.15 1.26 0 2.34-.54 3.22-1.61s1.33-2.68 1.33-4.81c0-2.38-.43-4.1-1.29-5.15s-1.96-1.57-3.3-1.57-2.39.52-3.27 1.55-1.32 2.58-1.32 4.64"/><path id="path30" d="m1422.71 605.41 5.51-.84c.23 1.07.71 1.88 1.43 2.43s1.72.83 3.01.83c1.42 0 2.49-.26 3.2-.78.48-.36.72-.85.72-1.46 0-.42-.13-.76-.39-1.04-.27-.26-.89-.5-1.84-.72-4.43-.98-7.23-1.87-8.42-2.68-1.64-1.12-2.46-2.68-2.46-4.67q0-2.7 2.13-4.53c1.42-1.22 3.62-1.84 6.6-1.84s4.95.46 6.33 1.39 2.33 2.29 2.85 4.1l-5.18.96q-.33-1.215-1.26-1.86c-.62-.43-1.5-.64-2.65-.64-1.45 0-2.48.2-3.11.61-.42.29-.62.66-.62 1.11 0 .39.18.72.55 1 .5.36 2.2.88 5.13 1.54s4.96 1.48 6.12 2.44c1.15.98 1.72 2.34 1.72 4.08 0 1.9-.79 3.54-2.38 4.9s-3.94 2.05-7.05 2.05c-2.83 0-5.06-.57-6.71-1.72s-2.72-2.7-3.23-4.67z"/><path id="path31" d="M1069.83 645.19c0 1.6-.56 2.97-1.69 4.09s-2.48 1.69-4.07 1.69-2.97-.57-4.09-1.7-1.69-2.49-1.69-4.08.56-2.95 1.69-4.07 2.49-1.69 4.09-1.69 2.95.56 4.07 1.68 1.69 2.48 1.69 4.08"/><path id="path32" d="m1076.82 652.71 5.31-.59q.195 1.62 1.02 2.4c.55.52 1.27.78 2.17.78 1.13 0 2.1-.52 2.89-1.56s1.3-3.2 1.52-6.48c-1.38 1.6-3.11 2.4-5.18 2.4-2.25 0-4.2-.87-5.83-2.61s-2.45-4-2.45-6.79.86-5.24 2.59-7.02 3.92-2.67 6.59-2.67c2.9 0 5.29 1.12 7.15 3.37s2.79 5.94 2.79 11.08-.97 9.01-2.91 11.33-4.47 3.48-7.58 3.48c-2.24 0-4.05-.6-5.43-1.79s-2.27-2.97-2.66-5.34zm12.42-11.99c0-1.77-.41-3.14-1.22-4.12s-1.75-1.46-2.82-1.46-1.86.4-2.53 1.2-1.01 2.11-1.01 3.94.36 3.21 1.09 4.07 1.64 1.3 2.73 1.3 1.94-.42 2.67-1.25 1.08-2.06 1.08-3.67z"/><path id="path33" d="M1099.49 651.69v-5.49h10.78v5.49z"/><path id="path34" d="M1113.03 638.59h5.06v2.83c1.81-2.2 3.96-3.3 6.46-3.3 1.33 0 2.48.27 3.46.82s1.78 1.37 2.4 2.48c.91-1.11 1.89-1.93 2.95-2.48s2.18-.82 3.38-.82q2.28 0 3.87.93c1.06.62 1.84 1.53 2.36 2.72.38.89.57 2.32.57 4.3v13.26h-5.49v-11.86c0-2.06-.19-3.39-.57-3.98q-.765-1.17-2.34-1.17c-.77 0-1.49.23-2.17.7s-1.17 1.16-1.46 2.06-.45 2.33-.45 4.29v9.96h-5.49v-11.37c0-2.02-.1-3.32-.29-3.91s-.5-1.02-.91-1.31-.97-.43-1.67-.43c-.85 0-1.61.23-2.29.68s-1.16 1.11-1.46 1.97-.44 2.29-.44 4.28v10.08h-5.49v-20.74z"/><path id="path35" d="m1161.02 652.73 5.47.92c-.7 2-1.81 3.53-3.33 4.58s-3.42 1.57-5.69 1.57q-5.415 0-8.01-3.54c-1.37-1.89-2.05-4.27-2.05-7.15 0-3.44.9-6.13 2.7-8.08s4.07-2.92 6.82-2.92c3.09 0 5.52 1.02 7.3 3.06s2.64 5.16 2.56 9.37h-13.75c.04 1.63.48 2.89 1.33 3.8s1.9 1.36 3.16 1.36c.86 0 1.58-.23 2.17-.7s1.03-1.22 1.33-2.27zm.31-5.55c-.04-1.59-.45-2.8-1.23-3.62s-1.73-1.24-2.85-1.24c-1.2 0-2.19.44-2.97 1.31s-1.17 2.06-1.15 3.55z"/><path id="path36" d="M1176.5 659.33h-5.49v-20.74h5.1v2.95c.87-1.39 1.66-2.31 2.35-2.75s1.49-.66 2.37-.66c1.25 0 2.45.34 3.61 1.04l-1.7 4.79q-1.38-.9-2.58-.9c-.8 0-1.42.21-1.95.63s-.95 1.19-1.26 2.29-.46 3.42-.46 6.95v6.41z"/><path id="path37" d="m1184.88 653.41 5.51-.84c.23 1.07.71 1.88 1.43 2.43s1.72.83 3.01.83c1.42 0 2.49-.26 3.2-.78.48-.36.72-.85.72-1.46 0-.42-.13-.76-.39-1.04-.27-.26-.89-.5-1.84-.72-4.43-.98-7.23-1.87-8.42-2.68-1.64-1.12-2.46-2.68-2.46-4.67q0-2.7 2.13-4.53c1.42-1.22 3.62-1.84 6.6-1.84s4.95.46 6.33 1.39 2.33 2.29 2.85 4.1l-5.18.96q-.33-1.215-1.26-1.86c-.62-.43-1.5-.64-2.65-.64-1.45 0-2.48.2-3.11.61-.42.29-.62.66-.62 1.11 0 .39.18.72.55 1 .5.36 2.2.88 5.13 1.54s4.96 1.48 6.12 2.44c1.15.98 1.72 2.34 1.72 4.08 0 1.9-.79 3.54-2.38 4.9s-3.94 2.05-7.05 2.05c-2.83 0-5.06-.57-6.71-1.72s-2.72-2.7-3.23-4.67z"/><path id="path38" d="m1237.6 637.71-5.31.59c-.13-1.09-.47-1.9-1.02-2.42q-.825-.78-2.13-.78-1.74 0-2.94 1.56c-.8 1.04-1.31 3.21-1.51 6.5 1.37-1.61 3.07-2.42 5.1-2.42 2.29 0 4.25.87 5.89 2.62s2.45 4 2.45 6.76q0 4.395-2.58 7.05c-1.72 1.77-3.93 2.66-6.62 2.66-2.89 0-5.27-1.12-7.13-3.37q-2.79-3.375-2.79-11.04c0-5.11.97-9.03 2.91-11.35q2.91-3.48 7.56-3.48 3.255 0 5.4 1.83c1.43 1.22 2.33 2.99 2.72 5.3zm-12.44 11.97c0 1.78.41 3.16 1.23 4.13s1.76 1.46 2.81 1.46 1.86-.4 2.54-1.19 1.02-2.1 1.02-3.91-.36-3.23-1.09-4.09-1.64-1.3-2.73-1.3-1.95.41-2.68 1.24-1.09 2.05-1.09 3.66z"/><path id="path39" d="M1250.53 630.58c2.77 0 4.94.99 6.5 2.97 1.86 2.34 2.79 6.23 2.79 11.66s-.94 9.31-2.81 11.68c-1.55 1.95-3.71 2.93-6.48 2.93s-5.03-1.07-6.74-3.21-2.56-5.96-2.56-11.46.94-9.27 2.81-11.64c1.55-1.95 3.71-2.93 6.48-2.93zm0 4.55c-.66 0-1.26.21-1.78.63s-.92 1.18-1.21 2.28q-.57 2.13-.57 7.17c0 3.36.17 5.67.51 6.92s.76 2.09 1.28 2.51 1.1.62 1.77.62 1.26-.21 1.78-.63.92-1.18 1.21-2.28c.38-1.41.57-3.79.57-7.15s-.17-5.67-.51-6.92-.76-2.1-1.28-2.52-1.1-.63-1.77-.63"/><path id="path40" d="M1263.54 637.77c0-2.57.56-4.47 1.69-5.7s2.65-1.86 4.58-1.86 3.55.62 4.68 1.85 1.69 3.13 1.69 5.71-.56 4.47-1.69 5.7-2.65 1.86-4.58 1.86-3.55-.62-4.68-1.85-1.69-3.13-1.69-5.71m4.27-.04c0 1.86.21 3.11.64 3.75.33.47.77.7 1.35.7s1.04-.23 1.37-.7c.42-.64.62-1.89.62-3.75s-.21-3.11-.62-3.73c-.33-.48-.78-.72-1.37-.72s-1.02.23-1.35.7c-.43.64-.64 1.89-.64 3.75m6.17 22.69h-4.06l15.25-30.21h3.95zm8.87-7.52c0-2.57.56-4.47 1.69-5.7s2.67-1.86 4.62-1.86 3.51.62 4.64 1.86 1.69 3.14 1.69 5.7-.56 4.49-1.69 5.72-2.65 1.86-4.58 1.86-3.55-.62-4.68-1.86-1.69-3.14-1.69-5.72m4.28-.02c0 1.86.21 3.11.64 3.73.33.48.77.72 1.35.72s1.04-.23 1.35-.7c.43-.64.64-1.89.64-3.75s-.21-3.11-.62-3.75c-.33-.47-.78-.7-1.37-.7s-1.04.23-1.35.7c-.43.64-.64 1.89-.64 3.75"/><path id="path41" d="M1310.08 648.67c0-1.82.45-3.59 1.35-5.29s2.17-3.01 3.82-3.91q2.475-1.35 5.52-1.35 4.71 0 7.71 3.06c2 2.04 3.01 4.61 3.01 7.72s-1.01 5.74-3.04 7.8-4.57 3.1-7.65 3.1c-1.9 0-3.71-.43-5.44-1.29s-3.04-2.12-3.94-3.78q-1.35-2.49-1.35-6.06zm5.62.29c0 2.06.49 3.63 1.46 4.73s2.18 1.64 3.61 1.64 2.63-.55 3.6-1.64 1.46-2.68 1.46-4.77-.49-3.59-1.46-4.69-2.17-1.64-3.6-1.64-2.64.55-3.61 1.64-1.46 2.67-1.46 4.73"/><path id="path42" d="M1333.38 638.59h3.05v-1.56c0-1.75.19-3.05.56-3.91s1.05-1.56 2.05-2.1q1.5-.81 3.78-.81c1.52 0 3.09.23 4.59.7l-.74 3.83c-.87-.21-1.71-.31-2.52-.31s-1.36.19-1.71.56-.52 1.08-.52 2.14v1.46h4.1v4.32h-4.1v16.43h-5.49v-16.43h-3.05z"/><path id="path43" d="m1378.3 644.72-5.41.98c-.18-1.08-.6-1.89-1.24-2.44s-1.48-.82-2.51-.82c-1.37 0-2.46.47-3.27 1.42s-1.22 2.52-1.22 4.74c0 2.46.41 4.2 1.24 5.21s1.94 1.52 3.33 1.52c1.04 0 1.89-.3 2.56-.89s1.13-1.61 1.41-3.06l5.39.92c-.56 2.47-1.63 4.34-3.22 5.61s-3.72 1.89-6.39 1.89c-3.03 0-5.45-.96-7.26-2.87s-2.71-4.56-2.71-7.95.91-6.09 2.71-8 4.26-2.86 7.34-2.86c2.53 0 4.53.54 6.03 1.63s2.56 2.74 3.21 4.97z"/><path id="path44" d="M1387.93 630.7v10.53c1.77-2.07 3.89-3.11 6.35-3.11 1.26 0 2.4.23 3.42.7s1.78 1.07 2.29 1.8.87 1.54 1.05 2.42.28 2.26.28 4.12v12.17h-5.49v-10.96c0-2.17-.1-3.55-.31-4.14s-.58-1.05-1.1-1.4-1.19-.52-1.98-.52c-.91 0-1.73.22-2.44.66s-1.24 1.11-1.57 2-.5 2.21-.5 3.96v10.39h-5.49v-28.63h5.49z"/><path id="path45" d="m1411 644.92-4.98-.9c.56-2 1.52-3.49 2.89-4.45s3.4-1.45 6.09-1.45c2.45 0 4.27.29 5.47.87s2.04 1.32 2.53 2.21.73 2.53.73 4.91l-.06 6.41c0 1.82.09 3.17.26 4.03s.5 1.79.99 2.78h-5.43c-.14-.36-.32-.91-.53-1.62-.09-.33-.16-.54-.2-.64-.94.91-1.94 1.59-3.01 2.05s-2.21.68-3.42.68c-2.14 0-3.82-.58-5.05-1.74s-1.85-2.62-1.85-4.39c0-1.17.28-2.22.84-3.13s1.34-1.62 2.35-2.11 2.46-.92 4.37-1.28c2.57-.48 4.34-.93 5.33-1.35v-.55c0-1.05-.26-1.81-.78-2.26s-1.5-.67-2.95-.67c-.98 0-1.74.19-2.29.58s-.99 1.06-1.33 2.02zm7.34 4.45c-.7.23-1.82.51-3.34.84s-2.52.64-2.99.96c-.72.51-1.07 1.15-1.07 1.93s.29 1.43.86 1.99q.855.84 2.19.84c.99 0 1.93-.33 2.83-.98.66-.5 1.1-1.1 1.31-1.82.14-.47.21-1.36.21-2.68v-1.09z"/><path id="path46" d="M1434.39 659.33h-5.49v-20.74h5.1v2.95c.87-1.39 1.66-2.31 2.35-2.75s1.49-.66 2.37-.66c1.25 0 2.45.34 3.61 1.04l-1.7 4.79q-1.38-.9-2.58-.9c-.8 0-1.42.21-1.95.63s-.95 1.19-1.26 2.29-.46 3.42-.46 6.95v6.41z"/><path id="path47" d="m1448.81 644.92-4.98-.9c.56-2 1.52-3.49 2.89-4.45s3.4-1.45 6.09-1.45c2.45 0 4.27.29 5.47.87s2.04 1.32 2.53 2.21.73 2.53.73 4.91l-.06 6.41c0 1.82.09 3.17.26 4.03s.5 1.79.99 2.78h-5.43c-.14-.36-.32-.91-.53-1.62-.09-.33-.16-.54-.2-.64-.94.91-1.94 1.59-3.01 2.05s-2.21.68-3.42.68c-2.14 0-3.82-.58-5.05-1.74s-1.85-2.62-1.85-4.39c0-1.17.28-2.22.84-3.13s1.34-1.62 2.35-2.11 2.46-.92 4.37-1.28c2.57-.48 4.34-.93 5.33-1.35v-.55c0-1.05-.26-1.81-.78-2.26s-1.5-.67-2.95-.67c-.98 0-1.74.19-2.29.58s-.99 1.06-1.33 2.02zm7.34 4.45c-.7.23-1.82.51-3.34.84s-2.52.64-2.99.96c-.72.51-1.07 1.15-1.07 1.93s.29 1.43.86 1.99q.855.84 2.19.84c.99 0 1.93-.33 2.83-.98.66-.5 1.1-1.1 1.31-1.82.14-.47.21-1.36.21-2.68v-1.09z"/><path id="path48" d="m1485.04 644.72-5.41.98c-.18-1.08-.6-1.89-1.24-2.44s-1.48-.82-2.51-.82c-1.37 0-2.46.47-3.27 1.42s-1.22 2.52-1.22 4.74c0 2.46.41 4.2 1.24 5.21s1.94 1.52 3.33 1.52c1.04 0 1.89-.3 2.56-.89s1.13-1.61 1.41-3.06l5.39.92c-.56 2.47-1.63 4.34-3.22 5.61s-3.72 1.89-6.39 1.89c-3.03 0-5.45-.96-7.26-2.87s-2.71-4.56-2.71-7.95.91-6.09 2.71-8 4.26-2.86 7.34-2.86c2.53 0 4.53.54 6.03 1.63s2.56 2.74 3.21 4.97z"/><path id="path49" d="M1498.71 638.59v4.38h-3.75v8.36c0 1.69.04 2.68.11 2.96s.23.51.49.69.56.27.93.27c.51 0 1.24-.18 2.21-.53l.47 4.26c-1.28.55-2.72.82-4.34.82-.99 0-1.88-.17-2.68-.5s-1.38-.76-1.75-1.29-.63-1.24-.77-2.14q-.18-.96-.18-3.87v-9.04h-2.52v-4.38h2.52v-4.12l5.51-3.2v7.32h3.75z"/><path id="path50" d="m1514.53 652.73 5.47.92c-.7 2-1.81 3.53-3.33 4.58s-3.42 1.57-5.69 1.57q-5.415 0-8.01-3.54c-1.37-1.89-2.05-4.27-2.05-7.15 0-3.44.9-6.13 2.7-8.08s4.07-2.92 6.82-2.92c3.09 0 5.52 1.02 7.3 3.06s2.64 5.16 2.56 9.37h-13.75c.04 1.63.48 2.89 1.33 3.8s1.9 1.36 3.16 1.36c.86 0 1.58-.23 2.17-.7s1.03-1.22 1.33-2.27zm.31-5.55c-.04-1.59-.45-2.8-1.23-3.62s-1.73-1.24-2.85-1.24c-1.2 0-2.19.44-2.97 1.31s-1.17 2.06-1.15 3.55z"/><path id="path51" d="M1530.02 659.33h-5.49v-20.74h5.1v2.95c.87-1.39 1.66-2.31 2.35-2.75s1.49-.66 2.37-.66c1.25 0 2.45.34 3.61 1.04l-1.7 4.79q-1.38-.9-2.58-.9c-.8 0-1.42.21-1.95.63s-.95 1.19-1.26 2.29-.46 3.42-.46 6.95v6.41z"/><path id="path52" d="M1540.33 635.78v-5.08h5.49v5.08zm0 23.55v-20.74h5.49v20.74z"/><path id="path53" d="M1549.24 659.33v-4.28l7.77-8.93c1.28-1.46 2.22-2.49 2.83-3.11-.64.04-1.48.07-2.52.08l-7.32.04v-4.55h17.15v3.89l-7.93 9.14-2.79 3.03c1.52-.09 2.47-.14 2.83-.14h8.5v4.82h-18.52z"/><path id="path54" d="m1583.46 652.73 5.47.92c-.7 2-1.81 3.53-3.33 4.58s-3.42 1.57-5.69 1.57q-5.415 0-8.01-3.54c-1.37-1.89-2.05-4.27-2.05-7.15 0-3.44.9-6.13 2.7-8.08s4.07-2.92 6.82-2.92c3.09 0 5.52 1.02 7.3 3.06s2.64 5.16 2.56 9.37h-13.75c.04 1.63.48 2.89 1.33 3.8s1.9 1.36 3.16 1.36c.86 0 1.58-.23 2.17-.7s1.03-1.22 1.33-2.27zm.31-5.55c-.04-1.59-.45-2.8-1.23-3.62s-1.73-1.24-2.85-1.24c-1.2 0-2.19.44-2.97 1.31s-1.17 2.06-1.15 3.55z"/><path id="path55" d="M1612.71 659.33h-5.1v-3.05c-.85 1.18-1.85 2.07-3 2.65s-2.31.87-3.49.87q-3.57 0-6.12-2.88t-2.55-8.04c0-3.44.83-6.19 2.48-8.02s3.74-2.74 6.27-2.74c2.32 0 4.32.96 6.02 2.89V630.7h5.49zm-14.64-10.82c0 2.21.31 3.82.92 4.8.89 1.43 2.12 2.15 3.71 2.15 1.26 0 2.34-.54 3.22-1.61s1.33-2.68 1.33-4.81c0-2.38-.43-4.1-1.29-5.15s-1.96-1.57-3.3-1.57-2.39.52-3.27 1.55-1.32 2.58-1.32 4.64"/><path id="path56" d="M1077.93 707.33V678.7h5.78v11.27h11.33V678.7h5.78v28.63h-5.78v-12.52h-11.33v12.52z"/><path id="path57" d="M1106.95 707.33v-28.4h5.78v23.57h14.38v4.82h-20.16z"/><path id="path58" d="M1157.05 707.33h-6.29l-2.5-6.5h-11.45l-2.36 6.5h-6.13l11.15-28.63h6.11l11.46 28.63zM1146.41 696l-3.95-10.62-3.87 10.62h7.81z"/><path id="path59" d="m1187.79 692.72-5.41.98c-.18-1.08-.6-1.89-1.24-2.44s-1.48-.82-2.51-.82c-1.37 0-2.46.47-3.27 1.42s-1.22 2.52-1.22 4.74c0 2.46.41 4.2 1.24 5.21s1.94 1.52 3.33 1.52c1.04 0 1.89-.3 2.56-.89s1.13-1.61 1.41-3.06l5.39.92c-.56 2.47-1.63 4.34-3.22 5.61s-3.72 1.89-6.39 1.89c-3.03 0-5.45-.96-7.26-2.87s-2.71-4.56-2.71-7.95.91-6.09 2.71-8 4.26-2.86 7.34-2.86c2.53 0 4.53.54 6.03 1.63s2.56 2.74 3.21 4.97z"/><path id="path60" d="M1191.95 707.33V678.7h5.49v28.63z"/><path id="path61" d="m1207.17 692.92-4.98-.9c.56-2 1.52-3.49 2.89-4.45s3.4-1.45 6.09-1.45c2.45 0 4.27.29 5.47.87s2.04 1.32 2.53 2.21.73 2.53.73 4.91l-.06 6.41c0 1.82.09 3.17.26 4.03s.5 1.79.99 2.78h-5.43c-.14-.36-.32-.91-.53-1.62-.09-.33-.16-.54-.2-.64-.94.91-1.94 1.59-3.01 2.05s-2.21.68-3.42.68c-2.14 0-3.82-.58-5.05-1.74s-1.85-2.62-1.85-4.39c0-1.17.28-2.22.84-3.13s1.34-1.62 2.35-2.11 2.46-.92 4.37-1.28c2.57-.48 4.34-.93 5.33-1.35v-.55c0-1.05-.26-1.81-.78-2.26s-1.5-.67-2.95-.67c-.98 0-1.74.19-2.29.58s-.99 1.06-1.33 2.02zm7.34 4.45c-.7.23-1.82.51-3.34.84s-2.52.64-2.99.96c-.72.51-1.07 1.15-1.07 1.93s.29 1.43.86 1.99q.855.84 2.19.84c.99 0 1.93-.33 2.83-.98.66-.5 1.1-1.1 1.31-1.82.14-.47.21-1.36.21-2.68v-1.09z"/><path id="path62" d="m1223.38 701.41 5.51-.84c.23 1.07.71 1.88 1.43 2.43s1.72.83 3.01.83c1.42 0 2.49-.26 3.2-.78.48-.36.72-.85.72-1.46 0-.42-.13-.76-.39-1.04-.27-.26-.89-.5-1.84-.72-4.43-.98-7.23-1.87-8.42-2.68-1.64-1.12-2.46-2.68-2.46-4.67q0-2.7 2.13-4.53c1.42-1.22 3.62-1.84 6.6-1.84s4.95.46 6.33 1.39 2.33 2.29 2.85 4.1l-5.18.96q-.33-1.215-1.26-1.86c-.62-.43-1.5-.64-2.65-.64-1.45 0-2.48.2-3.11.61-.42.29-.62.66-.62 1.11 0 .39.18.72.55 1 .5.36 2.2.88 5.13 1.54s4.96 1.48 6.12 2.44c1.15.98 1.72 2.34 1.72 4.08 0 1.9-.79 3.54-2.38 4.9s-3.94 2.05-7.05 2.05c-2.83 0-5.06-.57-6.71-1.72s-2.72-2.7-3.23-4.67z"/><path id="path63" d="m1245.62 701.41 5.51-.84c.23 1.07.71 1.88 1.43 2.43s1.72.83 3.01.83c1.42 0 2.49-.26 3.2-.78.48-.36.72-.85.72-1.46 0-.42-.13-.76-.39-1.04-.27-.26-.89-.5-1.84-.72-4.43-.98-7.23-1.87-8.42-2.68-1.64-1.12-2.46-2.68-2.46-4.67q0-2.7 2.13-4.53c1.42-1.22 3.62-1.84 6.6-1.84s4.95.46 6.33 1.39 2.33 2.29 2.85 4.1l-5.18.96q-.33-1.215-1.26-1.86c-.62-.43-1.5-.64-2.65-.64-1.45 0-2.48.2-3.11.61-.42.29-.62.66-.62 1.11 0 .39.18.72.55 1 .5.36 2.2.88 5.13 1.54s4.96 1.48 6.12 2.44c1.15.98 1.72 2.34 1.72 4.08 0 1.9-.79 3.54-2.38 4.9s-3.94 2.05-7.05 2.05c-2.83 0-5.06-.57-6.71-1.72s-2.72-2.7-3.23-4.67z"/><path id="path64" d="M1280.78 707.33V678.7h5.78v28.63z"/><path id="path65" d="M1302.91 707.33V678.7h5.49v10.31c1.69-1.93 3.7-2.89 6.02-2.89 2.53 0 4.62.92 6.27 2.74s2.48 4.46 2.48 7.88-.84 6.27-2.53 8.18-3.73 2.87-6.14 2.87c-1.18 0-2.35-.3-3.51-.89s-2.15-1.47-2.98-2.63v3.05h-5.1zm5.45-10.82q0 3.225 1.02 4.77c.95 1.46 2.21 2.19 3.79 2.19 1.21 0 2.24-.52 3.1-1.55s1.28-2.67 1.28-4.89q0-3.555-1.29-5.13c-.86-1.05-1.96-1.57-3.3-1.57s-2.41.51-3.28 1.53-1.31 2.58-1.31 4.66z"/><path id="path66" d="M1326.31 696.67c0-1.82.45-3.59 1.35-5.29s2.17-3.01 3.82-3.91q2.475-1.35 5.52-1.35 4.71 0 7.71 3.06c2 2.04 3.01 4.61 3.01 7.72s-1.01 5.74-3.04 7.8-4.57 3.1-7.65 3.1c-1.9 0-3.71-.43-5.44-1.29s-3.04-2.12-3.94-3.78q-1.35-2.49-1.35-6.06zm5.62.29c0 2.06.49 3.63 1.46 4.73s2.18 1.64 3.61 1.64 2.63-.55 3.6-1.64 1.46-2.68 1.46-4.77-.49-3.59-1.46-4.69-2.17-1.64-3.6-1.64-2.64.55-3.61 1.64-1.46 2.67-1.46 4.73"/><path id="path67" d="M1365.66 707.33v-3.11c-.75 1.11-1.75 1.98-2.98 2.62q-1.845.96-3.9.96c-1.37 0-2.64-.31-3.75-.92q-1.665-.915-2.4-2.58c-.49-1.11-.74-2.64-.74-4.59v-13.12h5.49v9.53c0 2.92.1 4.7.3 5.36s.57 1.18 1.1 1.56 1.21.58 2.03.58c.94 0 1.78-.26 2.52-.77s1.25-1.15 1.52-1.91.41-2.63.41-5.6v-8.75h5.49v20.74h-5.1z"/><path id="path68" d="M1395.31 707.33h-5.49v-10.59c0-2.24-.12-3.69-.35-4.35s-.62-1.17-1.14-1.53-1.16-.55-1.9-.55c-.95 0-1.8.26-2.56.78s-1.27 1.21-1.55 2.07q-.42 1.29-.42 4.77v9.39h-5.49v-20.74h5.1v3.05c1.81-2.34 4.09-3.52 6.84-3.52 1.21 0 2.32.22 3.32.65s1.76.99 2.28 1.67.87 1.45 1.07 2.3.3 2.09.3 3.69v12.89z"/><path id="path69" d="M1419.9 707.33h-5.1v-3.05c-.85 1.18-1.85 2.07-3 2.65s-2.31.87-3.49.87q-3.57 0-6.12-2.88t-2.55-8.04c0-3.44.83-6.19 2.48-8.02s3.74-2.74 6.27-2.74c2.32 0 4.32.96 6.02 2.89V678.7h5.49zm-14.65-10.82c0 2.21.31 3.82.92 4.8.89 1.43 2.12 2.15 3.71 2.15 1.26 0 2.34-.54 3.22-1.61s1.33-2.68 1.33-4.81c0-2.38-.43-4.1-1.29-5.15s-1.96-1.57-3.3-1.57-2.39.52-3.27 1.55-1.32 2.58-1.32 4.64"/><path id="path70" d="M1436.27 686.59h5.12v3.05c.66-1.04 1.56-1.89 2.7-2.54s2.39-.98 3.77-.98c2.41 0 4.45.94 6.13 2.83q2.52 2.835 2.52 7.89c0 3.37-.85 6.16-2.54 8.08q-2.535 2.88-6.15 2.88c-1.15 0-2.18-.23-3.12-.68s-1.91-1.24-2.94-2.34v10.45h-5.49V686.6Zm5.43 10.02c0 2.33.46 4.05 1.39 5.17s2.05 1.67 3.38 1.67 2.34-.51 3.18-1.53 1.27-2.7 1.27-5.03c0-2.17-.44-3.79-1.31-4.84s-1.95-1.58-3.24-1.58-2.45.52-3.34 1.55-1.33 2.57-1.33 4.6z"/><path id="path71" d="m1472.87 700.73 5.47.92c-.7 2-1.81 3.53-3.33 4.58s-3.42 1.57-5.69 1.57q-5.415 0-8.01-3.54c-1.37-1.89-2.05-4.27-2.05-7.15 0-3.44.9-6.13 2.7-8.08s4.07-2.92 6.82-2.92c3.09 0 5.52 1.02 7.3 3.06s2.64 5.16 2.56 9.37h-13.75c.04 1.63.48 2.89 1.33 3.8s1.9 1.36 3.16 1.36c.86 0 1.58-.23 2.17-.7s1.03-1.22 1.33-2.27zm.31-5.55c-.04-1.59-.45-2.8-1.23-3.62s-1.73-1.24-2.85-1.24c-1.2 0-2.19.44-2.97 1.31s-1.17 2.06-1.15 3.55z"/><path id="path72" d="M1482.95 686.59h5.12v3.05c.66-1.04 1.56-1.89 2.7-2.54s2.39-.98 3.77-.98c2.41 0 4.45.94 6.13 2.83q2.52 2.835 2.52 7.89c0 3.37-.85 6.16-2.54 8.08q-2.535 2.88-6.15 2.88c-1.15 0-2.18-.23-3.12-.68s-1.91-1.24-2.94-2.34v10.45h-5.49V686.6Zm5.43 10.02c0 2.33.46 4.05 1.39 5.17s2.05 1.67 3.38 1.67 2.34-.51 3.18-1.53 1.27-2.7 1.27-5.03c0-2.17-.44-3.79-1.31-4.84s-1.95-1.58-3.24-1.58-2.45.52-3.34 1.55-1.33 2.57-1.33 4.6z"/><path id="path73" d="M1517.05 686.59v4.38h-3.75v8.36c0 1.69.04 2.68.11 2.96s.23.51.49.69.56.27.93.27c.51 0 1.24-.18 2.21-.53l.47 4.26c-1.28.55-2.72.82-4.34.82-.99 0-1.88-.17-2.68-.5s-1.38-.76-1.75-1.29-.63-1.24-.77-2.14q-.18-.96-.18-3.87v-9.04h-2.52v-4.38h2.52v-4.12l5.51-3.2v7.32h3.75z"/><path id="path74" d="M1520.86 683.78v-5.08h5.49v5.08zm0 23.55v-20.74h5.49v20.74z"/><path id="path75" d="M1551 707.33h-5.1v-3.05c-.85 1.18-1.85 2.07-3 2.65s-2.31.87-3.49.87q-3.57 0-6.12-2.88t-2.55-8.04c0-3.44.83-6.19 2.48-8.02s3.74-2.74 6.27-2.74c2.32 0 4.32.96 6.02 2.89V678.7h5.49zm-14.65-10.82c0 2.21.31 3.82.92 4.8.89 1.43 2.12 2.15 3.71 2.15 1.26 0 2.34-.54 3.22-1.61s1.33-2.68 1.33-4.81c0-2.38-.43-4.1-1.29-5.15s-1.96-1.57-3.3-1.57-2.39.52-3.27 1.55-1.32 2.58-1.32 4.64"/><path id="path76" d="m1568.42 700.73 5.47.92c-.7 2-1.81 3.53-3.33 4.58s-3.42 1.57-5.69 1.57q-5.415 0-8.01-3.54c-1.37-1.89-2.05-4.27-2.05-7.15 0-3.44.9-6.13 2.7-8.08s4.07-2.92 6.82-2.92c3.09 0 5.52 1.02 7.3 3.06s2.64 5.16 2.56 9.37h-13.75c.04 1.63.48 2.89 1.33 3.8s1.9 1.36 3.16 1.36c.86 0 1.58-.23 2.17-.7s1.03-1.22 1.33-2.27zm.31-5.55c-.04-1.59-.45-2.8-1.23-3.62s-1.73-1.24-2.85-1.24c-1.2 0-2.19.44-2.97 1.31s-1.17 2.06-1.15 3.55z"/><path id="path77" d="m1576.72 701.41 5.51-.84c.23 1.07.71 1.88 1.43 2.43s1.72.83 3.01.83c1.42 0 2.49-.26 3.2-.78.48-.36.72-.85.72-1.46 0-.42-.13-.76-.39-1.04-.27-.26-.89-.5-1.84-.72-4.43-.98-7.23-1.87-8.42-2.68-1.64-1.12-2.46-2.68-2.46-4.67q0-2.7 2.13-4.53c1.42-1.22 3.62-1.84 6.6-1.84s4.95.46 6.33 1.39 2.33 2.29 2.85 4.1l-5.18.96q-.33-1.215-1.26-1.86c-.62-.43-1.5-.64-2.65-.64-1.45 0-2.48.2-3.11.61-.42.29-.62.66-.62 1.11 0 .39.18.72.55 1 .5.36 2.2.88 5.13 1.54s4.96 1.48 6.12 2.44c1.15.98 1.72 2.34 1.72 4.08 0 1.9-.79 3.54-2.38 4.9s-3.94 2.05-7.05 2.05c-2.83 0-5.06-.57-6.71-1.72s-2.72-2.7-3.23-4.67z"/></g><text id="text78" style="font-weight:700;font-family:Arial-BoldItalicMT,Arial;font-style:italic;font-size:72px" transform="translate(271.77 496.55)"><tspan id="tspan77" x="0" y="0">HLA</tspan><tspan id="tspan78" x="0" y="86.4">Class I</tspan></text><path id="path88" d="M1187.5 236.5s68-6 75-5c0 0 184 2 213 27 0 0 31 10 29 80s-60 114-60 114-49 21-72 24-150 16-164 13-67-11-78-64-16-77-3-111 40-80 60-78z" class="st4" style="fill:#99badd;fill-opacity:1"/><text id="text88" class="st6" transform="translate(1076.67 426.44)"><tspan id="tspan88" x="0" y="0">α­</tspan></text><text id="text89" class="st6" transform="matrix(.58 0 0 .58 1108.64 443.75)"><tspan id="tspan89" x="0" y="0">2</tspan></text><text id="text89-5" x="785.08" y="540.36" class="st6" style="font-weight:700;font-size:30.16px;font-family:Arial-BoldMT,Arial;stroke-width:.58"><tspan id="tspan89-3" x="785.08" y="540.36" style="stroke-width:.58">2</tspan></text><text id="text90" class="st6" transform="translate(1498.67 424.44)"><tspan id="tspan90" x="0" y="0">α­</tspan></text><text id="text91" class="st6" transform="matrix(.58 0 0 .58 1530.64 441.75)"><tspan id="tspan91" x="0" y="0">1</tspan></text><text id="text104" class="st6" transform="translate(955.77 130.94)"><tspan id="tspan104" x="0" y="0">Peptide</tspan></text><path id="line105" d="m754 124 194.5-13.5" class="st1"/><path id="line106" d="m1065.5 141.5 79 192" class="st1"/><text id="text106" style="font-size:52px;font-weight:700;font-family:Arial-BoldItalicMT,Arial;font-style:italic" transform="translate(1158.37 554.55)"><tspan id="tspan106" x="0" y="0">Binding Cleft</tspan></text><path id="path78" d="M1168.68 335.33s-17.26.31-17.22 17.74 12.16 17.95 12.16 17.95 19.84 1.89 24.36-14.81-19.3-20.87-19.3-20.87" class="st3"/><path id="path79" d="M1198.34 358.25s-17.26.31-17.22 17.74 12.16 17.95 12.16 17.95 19.84 1.89 24.36-14.81-19.3-20.87-19.3-20.87" class="st3"/><path id="path80" d="M1236.34 344.25s-17.26.31-17.22 17.74 12.16 17.95 12.16 17.95 19.84 1.89 24.36-14.81-19.3-20.87-19.3-20.87" class="st3"/><path id="path81" d="M1273.34 356.25s-17.26.31-17.22 17.74 12.16 17.95 12.16 17.95 19.84 1.89 24.36-14.81-19.3-20.87-19.3-20.87" class="st3"/><path id="path82" d="M1313.34 351.25s-17.26.31-17.22 17.74 12.16 17.95 12.16 17.95 19.84 1.89 24.36-14.81-19.3-20.87-19.3-20.87" class="st3"/><path id="path83" d="M1353.34 355.25s-17.26.31-17.22 17.74 12.16 17.95 12.16 17.95 19.84 1.89 24.36-14.81-19.3-20.87-19.3-20.87" class="st3"/><path id="path84" d="M1392.73 341.46s-17.26.31-17.22 17.74 12.16 17.95 12.16 17.95 19.84 1.89 24.36-14.81-19.3-20.87-19.3-20.87" class="st3"/><path id="path85" d="M1424.34 361.25s-17.26.31-17.22 17.74 12.16 17.95 12.16 17.95 19.84 1.89 24.36-14.81-19.3-20.87-19.3-20.87" class="st3"/><path id="path86" d="M1452.25 331.94s-17.26.31-17.22 17.74 12.16 17.95 12.16 17.95 19.84 1.89 24.36-14.81-19.3-20.87-19.3-20.87" class="st3"/></g></svg>