<svg xmlns="http://www.w3.org/2000/svg" viewBox="0 0 150 150"><path d="M69.42 82.11c-.15 1.29-1.48 4.82.39 5.2 2.57.53 3.88-5.69 9.81-2.38 3.41 1.9 3.84 7.81 5.54 11.19l3.62.1c-.75-3.65-2.69-6.14-1.46-9.96s12.94-13.94 7.44-16.43c-1.48-.67-6.7 4.15-6.75.74-.1-6.31 9.96-9.95 8.08-16.18s-9.76 5.2-12.92 2.47c-3.31-4.87 15.93-16.37-2.58-15.63v-4.46h40.95l-.1 4.36c-4.04 1.02-6.53 1-9.16 4.61l-26.56 67.5-21.14-.65-26.85-66.85c-2.42-3.34-5.08-4.46-9.22-4.54l-.04-4.43h41.69v4.46c-20.46-.08 6.58 13.71 2.97 17.09-3.25 1.2-10.17-4.22-12.3-.75-3.81 6.23 11.38 10.38 14.2 13.35 2.46 2.6 3.15 7.31 4.8 10.43-4.69.54-3.46-3.08-5.31-5.48-3.72-4.82-3.61 3.63-4.14 5.35-.27.88-.95.82-.98.88.29-2.47 1.13-4.88.73-7.42-10.86-2.98-13.21 7.75-2.62 10.41.26-1.22 1.56-2.39 1.89-2.99Z" style="fill:#8a6e4b"/></svg>