<svg xmlns="http://www.w3.org/2000/svg" id="Layer_2" viewBox="0 0 150 150"><defs><style>.st0{fill:#6db43d}</style></defs><path d="M20 100h105v3H20zm96-1V66h6v33zm-13 0V66h6v33zm-13-1V65h6v33zm-13 0V65h6v33zm-14 0V65h6v33zm-13 0V65h6v33zm-14 0V65h6v33zm-12 0V65h6v33z" class="st0"/><path d="M21 59h105v7H21zm52-20L22.64 50.43 21 54h104l-1-3zM24 96h98v3H24zm0-41h3v4h-3zm7 0h3v4h-3zm6 0h3v4h-3zm7 0h3v4h-3zm7 0h3v4h-3zm7 0h3v4h-3zm6 0h3v4h-3zm7 0h3v4h-3zm7 0h3v4h-3zm7 0h3v4h-3zm7 0h3v4h-3zm6 0h3v4h-3zm6 0h3v4h-3zm8 0h3v4h-3zm6 0h3v4h-3z" class="st0"/></svg>