<svg xmlns="http://www.w3.org/2000/svg" id="Layer_2" viewBox="0 0 150 150"><defs id="defs1"><style id="style1">.st0{fill:#6db43d}</style></defs><path id="rect1" d="M6.142 114.098H143.79v3.933H6.142z" class="st0" style="stroke-width:1.31093"/><path id="rect2" d="M-112.787 131.992h43.261v7.866h-43.261z" class="st0" style="stroke-width:1.31093" transform="rotate(-90)"/><path id="rect3" d="M-112.787 114.95h43.261v7.866h-43.261z" class="st0" style="stroke-width:1.31093" transform="rotate(-90)"/><path id="rect4" d="M-111.476 97.908h43.261v7.866h-43.261z" class="st0" style="stroke-width:1.31093" transform="rotate(-90)"/><path id="rect5" d="M-111.476 80.865h43.261v7.866h-43.261z" class="st0" style="stroke-width:1.31093" transform="rotate(-90)"/><path id="rect6" d="M-111.476 62.512h43.261v7.866h-43.261z" class="st0" style="stroke-width:1.31093" transform="rotate(-90)"/><path id="rect7" d="M-111.476 45.47h43.261v7.866h-43.261z" class="st0" style="stroke-width:1.31093" transform="rotate(-90)"/><path id="rect8" d="M-111.476 27.117h43.261v7.866h-43.261z" class="st0" style="stroke-width:1.31093" transform="rotate(-90)"/><path id="rect9" d="M-111.476 11.386h43.261v7.866h-43.261z" class="st0" style="stroke-width:1.31093" transform="rotate(-90)"/><path id="rect10" d="M7.453 60.35h137.648v9.177H7.453z" class="st0" style="stroke-width:1.31093"/><path id="polygon10" d="M21 54h104l-1-3-51-12-50.36 11.43z" class="st0" transform="translate(-20.076 -16.995)scale(1.31093)"/><path id="rect11" d="M11.386 108.854h128.471v3.933H11.386z" class="st0" style="stroke-width:1.31093"/><path id="rect12" d="M11.386 55.106h3.933v5.244h-3.933z" class="st0" style="stroke-width:1.31093"/><path id="rect13" d="M20.563 55.106h3.933v5.244h-3.933z" class="st0" style="stroke-width:1.31093"/><path id="rect14" d="M28.428 55.106h3.933v5.244h-3.933z" class="st0" style="stroke-width:1.31093"/><path id="rect15" d="M37.605 55.106h3.933v5.244h-3.933z" class="st0" style="stroke-width:1.31093"/><path id="rect16" d="M46.781 55.106h3.933v5.244h-3.933z" class="st0" style="stroke-width:1.31093"/><path id="rect17" d="M55.958 55.106h3.933v5.244h-3.933z" class="st0" style="stroke-width:1.31093"/><path id="rect18" d="M63.823 55.106h3.933v5.244h-3.933z" class="st0" style="stroke-width:1.31093"/><path id="rect19" d="M73 55.106h3.933v5.244H73z" class="st0" style="stroke-width:1.31093"/><path id="rect20" d="M82.176 55.106h3.933v5.244h-3.933z" class="st0" style="stroke-width:1.31093"/><path id="rect21" d="M91.353 55.106h3.933v5.244h-3.933z" class="st0" style="stroke-width:1.31093"/><path id="rect22" d="M100.529 55.106h3.933v5.244h-3.933z" class="st0" style="stroke-width:1.31093"/><path id="rect23" d="M108.395 55.106h3.933v5.244h-3.933z" class="st0" style="stroke-width:1.31093"/><path id="rect24" d="M116.261 55.106h3.933v5.244h-3.933z" class="st0" style="stroke-width:1.31093"/><path id="rect25" d="M126.748 55.106h3.933v5.244h-3.933z" class="st0" style="stroke-width:1.31093"/><path id="rect26" d="M134.614 55.106h3.933v5.244h-3.933z" class="st0" style="stroke-width:1.31093"/></svg>