<svg xmlns="http://www.w3.org/2000/svg" xml:space="preserve" id="Layer_1" x="0" y="0" viewBox="0 0 213.5 56.2"><style>.st0{fill:#646569}</style><path d="M59 16.9v22.6h-4V29.3H44.8v10.2h-4V16.9h4v9H55v-9zM36.8 39.5h-4V16.9h4zm-7.8 0h-4.2L14.5 22.8h-.1v16.6h-3.8V16.9h4.2l10.3 16.6h.1V16.9H29zm43.9-11.4L59 2.8H7.5c-2.6 0-4.7 2.1-4.7 4.7v41.2c0 2.6 2.1 4.7 4.7 4.7h51.4z" class="st0"/><path d="m62.4 53.4 14-25.3-14-25.3H66c1.9 0 4.2 1.4 5.2 3L83.5 28 71.1 50.3c-.9 1.7-3.2 3-5.2 3h-3.5z" class="st0"/><path d="m62.4 53.4 14-25.3-14-25.3H66c1.9 0 4.2 1.4 5.2 3L83.5 28 71.1 50.3c-.9 1.7-3.3 3-5.2 3h-3.5z" style="fill:#346094"/><path d="M204.1 49c0 1.7 1.4 2.5 3.2 2.5 1.5 0 3.2-.6 3.2-2.4 0-1.4-1.2-1.9-2.3-2.1-1.2-.3-2.4-.4-2.4-1.2 0-.6.9-.7 1.3-.7.7 0 1.3.2 1.5 1h1.7c-.2-1.6-1.5-2.2-3-2.2-1.3 0-3 .5-3 2.1 0 1.5 1.1 1.9 2.3 2.2s2.3.4 2.4 1.2c0 .8-1 1-1.6 1-.9 0-1.6-.3-1.6-1.3h-1.7zm-6-1.9c0-1.1.8-1.9 1.9-1.9s1.8.9 1.8 1.9zm5.4 1.1c.3-2.2-1.1-4.2-3.4-4.2-2.2 0-3.5 1.8-3.5 3.8 0 2.2 1.3 3.8 3.6 3.8 1.6 0 2.9-.9 3.3-2.5H202c-.3.8-.8 1.2-1.8 1.2-1.3 0-2-1-2-2.1zm-14 .8c0 1.7 1.4 2.5 3.2 2.5 1.5 0 3.2-.6 3.2-2.4 0-1.4-1.2-1.9-2.3-2.1-1.2-.3-2.4-.4-2.4-1.2 0-.6.9-.7 1.3-.7.7 0 1.3.2 1.5 1h1.7c-.2-1.6-1.5-2.2-3-2.2-1.3 0-3 .5-3 2.1 0 1.5 1.1 1.9 2.3 2.2s2.3.4 2.4 1.2c0 .8-1 1-1.6 1-.9 0-1.6-.3-1.6-1.3h-1.7zm-1.1-3c0-1.5-1.5-2.1-2.9-2.1-1.6 0-3.2.5-3.3 2.4h1.6c.1-.8.7-1.2 1.6-1.2.6 0 1.5.2 1.5 1 0 .9-1 .8-2.2 1-1.3.2-2.8.5-2.8 2.3 0 1.4 1.2 2.1 2.5 2.1.9 0 1.9-.3 2.5-.9.1.7.6.9 1.2.9.3 0 .8-.1 1-.2v-1.1h-.4c-.3 0-.4-.2-.4-.5V46zm-1.6 2.9c0 1-1.1 1.4-1.8 1.4-.6 0-1.5-.2-1.5-.9 0-.8.6-1.1 1.3-1.2s1.5-.1 2-.4zM176 47.1c0-1.1.8-1.9 1.9-1.9s1.8.9 1.8 1.9zm5.3 1.1c.3-2.2-1.1-4.2-3.4-4.2-2.2 0-3.5 1.8-3.5 3.8 0 2.2 1.3 3.8 3.6 3.8 1.6 0 2.9-.9 3.3-2.5h-1.5c-.3.8-.8 1.2-1.8 1.2-1.3 0-2-1-2-2.1zm-14 .8c0 1.7 1.4 2.5 3.2 2.5 1.5 0 3.2-.6 3.2-2.4 0-1.4-1.2-1.9-2.3-2.1-1.2-.3-2.4-.4-2.4-1.2 0-.6.9-.7 1.3-.7.7 0 1.3.2 1.5 1h1.7c-.2-1.6-1.5-2.2-3-2.2-1.3 0-3 .5-3 2.1 0 1.5 1.2 1.9 2.3 2.2 1.2.3 2.3.4 2.4 1.2 0 .8-1 1-1.6 1-.9 0-1.6-.3-1.6-1.3h-1.7zm-2.7-6.1h1.6v-1.5h-1.6zm0 8.5h1.6v-7.3h-1.6zm-9.7 0h4.2c3.1 0 4.4-2.2 4.4-5s-1.3-5-4.4-5h-4.2zm1.8-8.6h1.7c2.8 0 3.3 1.6 3.3 3.6s-.6 3.6-3.3 3.6h-1.7zM143.6 49c0 1.7 1.4 2.5 3.2 2.5 1.5 0 3.2-.6 3.2-2.4 0-1.4-1.2-1.9-2.3-2.1-1.2-.3-2.4-.4-2.4-1.2 0-.6.9-.7 1.3-.7.7 0 1.3.2 1.5 1h1.7c-.2-1.6-1.5-2.2-3-2.2-1.3 0-3 .5-3 2.1 0 1.5 1.2 1.9 2.3 2.2 1.2.3 2.3.4 2.4 1.2 0 .8-1 1-1.6 1-.9 0-1.6-.3-1.6-1.3h-1.7zm-1-4.9H141v4.2c0 1.1-.4 2-1.8 2-.9 0-1.4-.5-1.4-1.7v-4.5h-1.6v4.6c0 1.9.8 2.9 2.7 2.9.8 0 1.7-.5 2.1-1.2v1h1.6zm-11.2 7.5c2.3 0 3.7-1.6 3.7-3.8s-1.3-3.8-3.7-3.8c-2.3 0-3.7 1.6-3.7 3.8.1 2.2 1.4 3.8 3.7 3.8m0-1.3c-1.4 0-2.1-1.3-2.1-2.6 0-1.2.6-2.6 2.1-2.6 1.4 0 2.1 1.3 2.1 2.6s-.6 2.6-2.1 2.6m-6.4-7.4h1.6v-1.5H125zm0 8.5h1.6v-7.3H125zm-5.2-6.1h1.2v4.3c0 1.2.3 1.9 2 1.9.4 0 .7-.1 1-.1v-1.2c-.2.1-.5.1-.7.1-.7 0-.8-.3-.8-1v-3.9h1.4v-1.2h-1.4V42H121v2.2h-1.2zm-.3 1.2c-.2-1.8-1.6-2.6-3.3-2.6-2.4 0-3.6 1.7-3.6 3.9 0 2.1 1.2 3.8 3.5 3.8 1.9 0 3-1 3.3-2.9h-1.6c-.2 1-.8 1.7-1.7 1.7-1.4 0-1.9-1.3-1.9-2.5 0-2.2 1.2-2.6 2-2.6.9 0 1.5.5 1.7 1.4h1.6zm-12.8.6c0-1.1.8-1.9 1.9-1.9s1.8.9 1.8 1.9zm5.3 1.1c.3-2.2-1.1-4.2-3.4-4.2-2.2 0-3.5 1.8-3.5 3.8 0 2.2 1.3 3.8 3.6 3.8 1.6 0 2.9-.9 3.3-2.5h-1.5c-.3.8-.8 1.2-1.8 1.2-1.3 0-2-1-2-2.1zm-11.4-2.9h1.2v6.1h1.6v-6.1h1.4v-1.2h-1.4v-.7c0-.6.4-.8.8-.8.3 0 .5 0 .7.1v-1.2c-.3-.1-.6-.1-1.1-.1-1 0-2 .3-2 2.2v.6h-1.2zm-7.1 6.1h1.6v-4.3c0-1.1.7-1.9 1.8-1.9.9 0 1.4.5 1.4 1.6v4.6h1.6v-5c0-1.6-1-2.5-2.6-2.5-1 0-1.8.5-2.3 1.3v-1.1h-1.5zm-3.5 0h1.8v-10H90zm68.4-27.9h-1.6v3.7c-.5-.8-1.5-1.1-2.4-1.1-1.6 0-3.1 1.1-3.1 3.8 0 2.2 1.1 3.9 3.4 3.9.9 0 1.8-.4 2.2-1.2v1h1.5zm-5.6 6.5c0-1.3.5-2.6 2-2.6 1.2 0 2 1 2 2.6 0 1.3-.6 2.6-2 2.6-1.4-.1-2-1.3-2-2.6m-9 3.6h1.6v-4.3c0-1.1.7-1.9 1.8-1.9.9 0 1.4.5 1.4 1.6v4.6h1.6v-5c0-1.6-1-2.5-2.6-2.5-1 0-1.8.5-2.3 1.3v-1.1h-1.5zm-1.5-5.4c0-1.5-1.5-2.1-2.9-2.1-1.6 0-3.2.5-3.3 2.4h1.6c.1-.8.7-1.1 1.6-1.1.6 0 1.5.2 1.5 1 0 .9-1 .8-2.2 1-1.3.2-2.8.4-2.8 2.3 0 1.4 1.2 2.1 2.5 2.1.9 0 1.9-.3 2.5-.9.1.7.6.9 1.2.9.3 0 .8-.1 1-.2v-1.1h-.4c-.3 0-.4-.2-.4-.5v-3.8zm-1.6 2.9c0 1-1.1 1.4-1.8 1.4-.6 0-1.5-.2-1.5-.9 0-.8.6-1.1 1.3-1.2s1.5-.1 2-.4zm-13.2 2.4-.2.6c-.2.6-.4 1-1.1 1-.3 0-.5-.1-.8-.1v1.3c.4.1.7.1 1.1.1 1.7 0 2.1-1.2 2.6-2.5l2.8-7.7h-1.7l-1.8 5.4-1.9-5.4h-1.8zm-3.3-7.2h-1.6v1c-.4-.8-1.2-1.2-2.1-1.2-2.1 0-3.3 1.7-3.3 3.6 0 2.1 1 3.8 3.3 3.8.9 0 1.7-.5 2.2-1.3v1.1c0 1.2-.6 1.9-1.9 1.9-.8 0-1.5-.2-1.7-1.1h-1.6c.1 1.7 1.8 2.3 3.2 2.3 2.3 0 3.6-1.1 3.6-3.3v-6.8zm-3.6 6c-1.3 0-1.9-1.2-1.9-2.4s.5-2.5 1.9-2.5 2 1.1 2 2.4c0 1.2-.6 2.5-2 2.5m-7.8 1.3h1.6v-3.5c0-1.6.9-2.5 2-2.5.2 0 .5 0 .7.1v-1.5h-.6c-1 0-1.9.8-2.1 1.6v-1.4h-1.5v7.2zm-6.4-4.3c0-1.1.8-1.9 1.9-1.9s1.8.9 1.8 1.9zm5.4 1.1c.3-2.2-1.1-4.2-3.4-4.2-2.2 0-3.5 1.8-3.5 3.8 0 2.2 1.3 3.8 3.6 3.8 1.6 0 2.9-.9 3.3-2.5h-1.5c-.3.8-.8 1.2-1.8 1.2-1.3 0-2-1-2-2.1zm-9.7 3.2h1.6v-10h-1.6zm-3.1 0h1.6v-10H99zm-10.1 0h1.8l.9-2.7h4l.9 2.7h1.9l-3.9-10h-1.9zm4.7-8.3 1.5 4.3H92zM206.3 9.7h1.2v6.1h1.6V9.7h1.4V8.5h-1.4v-.7c0-.6.4-.8.8-.8.3 0 .5 0 .7.1V5.9c-.3-.1-.6-.1-1.1-.1-1 0-2 .3-2 2.2v.6h-1.2zm-4 6.3c2.3 0 3.7-1.6 3.7-3.8s-1.3-3.8-3.7-3.8c-2.3 0-3.7 1.6-3.7 3.8s1.4 3.8 3.7 3.8m0-1.3c-1.4 0-2.1-1.3-2.1-2.6s.6-2.6 2.1-2.6c1.4 0 2.1 1.3 2.1 2.6s-.7 2.6-2.1 2.6M189 11.5c0-1.1.8-1.9 1.9-1.9s1.8.9 1.8 1.9zm5.3 1.1c.3-2.2-1.1-4.2-3.4-4.2-2.2 0-3.5 1.8-3.5 3.8 0 2.2 1.3 3.8 3.6 3.8 1.6 0 2.9-.9 3.3-2.5h-1.5c-.3.8-.8 1.2-1.8 1.2-1.3 0-2-1-2-2.2h5.3zm-11.7-2.9h1.2V14c0 1.2.3 1.9 2 1.9.4 0 .7-.1 1-.1v-1.2c-.2.1-.5.1-.7.1-.7 0-.8-.3-.8-1v-4h1.4V8.5h-1.4V6.3h-1.6v2.2h-1.2v1.2zm-.7-1.2h-1.6v4.2c0 1.1-.5 2-1.8 2-.9 0-1.4-.5-1.4-1.7V8.5h-1.6v4.6c0 1.9.8 2.8 2.7 2.8.8 0 1.7-.5 2.1-1.2v1h1.6zm-11.5 1.2h1.2V14c0 1.2.3 1.9 2 1.9.4 0 .7-.1 1-.1v-1.2c-.2.1-.4.1-.7.1-.7 0-.8-.3-.8-1v-4h1.4V8.5h-1.4V6.3h-1.6v2.2h-1.2v1.2zM168 7.3h1.6V5.8H168zm0 8.5h1.6V8.5H168zm-5.2-6.1h1.2V14c0 1.2.3 1.9 2 1.9.4 0 .7-.1 1-.1v-1.2c-.2.1-.4.1-.7.1-.7 0-.8-.3-.8-1v-4h1.4V8.5h-1.4V6.3H164v2.2h-1.2zm-6.7 3.8c0 1.7 1.4 2.5 3.2 2.5 1.5 0 3.2-.6 3.2-2.4 0-1.4-1.2-1.9-2.3-2.1-1.2-.3-2.4-.4-2.4-1.2 0-.6.9-.7 1.3-.7.7 0 1.3.2 1.5 1h1.7c-.2-1.6-1.5-2.2-3-2.2-1.3 0-3 .5-3 2.1 0 1.5 1.2 1.9 2.3 2.1 1.2.3 2.3.4 2.4 1.2 0 .8-1 1-1.6 1-.9 0-1.6-.3-1.6-1.3zm-7.4 2.3h1.6v-4.3c0-1.1.7-1.9 1.8-1.9.9 0 1.4.5 1.4 1.6v4.6h1.6v-5c0-1.6-1-2.5-2.6-2.5-1 0-1.8.5-2.3 1.3V8.5h-1.5zm-3.4 0h1.8v-10h-1.8zm-7 0h1.6v-10h-1.6zm-1.5-5.4c0-1.5-1.5-2.1-2.9-2.1-1.6 0-3.2.5-3.3 2.4h1.6c.1-.8.7-1.2 1.6-1.2.6 0 1.5.2 1.5 1 0 .9-1 .8-2.2 1-1.4.2-2.8.5-2.8 2.3 0 1.4 1.2 2.1 2.5 2.1.9 0 1.9-.3 2.5-.9.1.7.6.9 1.2.9.3 0 .8-.1 1-.2v-1.1h-.4c-.3 0-.4-.2-.4-.5v-3.7zm-1.6 2.9c0 1-1.1 1.4-1.8 1.4-.6 0-1.5-.2-1.5-.9 0-.8.6-1.1 1.3-1.2s1.5-.1 2-.4zm-12.3 2.5h1.6v-4.3c0-1.1.7-1.9 1.8-1.9.9 0 1.4.5 1.4 1.6v4.6h1.6v-5c0-1.6-1-2.5-2.6-2.5-1 0-1.8.5-2.3 1.3V8.5h-1.5zm-4.8.2c2.3 0 3.7-1.6 3.7-3.8s-1.3-3.8-3.7-3.8c-2.3 0-3.7 1.6-3.7 3.8.1 2.2 1.4 3.8 3.7 3.8m0-1.3c-1.4 0-2.1-1.3-2.1-2.6s.6-2.6 2.1-2.6c1.4 0 2.1 1.3 2.1 2.6s-.6 2.6-2.1 2.6m-6.4-7.4h1.6V5.8h-1.6zm0 8.5h1.6V8.5h-1.6zm-5.2-6.1h1.2V14c0 1.2.3 1.9 2 1.9.3 0 .7-.1 1-.1v-1.2c-.2.1-.5.1-.7.1-.7 0-.8-.3-.8-1v-4h1.4V8.5h-1.4V6.3h-1.6v2.2h-1.2v1.2zm-.7.7c0-1.5-1.5-2.1-2.9-2.1-1.6 0-3.2.5-3.3 2.4h1.6c.1-.8.7-1.2 1.6-1.2.6 0 1.5.2 1.5 1 0 .9-1 .8-2.2 1-1.3.2-2.8.5-2.8 2.3 0 1.4 1.2 2.1 2.5 2.1.9 0 1.9-.3 2.5-.9.1.7.6.9 1.2.9.3 0 .8-.1 1-.2v-1.1h-.4c-.3 0-.4-.2-.4-.5v-3.7zm-1.6 2.9c0 1-1.1 1.4-1.8 1.4-.6 0-1.5-.2-1.5-.9 0-.8.6-1.1 1.3-1.2s1.5-.1 2-.4zM90 15.8h1.7V8.4l4.6 7.4h1.9v-10h-1.7v7.4l-4.6-7.4H90z" class="st0"/></svg>