<svg xmlns="http://www.w3.org/2000/svg" id="Layer_1" viewBox="0 0 216.28 39.99"><defs><style>.st0{fill:#74a0d1}.st1{fill:#99badd}.st3{isolation:isolate}.st4{fill:#366da6}</style></defs><g class="st3"><g class="st3"><path d="m90.81 27.45 3.81-4.95h3.85l-4.76 5.69 5.21 6.32h-4.05l-4.06-5.21v5.21h-3.12V22.5h3.12zm21.71 7.06h-3.89l-2.98-4.62v4.62h-3.12V22.5h4.86c.67 0 1.25.1 1.75.29.5.2.91.46 1.23.8s.57.73.73 1.18.25.92.25 1.43q0 1.365-.66 2.22c-.66.855-1.09.95-1.95 1.15l3.78 4.92Zm-6.86-6.64h.59c.62 0 1.09-.13 1.42-.38s.49-.62.49-1.1-.17-.84-.49-1.1-.8-.38-1.42-.38h-.59zm17.76 4.55h-4.46l-.72 2.09h-3.33l4.57-12.01h3.41l4.57 12.01h-3.33l-.72-2.09Zm-.83-2.37-1.4-4-1.4 4zm8.48 4.46V22.5h3.12l5.77 7.34V22.5h3.11v12.01h-3.11l-5.77-7.34v7.34zm21.29-9.37v9.37h-3.12v-9.37h-2.57V22.5h8.25v2.64zm10.41 6.73h5.03v2.64h-10.28l5.69-9.37h-4.73V22.5h9.94l-5.66 9.37Z" class="st3"/></g><g class="st3"><path d="M183.37 22.5v9.37h3.74v2.64h-6.87V22.5h3.12Z" class="st3"/></g><g class="st3"><path d="M198.87 32.42h-4.46l-.72 2.09h-3.33l4.57-12.01h3.41l4.57 12.01h-3.33l-.72-2.09Zm-.83-2.37-1.4-4-1.4 4zm8.47-7.55h4.65c1.1 0 1.94.26 2.52.8s.86 1.3.86 2.29c0 .61-.11 1.11-.33 1.51s-.55.74-1 1.01q.675.135 1.14.39c.31.18.57.39.77.65.2.25.34.54.42.86s.13.66.13 1.02c0 .56-.1 1.06-.29 1.5-.2.44-.47.8-.83 1.1s-.79.52-1.3.67-1.08.22-1.72.22h-5.02V22.51Zm3.13 4.71h.57c.98 0 1.47-.39 1.47-1.16s-.49-1.16-1.47-1.16h-.57v2.33Zm0 4.88h.69c.79 0 1.35-.1 1.69-.3s.51-.53.51-.97-.17-.77-.51-.97-.9-.3-1.69-.3h-.69v2.55Z" class="st3"/></g></g><path d="m49.77 19.97.67.38 11.36 6.42.56.31" class="st0"/><path d="m61.63 28.39-.56-.31-12.04-6.8 1.48-2.61 12.58 7.1z" class="st0"/><path d="m49.96 20.86.55-.23 7.63-3.08 7.17-2.9" class="st0"/><path d="m50.54 22.24-1.16-2.76.55-.23 14.82-5.99 1.12 2.78zm.91-11.84.6.14 7.4 1.74 4.69 1.11.1.02" class="st0"/><path d="m63.95 14.88-.1-.02-12.74-3 .68-2.92 12.74 3z" class="st0"/><path d="M68.85 23.49c-.49-.67-.77-1.49-.77-2.38s.3-1.75.8-2.43c.74-.99 1.92-1.63 3.25-1.63 2.24 0 4.06 1.82 4.06 4.06 0 .45-.07.88-.21 1.28a4.05 4.05 0 0 1-3.85 2.78c-1.35 0-2.55-.66-3.28-1.67Z" class="st4"/><path d="M72.13 25.67c-1.46 0-2.84-.7-3.69-1.88l-.09-.14c-.5-.75-.77-1.62-.77-2.54 0-.97.32-1.94.9-2.73a4.5 4.5 0 0 1 3.65-1.83 4.57 4.57 0 0 1 4.56 4.56c0 .51-.08.99-.24 1.45a4.53 4.53 0 0 1-4.32 3.11m-2.78-2.34c.67.84 1.69 1.34 2.78 1.34 1.54 0 2.9-.98 3.38-2.44.12-.35.19-.73.19-1.12 0-1.96-1.6-3.56-3.56-3.56-1.13 0-2.17.52-2.85 1.43-.45.61-.7 1.37-.7 2.13s.23 1.48.67 2.08l.1.14zm-6.63-.19c1.04.17 1.93.79 2.45 1.66.32.54.51 1.16.51 1.84 0 1.96-1.58 3.54-3.54 3.54a3.534 3.534 0 0 1-3.53-3.38v-.16c0-1.1.5-2.08 1.29-2.73a3.5 3.5 0 0 1 2.82-.76Z" class="st4"/><path d="M62.14 30.68c-.35 0-.67-.04-.97-.12a4.01 4.01 0 0 1-3.06-3.74v-.18c0-1.21.54-2.35 1.47-3.12.73-.61 1.66-.96 2.64-.92v-.04l.58.08a4 4 0 0 1 2.8 1.9c.39.65.58 1.36.58 2.1 0 2.23-1.81 4.04-4.04 4.04m.01-7.08c-.71 0-1.39.25-1.93.69-.71.58-1.11 1.44-1.11 2.35v.16c.06 1.34.99 2.47 2.31 2.79.22.06.46.08.72.08 1.68 0 3.04-1.36 3.04-3.04 0-.56-.15-1.09-.44-1.58a3.04 3.04 0 0 0-1.84-1.37l-.27-.04a2.6 2.6 0 0 0-.49-.04z" class="st4"/><path d="M52.59 13.21c-.29.14-.62.21-.97.21-.43 0-.83-.12-1.17-.32a2.31 2.31 0 0 1-1.15-2c0-1.28 1.04-2.32 2.32-2.32a2.322 2.322 0 0 1 .97 4.43" class="st0"/><path d="M51.62 14.92c-.68 0-1.34-.18-1.93-.53a3.82 3.82 0 0 1-1.89-3.29 3.82 3.82 0 1 1 7.25 1.68 3.79 3.79 0 0 1-3.43 2.13Zm0-4.64c-.45 0-.82.37-.82.82 0 .29.15.56.4.7.25.15.56.14.74.06h.03c.16-.09.31-.23.39-.39.06-.12.09-.24.09-.37 0-.45-.37-.82-.82-.82zM41.53 2.96v.52l-.07 14.53c-.17.31-.27.66-.27 1.03s.09.71.26 1.01l-.07 15.01v.35H19.39c-8.96 0-16.23-7.27-16.23-16.23S10.43 2.96 19.39 2.96z" class="st0"/><path d="M42.88 36.91H19.39c-9.78 0-17.73-7.95-17.73-17.73S9.61 1.46 19.39 1.46h23.64v2.02l-.07 14.92-.18.33a.61.61 0 0 0-.03.58l.2.35zM19.39 4.46c-8.12 0-14.73 6.6-14.73 14.72s6.61 14.73 14.73 14.73h20.5l.06-13.53a3.6 3.6 0 0 1 .01-2.71l.06-13.21z" class="st0"/><path d="M40.8 17.58v2.04a2.06 2.06 0 0 1 0-2.04" class="st1"/><path d="M18.73 34.98c-8.96 0-16.23-7.27-16.23-16.23S9.77 2.52 18.73 2.52" class="st0"/><path d="M18.73 37.48C8.4 37.48 0 29.08 0 18.75S8.4.02 18.73.02v5C11.16 5.02 5 11.18 5 18.75s6.16 13.73 13.73 13.73z" class="st0"/><path d="M64.57 37.46v-5c6.27 0 11.74-4.23 13.3-10.29.29-1.12.43-2.28.43-3.44 0-6.51-4.63-12.17-11.01-13.46-.67-.13-1.39-.22-2.11-.25-.26-.02-.43-.02-.61-.02V0c.32 0 .63 0 .94.03.88.04 1.84.16 2.77.34 8.71 1.76 15.03 9.48 15.03 18.36 0 1.57-.2 3.14-.59 4.68-2.13 8.28-9.59 14.05-18.14 14.05z" class="st4"/><path d="M18.73 32.48h39.98v5H18.73z" class="st0"/><path d="M58.71 32.48h6.45v5h-6.45zM62.11.02h3.19v5h-3.19z" class="st4"/><path d="M18.73.02h43.38v5H18.73z" class="st0"/><path d="m35.804 17.556.071-14.54 10 .05-.071 14.54z" class="st0"/><path d="m35.717 34.609.07-19.94 10 .035-.07 19.94z" class="st0"/><path d="M53.81 19.83c.34.38.55.88.55 1.43v.1c-.03.57-.27 1.08-.66 1.45a2.132 2.132 0 1 1-2.81-3.2c.37-.3.84-.48 1.35-.48.62 0 1.18.27 1.57.7" style="fill:#4c86c5"/><path d="M52.24 25.39c-2.28 0-4.13-1.85-4.13-4.13 0-1.25.55-2.42 1.52-3.2.74-.6 1.67-.93 2.61-.93 1.16 0 2.27.49 3.05 1.36.68.77 1.06 1.75 1.06 2.77v.21c-.06 1.07-.51 2.07-1.28 2.8s-1.77 1.13-2.84 1.13Zm0-4.26c-.1.04-.13.07-.13.13 0 .08.07.13.13.13.09-.04.11-.08.12-.11v-.02s0-.05-.04-.09c-.03-.03-.05-.04-.08-.04" class="st0"/><path d="m62.84 26.49 8.9-4.37.67-.32" class="st1"/><path d="m63.5 27.84-1.32-2.7 9.58-4.69 1.3 2.7-.67.32zm-1.3 1.52-.03.49-.28 4.59" class="st4"/><path d="m60.396 34.35.308-5.082 2.994.182-.308 5.08zM75.53 21.39l.16.05 3.99 1.22" class="st4"/><path d="m79.24 24.09-4.16-1.27.9-2.86 4.14 1.27zm-15.789-9.971 5.899-9.237 2.528 1.614-5.898 9.237z" class="st4"/><path d="m49.959 12.015 3-.023.05 6.62-3 .022zm-3.202-8.501 2.765-1.164 2.311 5.494-2.765 1.163zm-6.62 19.582 8.327-3.388 1.13 2.779-8.326 3.388z" class="st0"/><path d="M66.21 10.36c1.17.19 2.17.89 2.77 1.87a3.988 3.988 0 0 1-3.41 6.06c-.33 0-.64-.04-.95-.11a3.99 3.99 0 0 1-3.04-3.7v-.18a4 4 0 0 1 1.45-3.08c.69-.57 1.57-.91 2.54-.91.22 0 .44.02.65.05z" class="st4"/><path d="M65.57 18.79c-.35 0-.69-.04-1.06-.12a4.52 4.52 0 0 1-3.43-4.17v-.2c0-1.34.59-2.6 1.63-3.46.81-.67 1.8-1.03 2.86-1.03.24 0 .49.02.72.05 1.29.21 2.43.98 3.12 2.1.43.69.65 1.5.65 2.33a4.49 4.49 0 0 1-4.49 4.49Zm0-7.98c-.82 0-1.59.27-2.22.8a3.48 3.48 0 0 0-1.27 2.69v.18a3.49 3.49 0 0 0 2.66 3.21c2.28.51 4.32-1.2 4.32-3.39 0-.65-.17-1.27-.51-1.81a3.5 3.5 0 0 0-2.42-1.64c-.18-.03-.37-.04-.56-.04" class="st4"/><path d="m64.33 16.281 1.71-2.465 8.389 5.82-1.71 2.465z" class="st4"/><g class="st3"><g class="st3"><path d="M86.63 5.88h3.1c.5 0 .96.05 1.37.15s.77.26 1.06.46c.29.21.52.47.68.79s.24.69.24 1.12c0 .28-.05.54-.15.79s-.24.46-.42.65c-.1.1-.22.2-.35.28s-.27.16-.43.22c.3.09.55.2.73.33s.33.28.45.46c.13.19.22.39.28.61s.09.44.09.68c0 .45-.08.84-.23 1.17s-.37.62-.65.85-.63.4-1.03.51c-.41.12-.86.17-1.37.17h-3.37zm3.11 3.88c.27 0 .51-.04.72-.1s.37-.15.5-.28q.165-.15.24-.36.09-.21.09-.48c0-.27-.02-.35-.07-.49A.84.84 0 0 0 91 7.7c-.13-.13-.3-.23-.51-.29s-.46-.09-.75-.1h-1.32v2.43h1.33Zm-1.32 3.92h1.59q.345 0 .63-.09c.18-.06.34-.14.46-.24.14-.11.24-.25.31-.41s.1-.34.1-.54c0-.21-.03-.39-.08-.56a1.05 1.05 0 0 0-.69-.69c-.18-.06-.4-.1-.65-.1h-1.66v2.63Zm9.86-2.61v2.61h4.44v1.44h-6.23V5.88h6.21v1.45h-4.42v2.33h3.8v1.41zm12.18 4.05-2.57-5.96v5.96h-1.8V5.88h1.8l2.55 5.94V5.88h1.8v9.24zm11.55-1.64c-.17.37-.4.69-.69.95s-.63.46-1.03.61q-.6.21-1.32.21c-.38 0-.73-.05-1.06-.15-.32-.1-.61-.24-.87-.43q-.36-.255-.63-.63c-.18-.25-.34-.52-.47-.81-.12-.3-.22-.62-.28-.98-.07-.36-.1-.73-.1-1.13V9.88c0-.37.03-.73.09-1.06.06-.34.15-.65.27-.94a3.46 3.46 0 0 1 1.28-1.64 3.2 3.2 0 0 1 1.78-.5c.51 0 .96.07 1.36.21s.73.35 1.01.62.5.59.66.98c.16.38.26.82.3 1.3h-1.78a3.5 3.5 0 0 0-.12-.72c-.07-.21-.16-.38-.28-.52-.13-.13-.29-.24-.47-.31-.19-.07-.41-.1-.68-.1-.14 0-.27.01-.39.04s-.23.07-.33.13c-.17.1-.32.25-.44.43-.12.19-.22.41-.29.66-.06.19-.1.41-.12.64-.03.23-.04.49-.04.76v1.26q0 .555.06.99c.06.435.1.54.19.76q.09.225.21.39c.08.11.18.21.28.29.11.08.24.15.38.19s.3.06.47.06q.345 0 .63-.09c.19-.06.34-.15.48-.28.13-.13.24-.29.31-.49.08-.2.12-.44.14-.72h1.78c-.03.47-.13.88-.3 1.26Zm7.97 1.64v-4.01h-2.62v4.01h-1.77V5.88h1.77v3.79h2.62V5.88h1.76v9.24z" class="st3" style="fill:#6b7280"/></g></g></svg>