<svg xmlns="http://www.w3.org/2000/svg" id="svg28" viewBox="0 0 1200 630"><defs id="defs1"><style id="style1">.st_light_blue{fill:#ccddec}.st_medium_blue{fill:#99badd}.st_dark_blue{fill:#4c86c5}</style></defs><g id="g6" transform="translate(279.515 88.03)scale(1.3394)"><path id="rect1" d="M0 100h150v250H0z" class="st_medium_blue"/><path id="rect2" d="M20 120h110v210H20z" class="st_light_blue"/><path id="path2" d="M-20 100h190l1.697-50.543L-20 50Z" class="st_dark_blue"/><path id="rect3" d="M65 0h10.424v49.977H65z" class="st_medium_blue"/><ellipse id="circle3" cx="70" cy="0" class="st_dark_blue" rx="20.801" ry="30.999"/><rect id="rect4" width="30" height="5" x="55" y="-10" class="st_light_blue" rx="2"/><rect id="rect5" width="30" height="5" x="55" y="0" class="st_light_blue" rx="2"/><rect id="rect6" width="30" height="5" x="55" y="10" class="st_light_blue" rx="2"/></g><g id="g26" transform="translate(622.727 111.364)"><path id="rect7" d="M0 0h350v450H0z" style="fill:#fff"/><path id="rect8" fill-opacity=".2" d="M0 0h350v450H0z" class="st_light_blue" style="fill:#ccddec;fill-opacity:.455"/><path id="rect9" d="M20 20h310v40H20z" class="st_dark_blue"/><path id="rect10" d="M20 80h145v10H20z" class="st_medium_blue"/><path id="rect11" d="M20 100h145v10H20z" class="st_medium_blue"/><path id="rect12" d="M20 120h100v10H20z" class="st_medium_blue"/><path id="rect13" d="M20 150h145v100H20z" class="st_light_blue"/><path id="rect14" d="M30 210h20v30H30z" class="st_dark_blue"/><path id="rect15" d="M60 190h20v50H60z" class="st_dark_blue"/><path id="rect16" d="M90 220h20v20H90z" class="st_dark_blue"/><path id="rect17" d="M120 180h20v60h-20z" class="st_dark_blue"/><path id="rect18" d="M185 80h145v10H185z" class="st_medium_blue"/><path id="rect19" d="M185 100h145v10H185z" class="st_medium_blue"/><path id="rect20" d="M185 120h145v10H185z" class="st_medium_blue"/><path id="rect21" d="M185 140h120v10H185z" class="st_medium_blue"/><path id="rect22" d="M185 170h145v120H185z" class="st_light_blue"/><circle id="circle22" cx="220" cy="200" r="8" class="st_medium_blue"/><circle id="circle23" cx="280" cy="250" r="10" class="st_medium_blue"/><path id="line24" stroke="#99badd" stroke-width="3" d="m220 200 60 50"/><path id="rect24" d="M20 320h310v10H20z" class="st_medium_blue"/><path id="rect25" d="M20 340h310v10H20z" class="st_medium_blue"/><path id="rect26" d="M20 360h250v10H20z" class="st_medium_blue"/></g></svg>