<svg xmlns="http://www.w3.org/2000/svg" id="svg28" viewBox="0 0 1200 630"><defs id="defs1"><style id="style1">.st_medium_blue{fill:#99badd}.st_dark_blue{fill:#4c86c5}</style></defs><path id="rect1" d="M407.056 110.391h400v450h-400z" style="fill:#ccddec"/><path id="rect2" d="M407.056 80.391h400v30h-400z" class="st_dark_blue"/><g id="g10" class="st_medium_blue" transform="translate(207.056 -39.61)"><path id="rect3" d="M240 320h60v60h-60z"/><path id="rect4" d="M310 320h60v60h-60z"/><path id="rect5" d="M380 320h60v60h-60z"/><path id="rect6" d="M450 320h60v60h-60z"/><path id="rect7" d="M240 410h60v60h-60z"/><path id="rect8" d="M310 410h60v60h-60z"/><path id="rect9" d="M380 410h60v60h-60z"/><path id="rect10" d="M450 410h60v60h-60z"/></g><path id="rect11" d="M537.056 460.391h140v100h-140z" class="st_dark_blue"/><path id="rect12" d="M552.056 475.391h50v85h-50z" class="st_medium_blue"/><path id="rect13" d="M612.056 475.391h50v85h-50z" class="st_medium_blue"/><circle id="path28" cx="599.55" cy="194.315" r="64.584" style="fill:#fff;fill-opacity:1;stroke:#fff;stroke-width:10"/><path id="rect14" d="M587.923 160.635h24.631v65.325h-24.631z" style="fill:red;fill-opacity:1;stroke:red;stroke-width:10;paint-order:fill markers stroke"/><path id="rect14-9" d="M-205.049 568.149h24.631v65.325h-24.631z" style="fill:red;fill-opacity:1;stroke:red;stroke-width:10;paint-order:fill markers stroke" transform="rotate(-90)"/></svg>