<svg xmlns="http://www.w3.org/2000/svg" id="Layer_3" viewBox="0 0 1200 630"><g id="g27" style="fill:#fff;stroke:#fff;stroke-width:10;stroke-dasharray:none"><path id="path16" d="M814.5 290.5s-1 230-1 248-15 16-15 16l-171-2s1 4-3 11-14 8-30 9-17-18-17-18-164 3-178 1-12-17-12-17v-129s-2-115 1-124 35-12 35-12h.94l-.94 238s-1 10 18 12 144 1 144 1l14.25.89 1.75.11s11-3 41-3 127 3 127 3 10-3 11-16c.88-11.41-.56-191.57-.92-235.43h.19s4.73.43 13.73.43 21 16 21 16Z" class="st6" style="fill:#fff;stroke:#fff;stroke-width:10;stroke-dasharray:none"/><path id="path17" d="M780.716 274.638c.36 43.86 1.8 224.02.92 235.43-1 13-11 16-11 16s-97-3-127-3-41 3-41 3l-1.75-.11.02-.36-1.04-166.38c3.2-.44 5.97-2.13 6.77-4.15 2-5 16-22 19-29s12-19 19-28 52-37 60-44c2.36-2.06 4.19-3.26 6.04-3.91 4.44-1.58 8.96-.09 20.96-.09 17 0 49 15 49 15s.03 3.46.08 9.57z" class="st4" style="fill:#fff;stroke:#fff;stroke-width:10;stroke-dasharray:none"/><path id="path18" d="M598.73 358.65c-4.73.67-10.44-1.39-12.23-9.15-3-13-13-42-20-46s-27-14-34-21-32-28-37-33c-1.5-1.5-2.91-2.37-4.39-2.82-1.15-2.4-9.88-21.19-13.61-49.18-4-30 3-31 9-61s36-52 36-52 49-27 78-26 101 24 114 78 10 70 7 79-12 34-12 34l.04.09c-1.85.65-3.68 1.85-6.04 3.91-8 7-53 35-60 44s-16 21-19 28-17 24-19 29c-.8 2.02-3.57 3.71-6.77 4.15Zm22.79-156.31c.19-9.42 1.69-19.19-4.61-27.36-4.92-6.51-13.7-9.56-21.74-7.76-8.98 1.78-15.65 9.82-17.43 18.53-1.06 6.13-.38 17.09-.56 24.73-.06 11.15.11 23.86-.09 34.6-.13 4.48-.53 8.16.07 12.64.7 5.84 3.46 11.8 8.25 15.44 8.18 6.68 21.52 5.96 28.86-1.83 3.97-3.98 5.75-9.35 7.23-14.83v1c.47-15.18-.12-40.28.02-55.16Zm.98-73.84c0-12.15-9.85-22-22-22s-22 9.85-22 22 9.85 22 22 22 22-9.85 22-22Z" class="st5" style="fill:#fff;fill-opacity:1;stroke:#fff;stroke-opacity:1;stroke-width:10;stroke-dasharray:none"/><path id="path19" d="M616.91 174.98c6.3 8.17 4.8 17.94 4.61 27.36-.14 14.88.45 39.98-.02 55.16v-1c-1.48 5.48-3.26 10.85-7.23 14.83-7.34 7.79-20.68 8.51-28.86 1.83-4.79-3.64-7.55-9.6-8.25-15.44-.6-4.48-.2-8.16-.07-12.64.2-10.74.03-23.45.09-34.6.18-7.64-.5-18.6.56-24.73 1.78-8.71 8.45-16.75 17.43-18.53 8.04-1.8 16.82 1.25 21.74 7.76Z" class="st4" style="fill:#fff;stroke:#fff;stroke-width:10;stroke-dasharray:none"/><circle id="circle19" cx="600.5" cy="128.5" r="22" class="st0" style="fill:#fff;stroke:#fff;stroke-width:10;stroke-dasharray:none"/><path id="path20" d="M491.11 246.68c1.48.45 2.89 1.32 4.39 2.82 5 5 30 26 37 33s27 17 34 21 17 33 20 46c1.79 7.76 7.5 9.82 12.23 9.15l1.04 166.38-.02.36-14.25-.89s-125 1-144-1-18-12-18-12l.94-238 .06-15c4-4 44-10 53-11 6.3-.7 10.15-1.89 13.61-.82Z" class="st4" style="fill:#fff;stroke:#fff;stroke-width:10;stroke-dasharray:none"/><path id="path21" d="M450.5 333.5s107-2 114-1" class="st3" style="fill:#fff;stroke:#fff;stroke-width:10;stroke-dasharray:none"/><path id="path22" d="M451.5 389.5s113-4 120-1" class="st3" style="fill:#fff;stroke:#fff;stroke-width:10;stroke-dasharray:none"/><path id="path23" d="M449.5 446.5s107-3 117-1" class="st3" style="fill:#fff;stroke:#fff;stroke-width:10;stroke-dasharray:none"/><path id="path24" d="M633.5 333.5s102-4 111-2" class="st3" style="fill:#fff;stroke:#fff;stroke-width:10;stroke-dasharray:none"/><path id="path25" d="M632.5 390.5s99-3 112-2" class="st3" style="fill:#fff;stroke:#fff;stroke-width:10;stroke-dasharray:none"/><path id="path26" d="M631.5 445.5s112-1 118 0" class="st3" style="fill:#fff;stroke:#fff;stroke-width:10;stroke-dasharray:none"/><path id="polyline26" d="m598.72 357.55.01 1.1 1.04 166.38" class="st3" style="fill:#fff;stroke:#fff;stroke-width:10.01635806;stroke-dasharray:none" transform="matrix(1.00013 0 0 .9966 -.08 2.35)"/><circle id="circle26" cx="600.5" cy="128.5" r="22" class="st2" style="fill:#fff;stroke:#fff;stroke-width:10;stroke-dasharray:none"/><path id="path27" d="M621.5 257.5c.47-15.18-.12-40.28.02-55.16.19-9.42 1.69-19.19-4.61-27.36-4.92-6.51-13.7-9.56-21.74-7.76-8.98 1.78-15.65 9.82-17.43 18.53-1.06 6.13-.38 17.09-.56 24.73-.06 11.15.11 23.86-.09 34.6-.13 4.48-.53 8.16.07 12.64.7 5.84 3.46 11.8 8.25 15.44 8.18 6.68 21.52 5.96 28.86-1.83 3.97-3.98 5.75-9.35 7.23-14.83" class="st1" style="fill:#fff;stroke:#fff;stroke-width:10;stroke-dasharray:none"/></g><defs id="defs1"><style id="style1">.st0,.st1,.st2,.st3{fill:none}.st4{fill:#fff}.st1{stroke-width:10px}.st1,.st2,.st3,.st5{stroke:#000;stroke-miterlimit:10}.st5{fill:#99badd}.st3,.st5{stroke-width:6px}.st2{stroke-width:9px}.st6{fill:#4c86c5}</style></defs><g id="g16"><path id="path1" d="M814.5 290.5s-1 230-1 248-15 16-15 16l-171-2s1 4-3 11-14 8-30 9-17-18-17-18-164 3-178 1-12-17-12-17v-129s-2-115 1-124 35-12 35-12h.94l-.94 238s-1 10 18 12 144 1 144 1l14.25.89 1.75.11s11-3 41-3 127 3 127 3 10-3 11-16c.88-11.41-.56-191.57-.92-235.43h.19s4.73.43 13.73.43 21 16 21 16" class="st6"/><path id="path2" d="M780.716 274.638c.36 43.86 1.8 224.02.92 235.43-1 13-11 16-11 16s-97-3-127-3-41 3-41 3l-1.75-.11.02-.36-1.04-166.38c3.2-.44 5.97-2.13 6.77-4.15 2-5 16-22 19-29s12-19 19-28 52-37 60-44c2.36-2.06 4.19-3.26 6.04-3.91 4.44-1.58 8.96-.09 20.96-.09 17 0 49 15 49 15s.03 3.46.08 9.57" class="st4"/><path id="path3" d="M598.73 358.65c-4.73.67-10.44-1.39-12.23-9.15-3-13-13-42-20-46s-27-14-34-21-32-28-37-33c-1.5-1.5-2.91-2.37-4.39-2.82-1.15-2.4-9.88-21.19-13.61-49.18-4-30 3-31 9-61s36-52 36-52 49-27 78-26 101 24 114 78 10 70 7 79-12 34-12 34l.04.09c-1.85.65-3.68 1.85-6.04 3.91-8 7-53 35-60 44s-16 21-19 28-17 24-19 29c-.8 2.02-3.57 3.71-6.77 4.15Zm22.79-156.31c.19-9.42 1.69-19.19-4.61-27.36-4.92-6.51-13.7-9.56-21.74-7.76-8.98 1.78-15.65 9.82-17.43 18.53-1.06 6.13-.38 17.09-.56 24.73-.06 11.15.11 23.86-.09 34.6-.13 4.48-.53 8.16.07 12.64.7 5.84 3.46 11.8 8.25 15.44 8.18 6.68 21.52 5.96 28.86-1.83 3.97-3.98 5.75-9.35 7.23-14.83v1c.47-15.18-.12-40.28.02-55.16Zm.98-73.84c0-12.15-9.85-22-22-22s-22 9.85-22 22 9.85 22 22 22 22-9.85 22-22Z" class="st5" style="fill:#99badd;fill-opacity:1;stroke:#99badd;stroke-opacity:1"/><path id="path4" d="M616.91 174.98c6.3 8.17 4.8 17.94 4.61 27.36-.14 14.88.45 39.98-.02 55.16v-1c-1.48 5.48-3.26 10.85-7.23 14.83-7.34 7.79-20.68 8.51-28.86 1.83-4.79-3.64-7.55-9.6-8.25-15.44-.6-4.48-.2-8.16-.07-12.64.2-10.74.03-23.45.09-34.6.18-7.64-.5-18.6.56-24.73 1.78-8.71 8.45-16.75 17.43-18.53 8.04-1.8 16.82 1.25 21.74 7.76" class="st4"/><circle id="circle4" cx="600.5" cy="128.5" r="22" class="st0"/><path id="path5" d="M491.11 246.68c1.48.45 2.89 1.32 4.39 2.82 5 5 30 26 37 33s27 17 34 21 17 33 20 46c1.79 7.76 7.5 9.82 12.23 9.15l1.04 166.38-.02.36-14.25-.89s-125 1-144-1-18-12-18-12l.94-238 .06-15c4-4 44-10 53-11 6.3-.7 10.15-1.89 13.61-.82" class="st4"/><path id="path8" d="M450.5 333.5s107-2 114-1" class="st3"/><path id="path9" d="M451.5 389.5s113-4 120-1" class="st3"/><path id="path10" d="M449.5 446.5s107-3 117-1" class="st3"/><path id="path11" d="M633.5 333.5s102-4 111-2" class="st3"/><path id="path12" d="M632.5 390.5s99-3 112-2" class="st3"/><path id="path13" d="M631.5 445.5s112-1 118 0" class="st3"/><path id="polyline13" d="m598.72 357.55.01 1.1 1.04 166.38" class="st3" transform="matrix(1.00013 0 0 .9966 -.08 2.35)"/><circle id="circle14" cx="600.5" cy="128.5" r="22" class="st2"/><path id="path15" d="M621.5 257.5c.47-15.18-.12-40.28.02-55.16.19-9.42 1.69-19.19-4.61-27.36-4.92-6.51-13.7-9.56-21.74-7.76-8.98 1.78-15.65 9.82-17.43 18.53-1.06 6.13-.38 17.09-.56 24.73-.06 11.15.11 23.86-.09 34.6-.13 4.48-.53 8.16.07 12.64.7 5.84 3.46 11.8 8.25 15.44 8.18 6.68 21.52 5.96 28.86-1.83 3.97-3.98 5.75-9.35 7.23-14.83" class="st1"/></g></svg>