<svg xmlns="http://www.w3.org/2000/svg" xml:space="preserve" viewBox="0 0 1200 630"><path d="M542.246 353.482h71.011v214.807h-71.011z" style="fill:#734622;fill-opacity:1;stroke-width:22.7614;stroke-opacity:.4;paint-order:fill markers stroke"/><path d="M-3.977 608.181h32.842v110.066H-3.977z" style="fill:#734622;fill-opacity:1;stroke-width:22.0933;stroke-opacity:.4;paint-order:fill markers stroke" transform="rotate(-50.246)"/><path d="M689.896-300.061h32.842v110.066h-32.842z" style="fill:#734622;fill-opacity:1;stroke-width:22.0933;stroke-opacity:.4;paint-order:fill markers stroke" transform="rotate(51.98)"/><path d="M577.42 53.434a79.89 79.89 0 0 0-74.108 50.56 61.25 61.25 0 0 0-40.005-14.896 61.247 61.247 0 0 0-61.249 61.249 61 61 0 0 0 .375 5.251 61.3 61.3 0 0 0-15.465-1.994 61.247 61.247 0 0 0-61.244 61.249 61.25 61.25 0 0 0 9.39 32.501 61.25 61.25 0 0 0-28.976 51.984 61.247 61.247 0 0 0 61.244 61.244 61 61 0 0 0 2.071-.146 61.25 61.25 0 0 0 60.01 49.714 61.25 61.25 0 0 0 47.333-22.534 61 61 0 0 0 7.892.561 61.25 61.25 0 0 0 51.427-28.009 61.25 61.25 0 0 0 39.358 14.4 61.25 61.25 0 0 0 41.067-15.919 61.25 61.25 0 0 0 49.2 25.032 61 61 0 0 0 3.703-.263 61.25 61.25 0 0 0 51.453 28.035 61.25 61.25 0 0 0 60.274-50.927 61 61 0 0 0 3.754.268 61.247 61.247 0 0 0 61.244-61.249 61.25 61.25 0 0 0-32.17-53.895 61.25 61.25 0 0 0 11.22-35.108 61.247 61.247 0 0 0-61.248-61.244 61.3 61.3 0 0 0-13.382 1.635 61 61 0 0 0 .134-1.855 61.247 61.247 0 0 0-61.244-61.249 61.25 61.25 0 0 0-38.702 13.908 79.89 79.89 0 0 0-73.357-48.303" style="fill:#639c2b;fill-opacity:1;stroke-width:22.0933;stroke-opacity:.4;paint-order:fill markers stroke"/><path d="M510.95 569.123h23.944l26.47-.94v-147.73Zm133.084-.4h-23.945l-26.47-.94v-147.73Z" style="fill:#734622;stroke-width:10;stroke-opacity:.4;paint-order:fill markers stroke"/></svg>