<svg xmlns="http://www.w3.org/2000/svg" id="svg33" viewBox="0 0 1200 630"><defs id="defs1"><style id="style1">.st_light_blue{fill:#ccddec}.st_medium_blue{fill:#99badd}</style></defs><g id="g33" transform="translate(466.938 24.182)scale(1.58413)"><path id="path25" d="M50 60q-20 0-20-20t20-20Q60 0 80 0t30 20q20 0 20 20t-20 20z" class="st_medium_blue" style="fill:#4c85c3;fill-opacity:1"/><g id="g32" style="fill:none;stroke:#99badd;stroke-width:4;stroke-linecap:round;stroke-linejoin:round" transform="translate(80 60)"><path id="line25" d="M-30 0v30" style="fill:#4c85c3;fill-opacity:1;stroke:#4c85c3;stroke-opacity:1"/><path id="line26" d="M-10 0v40" style="fill:#4c85c3;fill-opacity:1;stroke:#4c85c3;stroke-opacity:1"/><path id="line27" d="M10 0v30" style="fill:#4c85c3;fill-opacity:1;stroke:#4c85c3;stroke-opacity:1"/><path id="line28" d="M30 0v40" style="fill:#4c85c3;fill-opacity:1;stroke:#4c85c3;stroke-opacity:1"/><path id="line29" d="M-30 30h-20" style="fill:#4c85c3;fill-opacity:1;stroke:#4c85c3;stroke-opacity:1"/><path id="line30" d="M-50 30v90" style="fill:#4c85c3;fill-opacity:1;stroke:#4c85c3;stroke-opacity:1"/><path id="line31" d="M30 40h20" style="fill:#4c85c3;fill-opacity:1;stroke:#4c85c3;stroke-opacity:1"/><path id="line32" d="M50 40v80" style="fill:#4c85c3;fill-opacity:1;stroke:#4c85c3;stroke-opacity:1"/></g></g><rect id="rect1" width="793.381" height="126.153" x="208.986" y="480" class="st_light_blue" rx="7.934" ry="31.538" style="stroke-width:1.58183"/><g id="g17" style="paint-order:stroke fill markers" transform="translate(400 200)"><path id="path1" d="m130 200 20 80h100l20-80Z" class="st_medium_blue" style="paint-order:stroke fill markers"/><rect id="rect2" width="180" height="15" x="110" y="280" class="st_medium_blue" rx="5" style="paint-order:stroke fill markers"/><rect id="rect3" width="400" height="250" x="0" y="0" class="st_medium_blue" rx="10" style="paint-order:stroke fill markers"/><path id="rect4" d="M15 15h370v220H15z" style="fill:#fff;paint-order:stroke fill markers"/><g id="g15" style="paint-order:stroke fill markers" transform="translate(230 35)"><path id="rect7" d="M-214.787-22.219H154.81v222.955h-369.597z" class="st_light_blue" style="fill:#f4f8fa;fill-opacity:1;stroke-width:2.07168;paint-order:stroke fill markers"/><g id="g14" class="st_medium_blue" style="paint-order:stroke fill markers"><rect id="rect8" width="175.541" height="8" x="-182.568" y="15" rx="5.851" style="stroke-width:1.71046;paint-order:stroke fill markers"/><rect id="rect9" width="263.311" height="8" x="-182.568" y="30" rx="5.851" style="stroke-width:1.71046;paint-order:stroke fill markers"/><rect id="rect10" width="117.027" height="8" x="-182.568" y="45" rx="5.851" style="stroke-width:1.71046;paint-order:stroke fill markers"/><rect id="rect11" width="234.054" height="8" x="-182.568" y="70" rx="5.851" style="stroke-width:1.71046;paint-order:stroke fill markers"/><rect id="rect12" width="146.284" height="8" x="-182.568" y="85" rx="5.851" style="stroke-width:1.71046;paint-order:stroke fill markers"/><rect id="rect13" width="204.797" height="8" x="-182.568" y="110" rx="5.851" style="stroke-width:1.71046;paint-order:stroke fill markers"/><rect id="rect14" width="292.568" height="8" x="-182.568" y="125" rx="5.851" style="stroke-width:1.71046;paint-order:stroke fill markers"/></g></g></g><g id="g24" transform="matrix(1 0 0 3.63406 463.418 506.519)"><rect id="rect17" width="260" height="25" x="0" y="0" class="st_medium_blue" rx="5"/><g id="g23" class="st_light_blue"><rect id="rect21" width="232.259" height="15" x="14.362" y="5" rx="4.645" style="stroke-width:1.524"/></g></g><path id="path24" d="M753.418 525.664s30 0 30 25.263-30 25.264-30 25.264c-15 0-15-50.527 0-50.527" class="st_medium_blue" style="stroke-width:1.42165"/></svg>