<svg xmlns="http://www.w3.org/2000/svg" id="svg33" viewBox="0 0 1200 630"><defs id="defs1"><style id="style1">.st_medium_blue{fill:#99badd}</style></defs><path id="path25" d="M523.258 187.346q-51.698 0-51.698-45.379t51.698-45.379q25.849-45.378 77.546-45.378t77.547 45.378q51.698 0 51.698 45.379t-51.698 45.379z" class="st_medium_blue" style="fill:#4c85c3;fill-opacity:1;stroke-width:2.42177"/><g id="g32" style="fill:none;stroke:#99badd;stroke-width:4;stroke-linecap:round;stroke-linejoin:round" transform="matrix(2.04991 0 0 1.79934 599.571 165.208)"><path id="line25" d="M-30 0v30" style="fill:#4c85c3;fill-opacity:1;stroke:#4c85c3;stroke-opacity:1"/><path id="line26" d="M-10 0v40" style="fill:#4c85c3;fill-opacity:1;stroke:#4c85c3;stroke-opacity:1"/><path id="line27" d="M10 0v30" style="fill:#4c85c3;fill-opacity:1;stroke:#4c85c3;stroke-opacity:1"/><path id="line28" d="M30 0v40" style="fill:#4c85c3;fill-opacity:1;stroke:#4c85c3;stroke-opacity:1"/><path id="line29" d="M-30 30h-20" style="fill:#4c85c3;fill-opacity:1;stroke:#4c85c3;stroke-opacity:1"/><path id="line30" d="M-50 30v90" style="fill:#4c85c3;fill-opacity:1;stroke:#4c85c3;stroke-opacity:1"/><path id="line31" d="M30 40h20" style="fill:#4c85c3;fill-opacity:1;stroke:#4c85c3;stroke-opacity:1"/><path id="line32" d="M50 40v80" style="fill:#4c85c3;fill-opacity:1;stroke:#4c85c3;stroke-opacity:1"/></g><rect id="rect3" width="517.613" height="283.965" x="341.193" y="256.952" class="st_medium_blue" rx="12.94" style="fill:#b3b3b3;stroke-width:1.21237;paint-order:stroke fill markers"/><path id="path1" d="m509.418 484.124 25.88 90.869h129.404l25.88-90.869z" class="st_medium_blue" style="fill:#b3b3b3;stroke-width:1.21237;paint-order:stroke fill markers"/><rect id="rect2" width="232.926" height="17.038" x="483.537" y="574.993" class="st_medium_blue" rx="6.47" style="fill:#b3b3b3;stroke-width:1.21237;paint-order:stroke fill markers"/><path id="rect4" d="M360.604 273.99h478.792v249.889H360.604z" style="fill:#fff;stroke-width:1.21237;paint-order:stroke fill markers"/><path id="rect7" d="M360.88 270.016h478.271v253.245H360.88z" style="fill:#f2f2f2;fill-opacity:1;stroke-width:2.51164;paint-order:stroke fill markers"/><g id="g14" class="st_medium_blue" style="paint-order:stroke fill markers" transform="matrix(1.29403 0 0 1.13586 638.821 296.707)"><rect id="rect8" width="175.541" height="8" x="-182.568" y="15" rx="5.851" style="fill:#4d4d4d;stroke-width:1.71046;paint-order:stroke fill markers"/><rect id="rect9" width="263.311" height="8" x="-182.568" y="30" rx="5.851" style="fill:#4d4d4d;stroke-width:1.71046;paint-order:stroke fill markers"/><rect id="rect10" width="117.027" height="8" x="-182.568" y="45" rx="5.851" style="fill:#4d4d4d;stroke-width:1.71046;paint-order:stroke fill markers"/><rect id="rect11" width="234.054" height="8" x="-182.568" y="70" rx="5.851" style="fill:#4d4d4d;stroke-width:1.71046;paint-order:stroke fill markers"/><rect id="rect12" width="146.284" height="8" x="-182.568" y="85" rx="5.851" style="fill:#4d4d4d;stroke-width:1.71046;paint-order:stroke fill markers"/><rect id="rect13" width="204.797" height="8" x="-182.568" y="110" rx="5.851" style="fill:#4d4d4d;stroke-width:1.71046;paint-order:stroke fill markers"/><rect id="rect14" width="292.568" height="8" x="-182.568" y="125" rx="5.851" style="fill:#4d4d4d;stroke-width:1.71046;paint-order:stroke fill markers"/></g></svg>