<svg xmlns="http://www.w3.org/2000/svg" id="svg28" viewBox="0 0 1200 630"><defs id="defs1"><style id="style1">.st_light_blue{fill:#ccddec}.st_medium_blue{fill:#99badd}.st_dark_blue{fill:#4c86c5}</style></defs><path id="rect1" d="M279.515 221.97h200.909v334.848H279.515z" class="st_medium_blue" style="stroke-width:1.33939;fill:#786721"/><path id="rect2" d="M306.303 248.758h147.333v281.273H306.303z" class="st_light_blue" style="stroke-width:1.33939;fill:#a0892c"/><path id="path2" d="M252.727 221.97h254.485l2.273-95.742-256.758 1.029z" class="st_dark_blue" style="stroke-width:1.59284;fill:#504416"/><path id="rect7" d="M622.727 111.364h350v450h-350z" style="fill:#fff"/><path id="rect8" fill-opacity=".2" d="M622.727 111.364h350v450h-350z" class="st_light_blue" style="fill:#ccc;fill-opacity:.455"/><path id="rect9" d="M642.727 131.364h310v40h-310z" class="st_dark_blue" style="fill:#d00;fill-opacity:1"/><path id="rect10" d="M642.727 191.364h145v10h-145z" class="st_medium_blue" style="fill:#4d4d4d"/><path id="rect11" d="M642.727 211.364h145v10h-145z" class="st_medium_blue" style="fill:#4d4d4d"/><path id="rect12" d="M642.727 231.364h100v10h-100z" class="st_medium_blue" style="fill:#4d4d4d"/><path id="rect13" d="M642.727 261.364h145v100h-145z" class="st_light_blue" style="fill:#ccc"/><path id="rect14" d="M652.727 321.364h20v30h-20z" class="st_dark_blue"/><path id="rect15" d="M682.727 301.364h20v50h-20z" class="st_dark_blue"/><path id="rect16" d="M712.727 331.364h20v20h-20z" class="st_dark_blue"/><path id="rect17" d="M742.727 291.364h20v60h-20z" class="st_dark_blue"/><path id="rect18" d="M807.727 191.364h145v10h-145z" class="st_medium_blue" style="fill:#4d4d4d"/><path id="rect19" d="M807.727 211.364h145v10h-145z" class="st_medium_blue" style="fill:#4d4d4d"/><path id="rect20" d="M807.727 231.364h145v10h-145z" class="st_medium_blue" style="fill:#4d4d4d"/><path id="rect21" d="M807.727 251.364h120v10h-120z" class="st_medium_blue" style="fill:#4d4d4d"/><path id="rect22" d="M807.727 281.364h145v120h-145z" class="st_light_blue" style="fill:#ccc"/><circle id="circle22" cx="842.727" cy="311.364" r="8" class="st_medium_blue"/><circle id="circle23" cx="902.727" cy="361.364" r="10" class="st_medium_blue"/><path id="line24" stroke="#99badd" stroke-width="3" d="m842.727 311.364 60 50"/><path id="rect24" d="M642.727 431.364h310v10h-310z" class="st_medium_blue" style="fill:#4d4d4d"/><path id="rect25" d="M642.727 451.364h310v10h-310z" class="st_medium_blue" style="fill:#4d4d4d"/><path id="rect26" d="M642.727 471.364h250v10h-250z" class="st_medium_blue" style="fill:#4d4d4d"/></svg>