<svg xmlns="http://www.w3.org/2000/svg" id="Layer_1" viewBox="0 0 1200 630"><defs id="defs1"><style id="style1">.st0{fill:#231f20;font-family:Arial-BoldMT,Arial;font-size:58.74px;font-weight:700}.st1,.st2{fill:#99b9dc;stroke:#231f20;stroke-miterlimit:10;stroke-width:4px}.st2{fill:#366ea6}</style></defs><text id="text1" class="st0" transform="translate(140.19 288.64)"><tspan id="tspan1" x="0" y="0">1</tspan></text><text id="text2" class="st0" transform="translate(141.89 350.34)"><tspan id="tspan2" x="0" y="0">0</tspan></text><path id="path2" d="M352.8 304.25c-18.98-25.73-38.32-51.92-57.38-76.25-13.24-16.9-27.95-30.16-43.04-40.57v36.76h-18.86v-48.26c-22.66-12.18-45.23-18.73-64.23-22.21v70.76h-18.86v-73.45c-18.59-1.88-30.63-.81-30.63-.81l2.35-63.66s135.55 5.9 201.56 83.7c20.33 23.97 43.6 53.54 67.01 83.72" class="st2" style="stroke:none"/><path id="path3" d="M859.73 354.36c180.58 207.73 241.89 158.89 241.89 158.89l-3.52-60.12c-5.17.07-10.28-.2-15.32-.79v-86.21h-18.86v82.44c-18.84-5.35-37.07-15.34-55.39-29.32v-53.11h-18.86v37.39c-28.35-25.57-57.56-60.12-90.28-101.48" class="st1" style="fill:#99b9dc;fill-opacity:1;stroke:none;stroke-opacity:0"/><text id="text3" class="st0" transform="translate(609.22 288.64)"><tspan id="tspan3" x="0" y="0">1</tspan></text><text id="text4" class="st0" transform="translate(610.93 350.34)"><tspan id="tspan4" x="0" y="0">0</tspan></text><text id="text5" class="st0" transform="translate(984.09 288.64)"><tspan id="tspan5" x="0" y="0">1</tspan></text><text id="text6" class="st0" transform="translate(984.09 350.34)"><tspan id="tspan6" x="0" y="0">0</tspan></text><text id="text7" class="st0" transform="translate(226.51 350.34)"><tspan id="tspan7" x="0" y="0">1</tspan></text><text id="text8" class="st0" transform="translate(228.21 288.64)"><tspan id="tspan8" x="0" y="0">0</tspan></text><text id="text9" class="st0" transform="translate(526.07 350.34)"><tspan id="tspan9" x="0" y="0">1</tspan></text><text id="text10" class="st0" transform="translate(526.07 288.64)"><tspan id="tspan10" x="0" y="0">0</tspan></text><text id="text11" class="st0" transform="translate(696.76 350.34)"><tspan id="tspan11" x="0" y="0">1</tspan></text><text id="text12" class="st0" transform="translate(696.76 288.64)"><tspan id="tspan12" x="0" y="0">0</tspan></text><text id="text13" class="st0" transform="translate(1056.08 350.34)"><tspan id="tspan13" x="0" y="0">1</tspan></text><text id="text14" class="st0" transform="translate(1056.08 288.64)"><tspan id="tspan14" x="0" y="0">0</tspan></text><path id="path14" d="M860.5 252.16c-13.94 18.05-27.83 36.62-41.43 54.67-46.02-53.72-77.38-89.26-100.22-112.78v34.79h-18.86V175.5c-30.86-28.4-42.52-27.61-65.11-27.99v79.55h-18.86v-80.47c-19.45-1.29-40.44 6.91-64.25 24.78v56.59h-18.84v-41c-29.3 26.36-62.83 65.7-102.54 118.27-12.18 16.09-24.9 33.39-38.27 51.96-.41.54-.81 1.11-1.22 1.67-106.09 147.32-267.58 156.76-267.58 156.76l-2.35-60.12s10.91 2.82 30.05.52v-89.89h18.86v86.35c17.8-4.52 39.78-13.19 64.84-29.46v-57.77h18.84v44.53c28.47-21.62 60.18-52.93 93.71-98.07 1.88-2.51 3.73-4.99 5.53-7.46 13.53-18.14 26.12-34.88 37.91-50.27C485.28 130.43 528 92.31 580.66 91.28c60.09-1.17 153.22-2.35 259.31 134.38 7 9.04 13.85 17.87 20.54 26.5Z" class="st1" style="stroke:none"/><path id="path15" d="m1101.62 87.76-1.17 61.29c-6.1.54-11.97 1.33-17.67 2.33v74.08h-18.86v-69.94c-21.6 5.78-39.67 14.37-54.22 23.34v47.78h-18.86v-34.61c-18.14 14.3-27.11 26.57-27.11 26.57s-30.84 39.58-64.34 83.45c-13.4 17.51-27.2 35.72-39.65 52.32-3.57 4.79-7.05 9.44-10.35 13.92-43.6 58.94-110.79 127.3-194.47 144.97-83.7 17.69-127.3-25.94-173.28-56.57-24.13-16.09-55.39-54.24-89.53-99.49 13.37-18.57 26.09-35.88 38.27-51.96 37.95 48.93 71.95 91.52 88.99 104.31 3.55 2.67 8 5.51 13.24 8.38v-52.07h18.86v61.16c18.12 7.66 40.69 14.46 64.54 17.42v-76.97h18.86v78.42c22.46.7 45.27-2.53 65.99-12.09v-67.64h18.86v56.68c4.07-2.91 8-6.15 11.79-9.74 24.85-23.52 55.3-63.46 87.54-106.25 13.6-18.05 27.49-36.62 41.43-54.67 42.43-54.97 85.04-105.19 119.71-121.97 73.08-35.36 110.81-44.8 121.41-42.43Z" class="st2" style="stroke:none"/></svg>