<svg xmlns="http://www.w3.org/2000/svg" id="Layer_2" viewBox="0 0 1200 630"><path id="path6" d="m387.651 368.668 54.092-3.715s6.668 7.43 5.927 16.348c-.74 8.917 2.223 34.925 7.41 39.384 5.187 4.458 30.38 10.403 37.79 7.43 7.41-2.972 25.935-16.347 26.676-22.292s2.222-28.238 2.222-28.238 0-8.174 8.892-8.917 51.806-1.108 51.806-1.108l2.286 56.84s.74 8.174 6.669 10.404c5.927 2.229 36.308 3.715 36.308 3.715s22.229 14.862 20.006 29.724-13.338 30.467-23.711 31.953c-10.374 1.486-31.121 1.486-31.121 1.486s-10.374 2.973-11.115 13.376.74 47.558.74 47.558H420.255s-26.675-9.66-28.157-26.008-4.446-167.94-4.446-167.94z" style="fill:#4c86c5;fill-opacity:1;stroke:#4c86c5;stroke-width:9.80773;stroke-opacity:1;paint-order:fill markers stroke"/><defs id="defs1"><style id="style1">.st0{font-family:Arial-BoldMT,Arial;font-size:54.39px;font-weight:700}.st1{fill:none;stroke:#000;stroke-miterlimit:10;stroke-width:8px}</style></defs><path id="path1" d="M386.03 360.61V200.46s-2.01-35.25 26.19-35.25 173.25-2.01 173.25-2.01v46.33s2.01 18.13-10.07 17.12c-12.09-1.01-42.3-8.06-52.38 24.17-10.07 32.23 33.24 40.29 33.24 40.29l19.14 1.01s11.08 0 10.07 12.09-1.01 57.41-1.01 57.41h-57.41s-10.07 1.01-11.08 11.08 1.01 25.18-2.01 30.22-9.07 19.14-21.15 19.14-39.28 10.07-42.3-18.13-2.01-37.27-2.01-37.27-1.01-9.07-13.09-8.06-49.36 2.01-49.36 2.01z" class="st1" style="fill:#99badd;fill-opacity:1;stroke:#99badd;stroke-opacity:1"/><path id="path2" d="M590.023 565.77v-48.868s-2.01-11.97 11.082-12.96c7.22-.554 15.662-.495 21.793-.337 6.13.159 12.401-2.01 17.172-6.088 7.061-6.03 15.642-15.722 14.432-26.494-1.46-12.98-11.342-23.355-16.702-28.097a13.18 13.18 0 0 0-7.411-3.218l-25.244-2.584s-15.112 1-15.112-10.97 1.01-56.838 1.01-56.838l59.438-1s10.072 1 10.072-9.97v-21.682c0-3.673 1.09-7.276 3.18-10.316 5.41-7.85 17.183-21.761 31.074-18.87 19.143 3.99 33.245 19.95 33.245 23.93s1.01 27.918 1.01 27.918 0 8.98 7.05 9.97c7.052.99 52.388-1 52.388-1l-1.01 164.545s-10.072 31.91-30.224 31.91-171.503.47-171.503.47" class="st1" style="fill:#366da6;fill-opacity:1;stroke:#366da6;stroke-opacity:1"/><path id="path3" d="m707.71 68.3 142.26 77.55s27.61 14.69 13.44 44.49-77.02 144.45-77.02 144.45l-40.66-20.83s-13.51-4.17-7.37-17.23c6.14-13.05 10.91-20.22 10.91-20.22s12.11-20.97-8.17-36.03c-15.22-11.3-30.9-8.14-37.77-5.87-2.23.74-4.13 2.21-5.45 4.15-4.25 6.25-14.5 21.23-16.76 23.96-2.87 3.47-6.14 13.05-16.24 7.6s-51.82-30.66-51.82-30.66l26.35-46.61s6.14-13.05-3.74-19.48-20.22-10.91-20.22-10.91-22.47-14.53-10.66-38.67c8.59-17.55 27.13-19.12 36.61-18.67 3.37.16 6.66.99 9.73 2.39l14.82 6.72s11.39 8.85 18.5-3.97S707.7 68.3 707.7 68.3Z" class="st1" style="fill:#2b547e;fill-opacity:1;stroke:#2b5480;stroke-opacity:1"/><text id="text3" class="st0" style="fill:#373a3c;fill-opacity:1" transform="translate(399.39 280.1)"><tspan id="tspan3" x="0" y="0" style="fill:#373a3c;fill-opacity:1">HLA</tspan></text><text id="text4" class="st0" style="fill:#373a3c;fill-opacity:1" transform="translate(664.81 485.46)"><tspan id="tspan4" x="0" y="0" style="fill:#373a3c;fill-opacity:1">KIR</tspan></text><text id="text5" class="st0" style="fill:#373a3c;fill-opacity:1" transform="translate(409.97 492.51)"><tspan id="tspan5" x="0" y="0" style="fill:#373a3c;fill-opacity:1">ERAP</tspan></text><text id="text6" class="st0" style="fill:#373a3c;fill-opacity:1" transform="rotate(30 26.57 1372.46)"><tspan id="tspan6" x="0" y="0" style="fill:#373a3c;fill-opacity:1">TCR</tspan></text></svg>