<svg xmlns="http://www.w3.org/2000/svg" id="svg28" viewBox="0 0 1200 630"><defs id="defs1"><style id="style1">.st_medium_blue{fill:#99badd}.st_dark_blue{fill:#4c86c5}</style></defs><path id="rect1" d="M407.056 110.391h400v450h-400z" style="fill:#ccddec"/><path id="rect2" d="M407.056 80.391h400v30h-400z" class="st_dark_blue"/><g id="g10" class="st_medium_blue" transform="translate(207.056 -39.61)"><path id="rect3" d="M240 320h60v60h-60z"/><path id="rect4" d="M310 320h60v60h-60z"/><path id="rect5" d="M380 320h60v60h-60z"/><path id="rect6" d="M450 320h60v60h-60z"/><path id="rect7" d="M240 410h60v60h-60z"/><path id="rect8" d="M310 410h60v60h-60z"/><path id="rect9" d="M380 410h60v60h-60z"/><path id="rect10" d="M450 410h60v60h-60z"/></g><path id="rect11" d="M537.056 460.391h140v100h-140z" class="st_dark_blue"/><path id="rect12" d="M552.056 475.391h50v85h-50z" class="st_medium_blue"/><path id="rect13" d="M612.056 475.391h50v85h-50z" class="st_medium_blue"/><circle id="path28" cx="599.55" cy="194.315" r="64.584" style="fill:#fff;fill-opacity:1;stroke:#fff;stroke-width:10"/><g id="g24" transform="rotate(-42.598 494.45 -629.027)scale(.77759)"><path id="path23" d="M71.89 114.546c11.407-11.922 10.985-31.01-.937-42.416L5.923 9.913C-6-1.494-25.088-1.072-36.495 10.85s-10.984 31.01.938 42.416l65.03 62.217c11.923 11.407 31.01 10.985 42.417-.938" style="fill:#c9c9c9;fill-opacity:1"/><path id="path24" d="M71.89 114.546c-11.406 11.923-30.493 12.345-42.415.938L-3.041 84.375l41.479-43.354 32.515 31.11c11.922 11.406 12.344 30.493.938 42.415" class="st_medium_blue"/></g></svg>