<svg xmlns="http://www.w3.org/2000/svg" id="svg21" viewBox="0 0 1200 630"><defs id="defs1"><style id="style1">.st_light_blue{fill:#ccddec}.st_medium_blue{fill:#99badd}.st_dark_blue{fill:#4c86c5}.st_lavender{fill:#9b59b6}</style></defs><g id="g5" transform="translate(248.415 140.405)"><path id="rect1" d="M12 40C5.35 40 0 45.354 0 52v250.932a50.37 43.551 0 0 0-.37 4.455A50.37 43.551 0 0 0 50 350.938a50.37 43.551 0 0 0 50.369-43.55 50.37 43.551 0 0 0-.37-5.17V52c0-6.648-5.352-12-12-12z" class="st_light_blue"/><path id="rect2" d="M15.431 104.204c-4.432 0-8 4.22-8 9.464v178.465a42.13 46.382 0 0 0-.045.691 42.13 46.382 0 0 0 .045.691v4.711c0 1.704.408 3.278 1.068 4.656a42.13 46.382 0 0 0 41.018 36.322 42.13 46.382 0 0 0 41.148-36.98c.48-1.216.766-2.562.766-3.998v-2.086a42.13 46.382 0 0 0 .215-3.316 42.13 46.382 0 0 0-.215-4.67V113.668c0-5.243-3.568-9.464-8-9.464z" style="fill:#c0392b;stroke-width:1.08769"/><rect id="rect4" width="110" height="50" x="-5" y="0" class="st_lavender" rx="8" ry="8"/><rect id="rect5" width="80" height="12" x="10" y="-10" fill-opacity=".8" class="st_lavender" rx="3" ry="3"/></g><g id="g20" transform="translate(352.888 229.502)"><rect id="rect6" width="18" height="18" x="10" y="40" class="st_dark_blue" rx="3"/><circle id="circle6" cx="40" cy="20" r="8" class="st_medium_blue"/><rect id="rect7" width="22" height="22" x="45.536" y="42.768" class="st_light_blue" rx="4"/><rect id="rect8" width="20" height="20" x="71.965" y="16.428" class="st_medium_blue" rx="3"/><rect id="rect9" width="25" height="25" x="20" y="110" class="st_dark_blue" rx="5"/><circle id="circle9" cx="60" cy="130" r="9" class="st_medium_blue"/><rect id="rect10" width="18" height="18" x="40.985" y="80.715" class="st_light_blue" rx="3"/><circle id="circle10" cx="120" cy="40" r="8" class="st_dark_blue"/><rect id="rect11" width="20" height="20" x="90.985" y="50.715" class="st_medium_blue" rx="3"/><rect id="rect12" width="22" height="22" x="80.985" y="100.715" class="st_dark_blue" rx="4"/><g id="g17" transform="translate(180 30)"><rect id="rect13" width="18" height="18" x="-77.585" y="49.373" class="st_medium_blue" rx="3"/><circle id="circle10-3" cx="-98.794" cy="112.088" r="8" class="st_dark_blue" style="fill:#4c86c5"/><rect id="rect11-5" width="20" height="20" x="-127.81" y="122.804" class="st_medium_blue" rx="3" style="fill:#99badd"/><rect id="rect13-4" width="18" height="18" x="-158.966" y="141.819" class="st_medium_blue" rx="3" style="fill:#99badd"/><circle id="circle13" cx="-47.585" cy="69.373" r="7" class="st_dark_blue"/><circle id="circle13-6" cx="-153.931" cy="51.468" r="7" class="st_dark_blue" style="fill:#4c86c5"/><rect id="rect14" width="15" height="15" x="-31.602" y="18.66" class="st_light_blue" rx="2"/><circle id="circle14" cx="-11.602" cy="53.66" r="6" class="st_medium_blue"/><rect id="rect15" width="20" height="20" x="8.398" y="33.66" class="st_dark_blue" rx="3"/><rect id="rect15-9" width="20" height="20" x="-171.606" y="-38.761" class="st_dark_blue" rx="3" style="fill:#4c86c5"/><rect id="rect16" width="18" height="18" x="-69.638" y="90.534" class="st_medium_blue" rx="3"/><circle id="circle16" cx="-31.602" cy="83.66" r="8" class="st_light_blue"/><rect id="rect17" width="15" height="15" x="-1.602" y="78.66" class="st_dark_blue" rx="2"/></g><g id="g19" transform="translate(340 60)"><circle id="circle17" cx="-119.368" cy="36.071" r="6" class="st_dark_blue"/><circle id="circle17-1" cx="-204.92" cy="11.04" r="6" class="st_dark_blue" style="fill:#4c86c5"/><rect id="rect18" width="15" height="15" x="-99.368" y="26.071" class="st_medium_blue" rx="2"/><rect id="rect19" width="12" height="12" x="-74.635" y="36.071" class="st_dark_blue" rx="2"/><circle id="circle19-4" cx="-264.425" cy="25.7" r="5" class="st_medium_blue" style="fill:#99badd"/></g></g><g id="g21" transform="translate(646.116 232.716)"><path id="path20" d="M0 100c50 0 80-60 130-60s88.839 55.179 121.965 21.965l113.39-121.426" style="fill:none;stroke:#4c86c5;stroke-width:12;stroke-linecap:round;stroke-linejoin:round"/></g></svg>