<svg xmlns="http://www.w3.org/2000/svg" id="svg28" viewBox="0 0 1200 630"><defs id="defs1"><style id="style1">.st_light_blue{fill:#ccddec}.st_medium_blue{fill:#99badd}.st_dark_blue{fill:#4c86c5}</style></defs><path id="rect7" d="M418.89 92.589h350v450h-350z" style="fill:#fff"/><path id="rect8" fill-opacity=".2" d="M418.89 92.589h350v450h-350z" class="st_light_blue" style="fill:#ccc;fill-opacity:.455"/><path id="rect9" d="M438.89 112.589h310v40h-310z" class="st_dark_blue" style="fill:#d00;fill-opacity:1"/><path id="rect10" d="M438.89 172.589h145v10h-145z" class="st_medium_blue" style="fill:#4d4d4d"/><path id="rect11" d="M438.89 192.589h145v10h-145z" class="st_medium_blue" style="fill:#4d4d4d"/><path id="rect12" d="M438.89 212.589h100v10h-100z" class="st_medium_blue" style="fill:#4d4d4d"/><path id="rect13" d="M438.89 242.589h145v100h-145z" class="st_light_blue" style="fill:#ccc"/><path id="rect14" d="M448.89 302.589h20v30h-20z" class="st_dark_blue"/><path id="rect15" d="M478.89 282.589h20v50h-20z" class="st_dark_blue"/><path id="rect16" d="M508.89 312.589h20v20h-20z" class="st_dark_blue"/><path id="rect17" d="M538.89 272.589h20v60h-20z" class="st_dark_blue"/><path id="rect18" d="M603.89 172.589h145v10h-145z" class="st_medium_blue" style="fill:#4d4d4d"/><path id="rect19" d="M603.89 192.589h145v10h-145z" class="st_medium_blue" style="fill:#4d4d4d"/><path id="rect20" d="M603.89 212.589h145v10h-145z" class="st_medium_blue" style="fill:#4d4d4d"/><path id="rect21" d="M603.89 232.589h120v10h-120z" class="st_medium_blue" style="fill:#4d4d4d"/><path id="rect22" d="M603.89 262.589h145v120h-145z" class="st_light_blue" style="fill:#ccc"/><circle id="circle22" cx="638.89" cy="292.589" r="8" class="st_medium_blue"/><circle id="circle23" cx="698.89" cy="342.589" r="10" class="st_medium_blue"/><path id="line24" stroke="#99badd" stroke-width="3" d="m638.89 292.589 60 50"/><path id="rect24" d="M438.89 412.589h310v10h-310z" class="st_medium_blue" style="fill:#4d4d4d"/><path id="rect25" d="M438.89 432.589h310v10h-310z" class="st_medium_blue" style="fill:#4d4d4d"/><path id="rect26" d="M438.89 452.589h250v10h-250z" class="st_medium_blue" style="fill:#4d4d4d"/></svg>